%TF.GenerationSoftware,KiCad,Pcbnew,7.0.9*%
%TF.CreationDate,2023-12-03T03:50:30-05:00*%
%TF.ProjectId,SparkFun_MicroSD_Sniffer_v10,53706172-6b46-4756-9e5f-4d6963726f53,rev?*%
%TF.SameCoordinates,Original*%
%TF.FileFunction,Profile,NP*%
%FSLAX46Y46*%
G04 Gerber Fmt 4.6, Leading zero omitted, Abs format (unit mm)*
G04 Created by KiCad (PCBNEW 7.0.9) date 2023-12-03 03:50:30*
%MOMM*%
%LPD*%
G01*
G04 APERTURE LIST*
%TA.AperFunction,Profile*%
%ADD10C,0.254000*%
%TD*%
G04 APERTURE END LIST*
D10*
X164630100Y-111480600D02*
X162852100Y-111480600D01*
X125006100Y-117703600D02*
X125006100Y-92303600D01*
X147866100Y-92303600D02*
X147866100Y-99923600D01*
X166930000Y-110960000D02*
X165900100Y-111988600D01*
X126276100Y-118973600D02*
X125006100Y-117703600D01*
X146596100Y-118973600D02*
X147866100Y-117703600D01*
X171996100Y-101066600D02*
X149009100Y-101066600D01*
X165138100Y-111988600D02*
X164630100Y-111480600D01*
X146596100Y-91033600D02*
X147866100Y-92303600D01*
X162344100Y-111988600D02*
X148882100Y-111988600D01*
X126276100Y-91033600D02*
X146596100Y-91033600D01*
X147866100Y-117703600D02*
X147866100Y-113004600D01*
X162852100Y-111480600D02*
X162344100Y-111988600D01*
X147866100Y-113004600D02*
X148882100Y-111988600D01*
X171869100Y-110972600D02*
X166930000Y-110960000D01*
X147866100Y-99923600D02*
X149009100Y-101066600D01*
X126276100Y-118973600D02*
X146596100Y-118973600D01*
X171996100Y-101066600D02*
X171869100Y-110972600D01*
X165900100Y-111988600D02*
X165138100Y-111988600D01*
X125006100Y-92303600D02*
X126276100Y-91033600D01*
M02*
