%TF.GenerationSoftware,KiCad,Pcbnew,7.0.9*%
%TF.CreationDate,2023-12-03T03:50:29-05:00*%
%TF.ProjectId,SparkFun_MicroSD_Sniffer_v10,53706172-6b46-4756-9e5f-4d6963726f53,rev?*%
%TF.SameCoordinates,Original*%
%TF.FileFunction,Copper,L1,Top*%
%TF.FilePolarity,Positive*%
%FSLAX46Y46*%
G04 Gerber Fmt 4.6, Leading zero omitted, Abs format (unit mm)*
G04 Created by KiCad (PCBNEW 7.0.9) date 2023-12-03 03:50:29*
%MOMM*%
%LPD*%
G01*
G04 APERTURE LIST*
G04 Aperture macros list*
%AMRoundRect*
0 Rectangle with rounded corners*
0 $1 Rounding radius*
0 $2 $3 $4 $5 $6 $7 $8 $9 X,Y pos of 4 corners*
0 Add a 4 corners polygon primitive as box body*
4,1,4,$2,$3,$4,$5,$6,$7,$8,$9,$2,$3,0*
0 Add four circle primitives for the rounded corners*
1,1,$1+$1,$2,$3*
1,1,$1+$1,$4,$5*
1,1,$1+$1,$6,$7*
1,1,$1+$1,$8,$9*
0 Add four rect primitives between the rounded corners*
20,1,$1+$1,$2,$3,$4,$5,0*
20,1,$1+$1,$4,$5,$6,$7,0*
20,1,$1+$1,$6,$7,$8,$9,0*
20,1,$1+$1,$8,$9,$2,$3,0*%
G04 Aperture macros list end*
%TA.AperFunction,ComponentPad*%
%ADD10C,1.879600*%
%TD*%
%TA.AperFunction,ComponentPad*%
%ADD11R,1.879600X1.879600*%
%TD*%
%TA.AperFunction,SMDPad,CuDef*%
%ADD12RoundRect,0.500000X0.000000X0.000000X0.000000X0.000000X0.000000X0.000000X0.000000X0.000000X0*%
%TD*%
%TA.AperFunction,ComponentPad*%
%ADD13C,1.000000*%
%TD*%
%TA.AperFunction,SMDPad,CuDef*%
%ADD14R,0.700000X1.600000*%
%TD*%
%TA.AperFunction,SMDPad,CuDef*%
%ADD15R,1.200000X1.500000*%
%TD*%
%TA.AperFunction,SMDPad,CuDef*%
%ADD16R,1.200000X2.200000*%
%TD*%
%TA.AperFunction,SMDPad,CuDef*%
%ADD17R,1.600000X1.500000*%
%TD*%
%TA.AperFunction,ViaPad*%
%ADD18C,0.600000*%
%TD*%
%TA.AperFunction,Conductor*%
%ADD19C,0.200000*%
%TD*%
G04 APERTURE END LIST*
D10*
%TO.P,JP1,1,1*%
%TO.N,/DAT2*%
X127596900Y-117398800D03*
%TO.P,JP1,2,2*%
%TO.N,/CD{slash}DAT3*%
X130136900Y-117398800D03*
%TO.P,JP1,3,3*%
%TO.N,/CMD*%
X132676900Y-117398800D03*
D11*
%TO.P,JP1,4,4*%
%TO.N,GND*%
X135216900Y-117398800D03*
D10*
%TO.P,JP1,5,5*%
%TO.N,VCC*%
X137756900Y-117398800D03*
%TO.P,JP1,6,6*%
%TO.N,/CLK*%
X140296900Y-117398800D03*
%TO.P,JP1,7,7*%
%TO.N,/DAT0*%
X142836900Y-117398800D03*
%TO.P,JP1,8,8*%
%TO.N,/DAT1*%
X145376900Y-117398800D03*
%TD*%
D12*
%TO.P,FID1,1*%
%TO.N,N/C*%
X126276100Y-93573600D03*
%TD*%
%TO.P,FID2,1*%
%TO.N,N/C*%
X147104100Y-111607600D03*
%TD*%
D13*
%TO.P,Card1,*%
%TO.N,*%
X141610000Y-95450000D03*
X133610000Y-95450000D03*
D14*
%TO.P,Card1,1,DATA2*%
%TO.N,/DAT2*%
X134410000Y-106450000D03*
%TO.P,Card1,2,CD/DATA3*%
%TO.N,/CD{slash}DAT3*%
X135510000Y-106450000D03*
%TO.P,Card1,3,CMD*%
%TO.N,/CMD*%
X136610000Y-106450000D03*
%TO.P,Card1,4,VDD*%
%TO.N,VCC*%
X137710000Y-106450000D03*
%TO.P,Card1,5,CLK*%
%TO.N,/CLK*%
X138810000Y-106450000D03*
%TO.P,Card1,6,VSS*%
%TO.N,GND*%
X139910000Y-106450000D03*
%TO.P,Card1,7,DAT0*%
%TO.N,/DAT0*%
X141010000Y-106450000D03*
%TO.P,Card1,8,DAT1*%
%TO.N,/DAT1*%
X142110000Y-106450000D03*
%TO.P,Card1,9,CD*%
%TO.N,unconnected-(Card1-CD-Pad9)*%
X143210000Y-106450000D03*
D15*
%TO.P,Card1,10,GND*%
%TO.N,GND*%
X144410000Y-105450000D03*
D16*
%TO.P,Card1,11,GND*%
X144410000Y-95850000D03*
D17*
%TO.P,Card1,12,GND*%
X129810000Y-105450000D03*
D16*
%TO.P,Card1,13,GND*%
X128910000Y-95850000D03*
%TD*%
D18*
%TO.N,GND*%
X129050000Y-112500000D03*
X132760000Y-107790000D03*
X144190000Y-115230000D03*
X131480000Y-112600000D03*
%TO.N,VCC*%
X137700000Y-106330000D03*
X137740000Y-111570000D03*
%TO.N,/DAT2*%
X129570000Y-109600000D03*
%TO.N,/CD{slash}DAT3*%
X135520000Y-108600000D03*
%TO.N,/CMD*%
X136590000Y-108030000D03*
%TO.N,/CLK*%
X138840000Y-112710000D03*
X138820000Y-105210000D03*
%TO.N,/DAT0*%
X141610000Y-113020000D03*
X143110000Y-103740000D03*
%TO.N,/DAT1*%
X142250000Y-104600000D03*
X144310000Y-113460000D03*
%TD*%
D19*
%TO.N,VCC*%
X137710000Y-106340000D02*
X137710000Y-106450000D01*
X137710000Y-111540000D02*
X137710000Y-106450000D01*
X137756900Y-117398800D02*
X137710000Y-117351900D01*
X137740000Y-111570000D02*
X137710000Y-111540000D01*
X137700000Y-106330000D02*
X137710000Y-106340000D01*
X137710000Y-117351900D02*
X137710000Y-111600000D01*
X137710000Y-111600000D02*
X137740000Y-111570000D01*
X137710000Y-106320000D02*
X137700000Y-106330000D01*
%TO.N,/DAT2*%
X129570000Y-109600000D02*
X131170000Y-108000000D01*
X131190000Y-107980000D02*
X132720000Y-106450000D01*
X131170000Y-107980000D02*
X131190000Y-107980000D01*
X127596900Y-117398800D02*
X127596900Y-111573100D01*
X131170000Y-108000000D02*
X131170000Y-107980000D01*
X127596900Y-111573100D02*
X129570000Y-109600000D01*
X132720000Y-106450000D02*
X134410000Y-106450000D01*
%TO.N,/CD{slash}DAT3*%
X133390000Y-108620000D02*
X135420000Y-108620000D01*
X135510000Y-108530000D02*
X135510000Y-106450000D01*
X130136900Y-111873100D02*
X133390000Y-108620000D01*
X135420000Y-108620000D02*
X135510000Y-108530000D01*
X130136900Y-117398800D02*
X130136900Y-111873100D01*
%TO.N,/CMD*%
X132676900Y-111233100D02*
X132730000Y-111180000D01*
X132676900Y-117398800D02*
X132676900Y-111233100D01*
X133890000Y-109210000D02*
X136330000Y-109210000D01*
X132676900Y-110423100D02*
X133890000Y-109210000D01*
X136330000Y-109210000D02*
X136610000Y-108930000D01*
X132676900Y-111126900D02*
X132676900Y-110423100D01*
X132730000Y-111180000D02*
X132676900Y-111126900D01*
X136610000Y-108930000D02*
X136610000Y-106450000D01*
%TO.N,/CLK*%
X138810000Y-112680000D02*
X138810000Y-106450000D01*
X138820000Y-105210000D02*
X138820000Y-106440000D01*
X138840000Y-112710000D02*
X138810000Y-112680000D01*
X138810000Y-105450000D02*
X138810000Y-106450000D01*
X138820000Y-106440000D02*
X138810000Y-106450000D01*
X140296900Y-117398800D02*
X138810000Y-115911900D01*
X138810000Y-112740000D02*
X138840000Y-112710000D01*
X138810000Y-115911900D02*
X138810000Y-112740000D01*
%TO.N,/DAT0*%
X141610000Y-113020000D02*
X141600000Y-113020000D01*
X141600000Y-113020000D02*
X141010000Y-112430000D01*
X142836900Y-117398800D02*
X142836900Y-114256900D01*
X142130000Y-103740000D02*
X141010000Y-104860000D01*
X141010000Y-104860000D02*
X141010000Y-106450000D01*
X141610000Y-113030000D02*
X141610000Y-113020000D01*
X143110000Y-103740000D02*
X142130000Y-103740000D01*
X142836900Y-114256900D02*
X141610000Y-113030000D01*
X141010000Y-112430000D02*
X141010000Y-106450000D01*
%TO.N,/DAT1*%
X144250000Y-113460000D02*
X142110000Y-111320000D01*
X142110000Y-111320000D02*
X142110000Y-106450000D01*
X145376900Y-114586900D02*
X144310000Y-113520000D01*
X145376900Y-117398800D02*
X145376900Y-114586900D01*
X144310000Y-113520000D02*
X144310000Y-113460000D01*
X142170000Y-106390000D02*
X142110000Y-106450000D01*
X144310000Y-113460000D02*
X144250000Y-113460000D01*
X142170000Y-104611500D02*
X142170000Y-106390000D01*
%TD*%
%TA.AperFunction,Conductor*%
%TO.N,GND*%
G36*
X133736395Y-106873606D02*
G01*
X133754701Y-106917800D01*
X133754701Y-107295578D01*
X133757662Y-107321109D01*
X133803766Y-107425525D01*
X133884475Y-107506234D01*
X133988891Y-107552338D01*
X134014421Y-107555300D01*
X134805578Y-107555299D01*
X134831109Y-107552338D01*
X134934755Y-107506574D01*
X134982577Y-107505468D01*
X134985208Y-107506558D01*
X135067446Y-107542869D01*
X135100480Y-107577465D01*
X135104700Y-107600043D01*
X135104700Y-108126001D01*
X135089081Y-108163734D01*
X135090789Y-108165045D01*
X135071451Y-108190247D01*
X135030024Y-108214165D01*
X135021866Y-108214700D01*
X133325806Y-108214700D01*
X133299762Y-108223160D01*
X133290233Y-108225448D01*
X133263194Y-108229731D01*
X133263193Y-108229731D01*
X133238790Y-108242164D01*
X133229735Y-108245914D01*
X133203710Y-108254370D01*
X133203700Y-108254376D01*
X133181556Y-108270463D01*
X133173199Y-108275585D01*
X133148801Y-108288017D01*
X129804918Y-111631901D01*
X129804916Y-111631903D01*
X129792487Y-111656294D01*
X129787366Y-111664652D01*
X129771272Y-111686804D01*
X129762810Y-111712845D01*
X129759060Y-111721899D01*
X129746631Y-111746294D01*
X129742347Y-111773339D01*
X129740059Y-111782870D01*
X129731600Y-111808907D01*
X129731600Y-116174162D01*
X129713294Y-116218356D01*
X129695514Y-116230806D01*
X129511972Y-116316392D01*
X129333506Y-116441355D01*
X129179455Y-116595406D01*
X129054492Y-116773873D01*
X129054490Y-116773875D01*
X128962422Y-116971318D01*
X128962416Y-116971334D01*
X128927270Y-117102502D01*
X128898150Y-117140453D01*
X128850724Y-117146696D01*
X128812773Y-117117576D01*
X128806530Y-117102502D01*
X128771383Y-116971334D01*
X128771381Y-116971331D01*
X128771380Y-116971324D01*
X128701672Y-116821834D01*
X128679309Y-116773875D01*
X128679307Y-116773873D01*
X128679307Y-116773872D01*
X128554345Y-116595408D01*
X128554344Y-116595406D01*
X128400293Y-116441355D01*
X128286753Y-116361854D01*
X128221828Y-116316393D01*
X128221826Y-116316392D01*
X128221828Y-116316392D01*
X128038286Y-116230806D01*
X128005969Y-116195538D01*
X128002200Y-116174162D01*
X128002200Y-111766868D01*
X128020505Y-111722675D01*
X129515208Y-110227971D01*
X129559401Y-110209666D01*
X129567556Y-110210201D01*
X129570000Y-110210523D01*
X129712803Y-110191722D01*
X129728008Y-110189721D01*
X129728008Y-110189720D01*
X129728015Y-110189720D01*
X129875262Y-110128728D01*
X130001705Y-110031705D01*
X130098728Y-109905262D01*
X130159720Y-109758015D01*
X130180523Y-109600000D01*
X130180202Y-109597566D01*
X130180523Y-109596369D01*
X130180523Y-109595903D01*
X130180648Y-109595903D01*
X130192576Y-109551361D01*
X130197964Y-109545215D01*
X131479145Y-108264036D01*
X131501982Y-108241199D01*
X131521982Y-108221199D01*
X132869575Y-106873606D01*
X132913769Y-106855300D01*
X133692201Y-106855300D01*
X133736395Y-106873606D01*
G37*
%TD.AperFunction*%
%TA.AperFunction,Conductor*%
G36*
X132253294Y-110418274D02*
G01*
X132271600Y-110462468D01*
X132271600Y-116174162D01*
X132253294Y-116218356D01*
X132235514Y-116230806D01*
X132051972Y-116316392D01*
X131873506Y-116441355D01*
X131719455Y-116595406D01*
X131594492Y-116773873D01*
X131594490Y-116773875D01*
X131502422Y-116971318D01*
X131502416Y-116971334D01*
X131467270Y-117102502D01*
X131438150Y-117140453D01*
X131390724Y-117146696D01*
X131352773Y-117117576D01*
X131346530Y-117102502D01*
X131311383Y-116971334D01*
X131311381Y-116971331D01*
X131311380Y-116971324D01*
X131241672Y-116821834D01*
X131219309Y-116773875D01*
X131219307Y-116773873D01*
X131219307Y-116773872D01*
X131094345Y-116595408D01*
X131094344Y-116595406D01*
X130940293Y-116441355D01*
X130826753Y-116361854D01*
X130761828Y-116316393D01*
X130761826Y-116316392D01*
X130761828Y-116316392D01*
X130578286Y-116230806D01*
X130545969Y-116195538D01*
X130542200Y-116174162D01*
X130542200Y-112066868D01*
X130560505Y-112022675D01*
X132164906Y-110418273D01*
X132209100Y-110399968D01*
X132253294Y-110418274D01*
G37*
%TD.AperFunction*%
%TA.AperFunction,Conductor*%
G36*
X141585208Y-107506557D02*
G01*
X141667446Y-107542869D01*
X141700480Y-107577465D01*
X141704700Y-107600043D01*
X141704700Y-111384195D01*
X141713159Y-111410227D01*
X141715448Y-111419763D01*
X141719730Y-111446801D01*
X141719731Y-111446804D01*
X141732159Y-111471196D01*
X141735911Y-111480254D01*
X141744373Y-111506297D01*
X141760463Y-111528443D01*
X141765586Y-111536803D01*
X141778016Y-111561197D01*
X143687910Y-113471091D01*
X143705681Y-113507127D01*
X143720278Y-113618008D01*
X143720281Y-113618018D01*
X143781270Y-113765259D01*
X143781272Y-113765262D01*
X143878294Y-113891705D01*
X143921579Y-113924918D01*
X144004738Y-113988728D01*
X144151985Y-114049720D01*
X144151991Y-114049720D01*
X144151992Y-114049721D01*
X144262871Y-114064318D01*
X144298908Y-114082089D01*
X144953294Y-114736475D01*
X144971600Y-114780669D01*
X144971600Y-116174162D01*
X144953294Y-116218356D01*
X144935514Y-116230806D01*
X144751972Y-116316392D01*
X144573506Y-116441355D01*
X144419455Y-116595406D01*
X144294492Y-116773873D01*
X144294490Y-116773875D01*
X144202422Y-116971318D01*
X144202416Y-116971334D01*
X144167270Y-117102502D01*
X144138150Y-117140453D01*
X144090724Y-117146696D01*
X144052773Y-117117576D01*
X144046530Y-117102502D01*
X144011383Y-116971334D01*
X144011381Y-116971331D01*
X144011380Y-116971324D01*
X143941672Y-116821834D01*
X143919309Y-116773875D01*
X143919307Y-116773873D01*
X143919307Y-116773872D01*
X143794345Y-116595408D01*
X143794344Y-116595406D01*
X143640293Y-116441355D01*
X143526753Y-116361854D01*
X143461828Y-116316393D01*
X143461826Y-116316392D01*
X143461828Y-116316392D01*
X143278286Y-116230806D01*
X143245969Y-116195538D01*
X143242200Y-116174162D01*
X143242200Y-114192706D01*
X143233741Y-114166672D01*
X143231452Y-114157137D01*
X143227168Y-114130096D01*
X143227168Y-114130094D01*
X143214736Y-114105696D01*
X143210988Y-114096648D01*
X143202527Y-114070605D01*
X143186435Y-114048456D01*
X143181310Y-114040092D01*
X143168883Y-114015702D01*
X142236809Y-113083628D01*
X142218503Y-113039434D01*
X142219037Y-113031284D01*
X142220523Y-113020000D01*
X142219997Y-113016007D01*
X142199721Y-112861991D01*
X142199720Y-112861989D01*
X142199720Y-112861985D01*
X142138728Y-112714739D01*
X142041705Y-112588295D01*
X142041703Y-112588294D01*
X142041703Y-112588293D01*
X141915262Y-112491272D01*
X141915259Y-112491270D01*
X141768018Y-112430281D01*
X141768008Y-112430278D01*
X141610003Y-112409477D01*
X141610001Y-112409477D01*
X141610000Y-112409477D01*
X141598720Y-112410961D01*
X141552516Y-112398580D01*
X141546371Y-112393190D01*
X141433606Y-112280425D01*
X141415300Y-112236231D01*
X141415300Y-107600043D01*
X141433606Y-107555849D01*
X141452552Y-107542869D01*
X141534757Y-107506572D01*
X141582578Y-107505468D01*
X141585208Y-107506557D01*
G37*
%TD.AperFunction*%
%TA.AperFunction,Conductor*%
G36*
X137291784Y-108154217D02*
G01*
X137304700Y-108192265D01*
X137304700Y-111121764D01*
X137291784Y-111159811D01*
X137217992Y-111255982D01*
X137211270Y-111264742D01*
X137150281Y-111411981D01*
X137150278Y-111411991D01*
X137129477Y-111569998D01*
X137129477Y-111570001D01*
X137150278Y-111728008D01*
X137150281Y-111728018D01*
X137211270Y-111875259D01*
X137211272Y-111875263D01*
X137291784Y-111980186D01*
X137304700Y-112018234D01*
X137304700Y-116196031D01*
X137286394Y-116240225D01*
X137268614Y-116252675D01*
X137131972Y-116316392D01*
X136953506Y-116441355D01*
X136799455Y-116595406D01*
X136674492Y-116773873D01*
X136674490Y-116773875D01*
X136582422Y-116971319D01*
X136582421Y-116971323D01*
X136581926Y-116972682D01*
X136581642Y-116972990D01*
X136581267Y-116973797D01*
X136581012Y-116973678D01*
X136549601Y-117007943D01*
X136501811Y-117010021D01*
X136466550Y-116977696D01*
X136460699Y-116951294D01*
X136460699Y-116413611D01*
X136457750Y-116388192D01*
X136457750Y-116388191D01*
X136411842Y-116284221D01*
X136331478Y-116203857D01*
X136227505Y-116157948D01*
X136202089Y-116155000D01*
X135368900Y-116155000D01*
X135368900Y-116909748D01*
X135361492Y-116906365D01*
X135253234Y-116890800D01*
X135180566Y-116890800D01*
X135072308Y-116906365D01*
X135064900Y-116909748D01*
X135064900Y-116155000D01*
X134231711Y-116155000D01*
X134206292Y-116157949D01*
X134206291Y-116157949D01*
X134102321Y-116203857D01*
X134021957Y-116284221D01*
X133976048Y-116388194D01*
X133973100Y-116413611D01*
X133973100Y-116951293D01*
X133954794Y-116995487D01*
X133910600Y-117013793D01*
X133866406Y-116995487D01*
X133852574Y-116973777D01*
X133852533Y-116973797D01*
X133852386Y-116973482D01*
X133851870Y-116972672D01*
X133851382Y-116971332D01*
X133851380Y-116971324D01*
X133781672Y-116821834D01*
X133759309Y-116773875D01*
X133759307Y-116773873D01*
X133759307Y-116773872D01*
X133634345Y-116595408D01*
X133634344Y-116595406D01*
X133480293Y-116441355D01*
X133366753Y-116361854D01*
X133301828Y-116316393D01*
X133301826Y-116316392D01*
X133301828Y-116316392D01*
X133118286Y-116230806D01*
X133085969Y-116195538D01*
X133082200Y-116174162D01*
X133082200Y-111405083D01*
X133094138Y-111368344D01*
X133095627Y-111366296D01*
X133135300Y-111244193D01*
X133135300Y-111115807D01*
X133131581Y-111104362D01*
X133095627Y-110993704D01*
X133094134Y-110991649D01*
X133082200Y-110954915D01*
X133082200Y-110616869D01*
X133100506Y-110572675D01*
X134039575Y-109633606D01*
X134083769Y-109615300D01*
X136394192Y-109615300D01*
X136394193Y-109615300D01*
X136394194Y-109615299D01*
X136394197Y-109615299D01*
X136401699Y-109612860D01*
X136420230Y-109606838D01*
X136429756Y-109604551D01*
X136456806Y-109600268D01*
X136481209Y-109587833D01*
X136490245Y-109584090D01*
X136516296Y-109575627D01*
X136538457Y-109559524D01*
X136546791Y-109554417D01*
X136571199Y-109541982D01*
X136661982Y-109451199D01*
X136919145Y-109194036D01*
X136941982Y-109171199D01*
X136954417Y-109146791D01*
X136959524Y-109138457D01*
X136975627Y-109116296D01*
X136984090Y-109090245D01*
X136987833Y-109081209D01*
X137000268Y-109056806D01*
X137004551Y-109029756D01*
X137006838Y-109020230D01*
X137015300Y-108994193D01*
X137015300Y-108865807D01*
X137015300Y-108491267D01*
X137028215Y-108453220D01*
X137118728Y-108335262D01*
X137179720Y-108188015D01*
X137179760Y-108187705D01*
X137180235Y-108184108D01*
X137204152Y-108142681D01*
X137250357Y-108130300D01*
X137291784Y-108154217D01*
G37*
%TD.AperFunction*%
%TA.AperFunction,Conductor*%
G36*
X146561594Y-91179406D02*
G01*
X147720294Y-92338106D01*
X147738600Y-92382300D01*
X147738600Y-99889320D01*
X147734660Y-99911159D01*
X147733556Y-99914118D01*
X147733556Y-99914120D01*
X147737172Y-99930742D01*
X147737900Y-99937520D01*
X147737964Y-99937511D01*
X147738599Y-99941932D01*
X147742166Y-99954079D01*
X147742718Y-99956240D01*
X147749471Y-99987282D01*
X147751542Y-99991074D01*
X147751691Y-99991435D01*
X147751736Y-99991511D01*
X147751975Y-99991807D01*
X147754310Y-99995441D01*
X147768285Y-100007550D01*
X147778334Y-100016257D01*
X147779959Y-100017771D01*
X148894703Y-101132515D01*
X148907359Y-101150741D01*
X148908673Y-101153619D01*
X148908675Y-101153621D01*
X148922982Y-101162815D01*
X148928288Y-101167091D01*
X148928327Y-101167040D01*
X148931906Y-101169719D01*
X148943014Y-101175783D01*
X148944935Y-101176923D01*
X148959903Y-101186542D01*
X148971663Y-101194100D01*
X148971665Y-101194100D01*
X148975801Y-101195315D01*
X148976156Y-101195462D01*
X148976258Y-101195488D01*
X148976636Y-101195529D01*
X148980852Y-101196446D01*
X148980853Y-101196445D01*
X148980854Y-101196446D01*
X148987430Y-101195975D01*
X149012547Y-101194180D01*
X149014777Y-101194100D01*
X171803648Y-101194100D01*
X171847842Y-101212406D01*
X171866148Y-101256600D01*
X171866143Y-101257401D01*
X171744020Y-110782921D01*
X171725149Y-110826877D01*
X171681366Y-110844620D01*
X166964419Y-110832587D01*
X166942703Y-110828634D01*
X166939564Y-110827461D01*
X166939560Y-110827460D01*
X166923112Y-110831028D01*
X166916408Y-110831738D01*
X166916421Y-110831828D01*
X166911995Y-110832453D01*
X166899696Y-110836029D01*
X166897596Y-110836562D01*
X166866388Y-110843331D01*
X166862949Y-110845206D01*
X166862543Y-110845373D01*
X166862080Y-110845647D01*
X166861742Y-110845919D01*
X166858444Y-110848026D01*
X166837471Y-110872106D01*
X166835989Y-110873692D01*
X165865636Y-111842822D01*
X165821470Y-111861100D01*
X165216801Y-111861100D01*
X165172607Y-111842794D01*
X164744496Y-111414683D01*
X164731837Y-111396450D01*
X164730526Y-111393580D01*
X164716214Y-111384382D01*
X164710907Y-111380105D01*
X164710869Y-111380157D01*
X164707292Y-111377479D01*
X164696169Y-111371406D01*
X164694248Y-111370266D01*
X164667538Y-111353100D01*
X164663392Y-111351883D01*
X164663029Y-111351732D01*
X164662950Y-111351712D01*
X164662563Y-111351671D01*
X164658346Y-111350753D01*
X164626653Y-111353020D01*
X164624423Y-111353100D01*
X162886380Y-111353100D01*
X162864541Y-111349160D01*
X162861581Y-111348056D01*
X162861578Y-111348055D01*
X162844956Y-111351672D01*
X162838182Y-111352400D01*
X162838192Y-111352464D01*
X162833764Y-111353100D01*
X162821607Y-111356669D01*
X162819449Y-111357220D01*
X162788415Y-111363971D01*
X162784615Y-111366046D01*
X162784257Y-111366194D01*
X162784197Y-111366229D01*
X162783893Y-111366475D01*
X162780258Y-111368810D01*
X162759454Y-111392819D01*
X162757935Y-111394451D01*
X162309593Y-111842794D01*
X162265399Y-111861100D01*
X148916380Y-111861100D01*
X148894541Y-111857160D01*
X148891581Y-111856056D01*
X148891578Y-111856055D01*
X148874956Y-111859672D01*
X148868180Y-111860400D01*
X148868190Y-111860464D01*
X148863764Y-111861100D01*
X148851612Y-111864667D01*
X148849453Y-111865218D01*
X148818416Y-111871971D01*
X148814614Y-111874047D01*
X148814256Y-111874195D01*
X148814199Y-111874228D01*
X148813903Y-111874468D01*
X148810259Y-111876810D01*
X148789448Y-111900826D01*
X148787929Y-111902458D01*
X147800181Y-112890204D01*
X147781957Y-112902859D01*
X147779080Y-112904172D01*
X147779079Y-112904174D01*
X147769881Y-112918486D01*
X147765607Y-112923789D01*
X147765659Y-112923828D01*
X147762978Y-112927409D01*
X147756907Y-112938528D01*
X147755769Y-112940446D01*
X147738599Y-112967163D01*
X147737382Y-112971309D01*
X147737233Y-112971668D01*
X147737214Y-112971744D01*
X147737172Y-112972135D01*
X147736253Y-112976355D01*
X147738520Y-113008046D01*
X147738600Y-113010276D01*
X147738600Y-117624899D01*
X147720294Y-117669093D01*
X146561593Y-118827794D01*
X146517399Y-118846100D01*
X126354800Y-118846100D01*
X126310606Y-118827794D01*
X125151906Y-117669093D01*
X125133600Y-117624899D01*
X125133600Y-117398802D01*
X126347044Y-117398802D01*
X126366031Y-117615831D01*
X126366034Y-117615847D01*
X126422416Y-117826265D01*
X126422422Y-117826281D01*
X126514490Y-118023724D01*
X126514492Y-118023726D01*
X126639455Y-118202193D01*
X126793506Y-118356244D01*
X126833129Y-118383988D01*
X126971972Y-118481207D01*
X126971973Y-118481207D01*
X126971975Y-118481209D01*
X127040963Y-118513378D01*
X127169424Y-118573280D01*
X127169431Y-118573281D01*
X127169434Y-118573283D01*
X127379852Y-118629665D01*
X127379858Y-118629666D01*
X127379865Y-118629668D01*
X127493972Y-118639651D01*
X127596898Y-118648656D01*
X127596900Y-118648656D01*
X127596902Y-118648656D01*
X127669245Y-118642326D01*
X127813935Y-118629668D01*
X127813944Y-118629665D01*
X127813947Y-118629665D01*
X128024365Y-118573283D01*
X128024365Y-118573282D01*
X128024376Y-118573280D01*
X128221828Y-118481207D01*
X128400292Y-118356245D01*
X128554345Y-118202192D01*
X128679307Y-118023728D01*
X128771380Y-117826276D01*
X128772043Y-117823803D01*
X128806530Y-117695097D01*
X128835650Y-117657146D01*
X128883076Y-117650903D01*
X128921027Y-117680023D01*
X128927270Y-117695097D01*
X128962416Y-117826265D01*
X128962422Y-117826281D01*
X129054490Y-118023724D01*
X129054492Y-118023726D01*
X129179455Y-118202193D01*
X129333506Y-118356244D01*
X129373129Y-118383988D01*
X129511972Y-118481207D01*
X129511973Y-118481207D01*
X129511975Y-118481209D01*
X129580963Y-118513378D01*
X129709424Y-118573280D01*
X129709431Y-118573281D01*
X129709434Y-118573283D01*
X129919852Y-118629665D01*
X129919858Y-118629666D01*
X129919865Y-118629668D01*
X130033972Y-118639651D01*
X130136898Y-118648656D01*
X130136900Y-118648656D01*
X130136902Y-118648656D01*
X130209245Y-118642326D01*
X130353935Y-118629668D01*
X130353944Y-118629665D01*
X130353947Y-118629665D01*
X130564365Y-118573283D01*
X130564365Y-118573282D01*
X130564376Y-118573280D01*
X130761828Y-118481207D01*
X130940292Y-118356245D01*
X131094345Y-118202192D01*
X131219307Y-118023728D01*
X131311380Y-117826276D01*
X131312043Y-117823803D01*
X131346530Y-117695097D01*
X131375650Y-117657146D01*
X131423076Y-117650903D01*
X131461027Y-117680023D01*
X131467270Y-117695097D01*
X131502416Y-117826265D01*
X131502422Y-117826281D01*
X131594490Y-118023724D01*
X131594492Y-118023726D01*
X131719455Y-118202193D01*
X131873506Y-118356244D01*
X131913129Y-118383988D01*
X132051972Y-118481207D01*
X132051973Y-118481207D01*
X132051975Y-118481209D01*
X132120963Y-118513378D01*
X132249424Y-118573280D01*
X132249431Y-118573281D01*
X132249434Y-118573283D01*
X132459852Y-118629665D01*
X132459858Y-118629666D01*
X132459865Y-118629668D01*
X132573972Y-118639651D01*
X132676898Y-118648656D01*
X132676900Y-118648656D01*
X132676902Y-118648656D01*
X132749245Y-118642326D01*
X132893935Y-118629668D01*
X132893944Y-118629665D01*
X132893947Y-118629665D01*
X133104365Y-118573283D01*
X133104365Y-118573282D01*
X133104376Y-118573280D01*
X133301828Y-118481207D01*
X133480292Y-118356245D01*
X133634345Y-118202192D01*
X133759307Y-118023728D01*
X133851380Y-117826276D01*
X133851384Y-117826260D01*
X133851867Y-117824935D01*
X133852148Y-117824627D01*
X133852533Y-117823803D01*
X133852792Y-117823924D01*
X133884180Y-117789664D01*
X133931970Y-117787572D01*
X133967241Y-117819885D01*
X133973100Y-117846305D01*
X133973100Y-118383988D01*
X133976049Y-118409407D01*
X133976049Y-118409408D01*
X134021957Y-118513378D01*
X134102321Y-118593742D01*
X134206294Y-118639651D01*
X134231711Y-118642599D01*
X135064900Y-118642599D01*
X135064900Y-117887851D01*
X135072308Y-117891235D01*
X135180566Y-117906800D01*
X135253234Y-117906800D01*
X135361492Y-117891235D01*
X135368900Y-117887851D01*
X135368900Y-118642599D01*
X136202088Y-118642599D01*
X136227507Y-118639650D01*
X136227508Y-118639650D01*
X136331478Y-118593742D01*
X136411842Y-118513378D01*
X136457751Y-118409405D01*
X136460699Y-118383988D01*
X136460699Y-117846306D01*
X136479005Y-117802112D01*
X136523199Y-117783806D01*
X136567393Y-117802112D01*
X136581227Y-117823821D01*
X136581267Y-117823803D01*
X136581407Y-117824104D01*
X136581926Y-117824918D01*
X136582417Y-117826265D01*
X136582420Y-117826276D01*
X136582422Y-117826280D01*
X136674490Y-118023724D01*
X136674492Y-118023726D01*
X136799455Y-118202193D01*
X136953506Y-118356244D01*
X136993129Y-118383988D01*
X137131972Y-118481207D01*
X137131973Y-118481207D01*
X137131975Y-118481209D01*
X137200963Y-118513378D01*
X137329424Y-118573280D01*
X137329431Y-118573281D01*
X137329434Y-118573283D01*
X137539852Y-118629665D01*
X137539858Y-118629666D01*
X137539865Y-118629668D01*
X137653972Y-118639651D01*
X137756898Y-118648656D01*
X137756900Y-118648656D01*
X137756902Y-118648656D01*
X137829245Y-118642326D01*
X137973935Y-118629668D01*
X137973944Y-118629665D01*
X137973947Y-118629665D01*
X138184365Y-118573283D01*
X138184365Y-118573282D01*
X138184376Y-118573280D01*
X138381828Y-118481207D01*
X138560292Y-118356245D01*
X138714345Y-118202192D01*
X138839307Y-118023728D01*
X138931380Y-117826276D01*
X138932043Y-117823803D01*
X138966530Y-117695097D01*
X138995650Y-117657146D01*
X139043076Y-117650903D01*
X139081027Y-117680023D01*
X139087270Y-117695097D01*
X139122416Y-117826265D01*
X139122422Y-117826281D01*
X139214490Y-118023724D01*
X139214492Y-118023726D01*
X139339455Y-118202193D01*
X139493506Y-118356244D01*
X139533129Y-118383988D01*
X139671972Y-118481207D01*
X139671973Y-118481207D01*
X139671975Y-118481209D01*
X139740963Y-118513378D01*
X139869424Y-118573280D01*
X139869431Y-118573281D01*
X139869434Y-118573283D01*
X140079852Y-118629665D01*
X140079858Y-118629666D01*
X140079865Y-118629668D01*
X140193972Y-118639651D01*
X140296898Y-118648656D01*
X140296900Y-118648656D01*
X140296902Y-118648656D01*
X140369245Y-118642326D01*
X140513935Y-118629668D01*
X140513944Y-118629665D01*
X140513947Y-118629665D01*
X140724365Y-118573283D01*
X140724365Y-118573282D01*
X140724376Y-118573280D01*
X140921828Y-118481207D01*
X141100292Y-118356245D01*
X141254345Y-118202192D01*
X141379307Y-118023728D01*
X141471380Y-117826276D01*
X141472043Y-117823803D01*
X141506530Y-117695097D01*
X141535650Y-117657146D01*
X141583076Y-117650903D01*
X141621027Y-117680023D01*
X141627270Y-117695097D01*
X141662416Y-117826265D01*
X141662422Y-117826281D01*
X141754490Y-118023724D01*
X141754492Y-118023726D01*
X141879455Y-118202193D01*
X142033506Y-118356244D01*
X142073129Y-118383988D01*
X142211972Y-118481207D01*
X142211973Y-118481207D01*
X142211975Y-118481209D01*
X142280963Y-118513378D01*
X142409424Y-118573280D01*
X142409431Y-118573281D01*
X142409434Y-118573283D01*
X142619852Y-118629665D01*
X142619858Y-118629666D01*
X142619865Y-118629668D01*
X142733972Y-118639651D01*
X142836898Y-118648656D01*
X142836900Y-118648656D01*
X142836902Y-118648656D01*
X142909245Y-118642326D01*
X143053935Y-118629668D01*
X143053944Y-118629665D01*
X143053947Y-118629665D01*
X143264365Y-118573283D01*
X143264365Y-118573282D01*
X143264376Y-118573280D01*
X143461828Y-118481207D01*
X143640292Y-118356245D01*
X143794345Y-118202192D01*
X143919307Y-118023728D01*
X144011380Y-117826276D01*
X144012043Y-117823803D01*
X144046530Y-117695097D01*
X144075650Y-117657146D01*
X144123076Y-117650903D01*
X144161027Y-117680023D01*
X144167270Y-117695097D01*
X144202416Y-117826265D01*
X144202422Y-117826281D01*
X144294490Y-118023724D01*
X144294492Y-118023726D01*
X144419455Y-118202193D01*
X144573506Y-118356244D01*
X144613129Y-118383988D01*
X144751972Y-118481207D01*
X144751973Y-118481207D01*
X144751975Y-118481209D01*
X144820963Y-118513378D01*
X144949424Y-118573280D01*
X144949431Y-118573281D01*
X144949434Y-118573283D01*
X145159852Y-118629665D01*
X145159858Y-118629666D01*
X145159865Y-118629668D01*
X145273972Y-118639651D01*
X145376898Y-118648656D01*
X145376900Y-118648656D01*
X145376902Y-118648656D01*
X145449245Y-118642326D01*
X145593935Y-118629668D01*
X145593944Y-118629665D01*
X145593947Y-118629665D01*
X145804365Y-118573283D01*
X145804365Y-118573282D01*
X145804376Y-118573280D01*
X146001828Y-118481207D01*
X146180292Y-118356245D01*
X146334345Y-118202192D01*
X146459307Y-118023728D01*
X146551380Y-117826276D01*
X146552043Y-117823803D01*
X146607765Y-117615847D01*
X146607765Y-117615844D01*
X146607768Y-117615835D01*
X146626756Y-117398800D01*
X146607768Y-117181765D01*
X146598371Y-117146696D01*
X146551383Y-116971334D01*
X146551381Y-116971331D01*
X146551380Y-116971324D01*
X146481672Y-116821834D01*
X146459309Y-116773875D01*
X146459307Y-116773873D01*
X146459307Y-116773872D01*
X146334345Y-116595408D01*
X146334344Y-116595406D01*
X146180293Y-116441355D01*
X146066753Y-116361854D01*
X146001828Y-116316393D01*
X146001826Y-116316392D01*
X146001828Y-116316392D01*
X145818286Y-116230806D01*
X145785969Y-116195538D01*
X145782200Y-116174162D01*
X145782200Y-114522707D01*
X145782200Y-114522706D01*
X145773735Y-114496659D01*
X145771451Y-114487141D01*
X145767168Y-114460094D01*
X145754735Y-114435694D01*
X145750988Y-114426650D01*
X145742526Y-114400604D01*
X145726428Y-114378448D01*
X145721315Y-114370104D01*
X145708882Y-114345701D01*
X145708880Y-114345699D01*
X145708879Y-114345697D01*
X145618099Y-114254918D01*
X144930992Y-113567811D01*
X144912686Y-113523617D01*
X144913221Y-113515458D01*
X144917088Y-113486093D01*
X144920523Y-113460000D01*
X144902784Y-113325262D01*
X144899721Y-113301991D01*
X144899720Y-113301989D01*
X144899720Y-113301985D01*
X144848369Y-113178015D01*
X144838729Y-113154741D01*
X144838727Y-113154738D01*
X144741705Y-113028295D01*
X144741703Y-113028294D01*
X144741703Y-113028293D01*
X144615262Y-112931272D01*
X144615259Y-112931270D01*
X144468018Y-112870281D01*
X144468008Y-112870278D01*
X144310003Y-112849477D01*
X144309998Y-112849477D01*
X144254540Y-112856778D01*
X144208334Y-112844397D01*
X144202188Y-112839007D01*
X143016006Y-111652825D01*
X146298800Y-111652825D01*
X146314021Y-111787927D01*
X146314021Y-111787929D01*
X146314022Y-111787930D01*
X146343429Y-111871972D01*
X146373960Y-111959223D01*
X146373961Y-111959224D01*
X146470505Y-112112872D01*
X146598827Y-112241194D01*
X146752475Y-112337738D01*
X146752476Y-112337739D01*
X146752478Y-112337739D01*
X146752482Y-112337742D01*
X146923770Y-112397678D01*
X147058871Y-112412900D01*
X147149328Y-112412899D01*
X147284430Y-112397678D01*
X147455718Y-112337742D01*
X147609374Y-112241193D01*
X147737693Y-112112874D01*
X147834242Y-111959218D01*
X147894178Y-111787930D01*
X147909400Y-111652829D01*
X147909399Y-111562372D01*
X147894178Y-111427270D01*
X147834242Y-111255982D01*
X147834239Y-111255978D01*
X147834239Y-111255976D01*
X147834238Y-111255975D01*
X147737694Y-111102327D01*
X147609372Y-110974005D01*
X147455724Y-110877461D01*
X147455723Y-110877460D01*
X147455718Y-110877458D01*
X147284430Y-110817522D01*
X147284429Y-110817521D01*
X147284427Y-110817521D01*
X147204047Y-110808465D01*
X147149329Y-110802300D01*
X147149325Y-110802300D01*
X147058874Y-110802300D01*
X146923772Y-110817521D01*
X146752476Y-110877460D01*
X146752475Y-110877461D01*
X146598827Y-110974005D01*
X146470505Y-111102327D01*
X146373961Y-111255975D01*
X146373960Y-111255976D01*
X146314021Y-111427272D01*
X146308052Y-111480254D01*
X146298933Y-111561197D01*
X146298800Y-111562374D01*
X146298800Y-111652825D01*
X143016006Y-111652825D01*
X142533606Y-111170425D01*
X142515300Y-111126231D01*
X142515300Y-107600043D01*
X142533606Y-107555849D01*
X142552552Y-107542869D01*
X142634757Y-107506572D01*
X142682578Y-107505468D01*
X142685208Y-107506557D01*
X142788891Y-107552338D01*
X142814421Y-107555300D01*
X143605578Y-107555299D01*
X143631109Y-107552338D01*
X143735525Y-107506234D01*
X143816234Y-107425525D01*
X143862338Y-107321109D01*
X143865300Y-107295579D01*
X143865299Y-106566497D01*
X143883605Y-106522305D01*
X143927799Y-106503999D01*
X144258000Y-106503999D01*
X144258000Y-105602000D01*
X144562000Y-105602000D01*
X144562000Y-106503999D01*
X145055388Y-106503999D01*
X145080807Y-106501050D01*
X145080808Y-106501050D01*
X145184778Y-106455142D01*
X145265142Y-106374778D01*
X145311051Y-106270805D01*
X145314000Y-106245388D01*
X145314000Y-105602000D01*
X144562000Y-105602000D01*
X144258000Y-105602000D01*
X144258000Y-104396000D01*
X144562000Y-104396000D01*
X144562000Y-105298000D01*
X145313999Y-105298000D01*
X145313999Y-104654611D01*
X145311050Y-104629192D01*
X145311050Y-104629191D01*
X145265142Y-104525221D01*
X145184778Y-104444857D01*
X145080805Y-104398948D01*
X145055389Y-104396000D01*
X144562000Y-104396000D01*
X144258000Y-104396000D01*
X143764611Y-104396000D01*
X143739192Y-104398949D01*
X143739191Y-104398949D01*
X143635221Y-104444857D01*
X143554857Y-104525221D01*
X143508948Y-104629194D01*
X143506000Y-104654611D01*
X143506000Y-105282200D01*
X143487694Y-105326394D01*
X143443500Y-105344700D01*
X142814421Y-105344700D01*
X142788890Y-105347662D01*
X142788889Y-105347662D01*
X142685245Y-105393426D01*
X142637422Y-105394530D01*
X142634755Y-105393426D01*
X142633890Y-105393044D01*
X142612554Y-105383623D01*
X142579521Y-105349027D01*
X142575300Y-105326449D01*
X142575300Y-105144173D01*
X142593606Y-105099979D01*
X142599747Y-105094593D01*
X142681705Y-105031705D01*
X142778728Y-104905262D01*
X142839720Y-104758015D01*
X142854260Y-104647575D01*
X142860523Y-104600001D01*
X142860523Y-104599998D01*
X142839721Y-104441991D01*
X142839720Y-104441989D01*
X142839720Y-104441985D01*
X142818079Y-104389739D01*
X142818078Y-104341903D01*
X142851903Y-104308079D01*
X142899736Y-104308078D01*
X142951985Y-104329720D01*
X142951989Y-104329720D01*
X142951991Y-104329721D01*
X143109998Y-104350523D01*
X143110000Y-104350523D01*
X143110002Y-104350523D01*
X143268008Y-104329721D01*
X143268008Y-104329720D01*
X143268015Y-104329720D01*
X143415262Y-104268728D01*
X143541705Y-104171705D01*
X143638728Y-104045262D01*
X143699720Y-103898015D01*
X143720523Y-103740000D01*
X143699720Y-103581985D01*
X143638728Y-103434739D01*
X143541705Y-103308295D01*
X143541703Y-103308294D01*
X143541703Y-103308293D01*
X143415262Y-103211272D01*
X143415259Y-103211270D01*
X143268018Y-103150281D01*
X143268008Y-103150278D01*
X143110002Y-103129477D01*
X143109998Y-103129477D01*
X142951991Y-103150278D01*
X142951981Y-103150281D01*
X142804741Y-103211270D01*
X142804738Y-103211272D01*
X142678295Y-103308295D01*
X142676795Y-103310250D01*
X142675718Y-103310871D01*
X142675398Y-103311192D01*
X142675312Y-103311106D01*
X142635367Y-103334166D01*
X142627212Y-103334700D01*
X142065806Y-103334700D01*
X142039762Y-103343160D01*
X142030233Y-103345448D01*
X142003194Y-103349731D01*
X142003193Y-103349731D01*
X141978790Y-103362164D01*
X141969735Y-103365914D01*
X141943710Y-103374370D01*
X141943700Y-103374376D01*
X141921556Y-103390463D01*
X141913199Y-103395585D01*
X141888801Y-103408017D01*
X140678018Y-104618801D01*
X140678016Y-104618803D01*
X140665587Y-104643194D01*
X140660466Y-104651552D01*
X140644372Y-104673704D01*
X140635910Y-104699745D01*
X140632160Y-104708799D01*
X140619731Y-104733194D01*
X140615447Y-104760239D01*
X140613159Y-104769770D01*
X140604700Y-104795807D01*
X140604700Y-105299956D01*
X140586394Y-105344150D01*
X140567445Y-105357131D01*
X140483636Y-105394136D01*
X140435813Y-105395240D01*
X140433146Y-105394136D01*
X140330805Y-105348949D01*
X140305389Y-105346000D01*
X140062000Y-105346000D01*
X140062000Y-107553999D01*
X140305388Y-107553999D01*
X140330807Y-107551050D01*
X140330814Y-107551048D01*
X140433146Y-107505864D01*
X140480968Y-107504758D01*
X140483636Y-107505863D01*
X140484474Y-107506233D01*
X140484475Y-107506234D01*
X140567446Y-107542869D01*
X140600479Y-107577465D01*
X140604700Y-107600043D01*
X140604700Y-112494195D01*
X140613159Y-112520227D01*
X140615448Y-112529763D01*
X140619730Y-112556801D01*
X140619731Y-112556804D01*
X140632159Y-112581196D01*
X140635911Y-112590254D01*
X140644373Y-112616297D01*
X140660463Y-112638443D01*
X140665586Y-112646803D01*
X140678016Y-112671197D01*
X140981171Y-112974352D01*
X140998425Y-113016007D01*
X140998942Y-113015939D01*
X140999195Y-113017867D01*
X140999477Y-113018546D01*
X140999477Y-113020002D01*
X141020278Y-113178008D01*
X141020281Y-113178018D01*
X141081270Y-113325259D01*
X141081272Y-113325262D01*
X141178294Y-113451705D01*
X141272013Y-113523617D01*
X141304738Y-113548728D01*
X141451985Y-113609720D01*
X141451989Y-113609720D01*
X141451991Y-113609721D01*
X141609998Y-113630523D01*
X141611454Y-113630523D01*
X141612132Y-113630803D01*
X141614062Y-113631058D01*
X141613993Y-113631575D01*
X141655648Y-113648829D01*
X142413294Y-114406475D01*
X142431600Y-114450669D01*
X142431600Y-116174162D01*
X142413294Y-116218356D01*
X142395514Y-116230806D01*
X142211972Y-116316392D01*
X142033506Y-116441355D01*
X141879455Y-116595406D01*
X141754492Y-116773873D01*
X141754490Y-116773875D01*
X141662422Y-116971318D01*
X141662416Y-116971334D01*
X141627270Y-117102502D01*
X141598150Y-117140453D01*
X141550724Y-117146696D01*
X141512773Y-117117576D01*
X141506530Y-117102502D01*
X141471383Y-116971334D01*
X141471381Y-116971331D01*
X141471380Y-116971324D01*
X141401672Y-116821834D01*
X141379309Y-116773875D01*
X141379307Y-116773873D01*
X141379307Y-116773872D01*
X141254345Y-116595408D01*
X141254344Y-116595406D01*
X141100293Y-116441355D01*
X140986753Y-116361854D01*
X140921828Y-116316393D01*
X140921826Y-116316392D01*
X140921824Y-116316390D01*
X140724381Y-116224322D01*
X140724365Y-116224316D01*
X140513947Y-116167934D01*
X140513931Y-116167931D01*
X140296902Y-116148944D01*
X140296898Y-116148944D01*
X140079868Y-116167931D01*
X140079852Y-116167934D01*
X139869423Y-116224319D01*
X139790542Y-116261103D01*
X139742752Y-116263190D01*
X139719934Y-116248653D01*
X139233606Y-115762325D01*
X139215300Y-115718131D01*
X139215300Y-113215808D01*
X139233606Y-113171614D01*
X139239753Y-113166223D01*
X139271705Y-113141705D01*
X139316269Y-113083628D01*
X139368728Y-113015262D01*
X139429720Y-112868015D01*
X139450523Y-112710000D01*
X139448421Y-112694036D01*
X139429721Y-112551991D01*
X139429720Y-112551989D01*
X139429720Y-112551985D01*
X139372972Y-112414984D01*
X139368729Y-112404741D01*
X139368727Y-112404738D01*
X139338855Y-112365807D01*
X139271705Y-112278295D01*
X139250624Y-112262119D01*
X139239752Y-112253776D01*
X139215835Y-112212349D01*
X139215300Y-112204192D01*
X139215300Y-107600043D01*
X139233606Y-107555849D01*
X139252552Y-107542869D01*
X139335525Y-107506234D01*
X139335526Y-107506232D01*
X139336363Y-107505863D01*
X139384186Y-107504758D01*
X139386853Y-107505863D01*
X139489194Y-107551051D01*
X139514611Y-107553999D01*
X139757999Y-107553999D01*
X139758000Y-107553998D01*
X139758000Y-105346000D01*
X139514610Y-105346000D01*
X139490665Y-105348778D01*
X139444656Y-105335685D01*
X139421381Y-105293894D01*
X139421500Y-105278536D01*
X139430523Y-105210001D01*
X139430523Y-105209998D01*
X139409721Y-105051991D01*
X139409720Y-105051989D01*
X139409720Y-105051985D01*
X139348944Y-104905260D01*
X139348729Y-104904741D01*
X139348727Y-104904738D01*
X139315955Y-104862028D01*
X139251705Y-104778295D01*
X139251703Y-104778294D01*
X139251703Y-104778293D01*
X139125262Y-104681272D01*
X139125259Y-104681270D01*
X138978018Y-104620281D01*
X138978008Y-104620278D01*
X138820002Y-104599477D01*
X138819998Y-104599477D01*
X138661991Y-104620278D01*
X138661981Y-104620281D01*
X138514741Y-104681270D01*
X138514738Y-104681272D01*
X138388295Y-104778295D01*
X138291272Y-104904738D01*
X138291270Y-104904741D01*
X138230281Y-105051981D01*
X138230278Y-105051991D01*
X138209477Y-105209998D01*
X138209477Y-105210003D01*
X138219040Y-105282649D01*
X138206659Y-105328854D01*
X138165232Y-105352771D01*
X138135737Y-105348541D01*
X138135641Y-105348895D01*
X138132786Y-105348118D01*
X138131832Y-105347981D01*
X138131109Y-105347662D01*
X138131107Y-105347661D01*
X138108928Y-105345088D01*
X138105579Y-105344700D01*
X138105578Y-105344700D01*
X137314421Y-105344700D01*
X137288890Y-105347662D01*
X137288889Y-105347662D01*
X137185244Y-105393426D01*
X137137421Y-105394530D01*
X137134769Y-105393432D01*
X137042680Y-105352771D01*
X137031107Y-105347661D01*
X137008928Y-105345088D01*
X137005579Y-105344700D01*
X137005578Y-105344700D01*
X136214421Y-105344700D01*
X136188890Y-105347662D01*
X136188889Y-105347662D01*
X136085244Y-105393426D01*
X136037421Y-105394530D01*
X136034769Y-105393432D01*
X135942680Y-105352771D01*
X135931107Y-105347661D01*
X135908928Y-105345088D01*
X135905579Y-105344700D01*
X135905578Y-105344700D01*
X135114421Y-105344700D01*
X135088890Y-105347662D01*
X135088889Y-105347662D01*
X134985244Y-105393426D01*
X134937421Y-105394530D01*
X134934769Y-105393432D01*
X134842680Y-105352771D01*
X134831107Y-105347661D01*
X134808928Y-105345088D01*
X134805579Y-105344700D01*
X134805578Y-105344700D01*
X134014421Y-105344700D01*
X133988890Y-105347662D01*
X133988889Y-105347662D01*
X133896681Y-105388376D01*
X133885248Y-105393425D01*
X133884473Y-105393767D01*
X133803767Y-105474473D01*
X133757661Y-105578892D01*
X133754700Y-105604421D01*
X133754700Y-105982200D01*
X133736394Y-106026394D01*
X133692200Y-106044700D01*
X132655807Y-106044700D01*
X132629770Y-106053159D01*
X132620239Y-106055447D01*
X132593194Y-106059731D01*
X132568799Y-106072160D01*
X132559745Y-106075910D01*
X132533704Y-106084372D01*
X132511552Y-106100466D01*
X132503194Y-106105587D01*
X132478803Y-106118016D01*
X132455964Y-106140855D01*
X130976577Y-107620240D01*
X130960760Y-107631733D01*
X130928799Y-107648019D01*
X130838019Y-107738799D01*
X130821733Y-107770760D01*
X130810240Y-107786577D01*
X129624791Y-108972026D01*
X129580597Y-108990332D01*
X129572447Y-108989798D01*
X129570006Y-108989477D01*
X129569997Y-108989477D01*
X129411991Y-109010278D01*
X129411981Y-109010281D01*
X129264741Y-109071270D01*
X129264738Y-109071272D01*
X129138295Y-109168295D01*
X129041272Y-109294738D01*
X129041270Y-109294741D01*
X128980281Y-109441981D01*
X128980278Y-109441991D01*
X128959477Y-109599997D01*
X128959477Y-109600006D01*
X128959798Y-109602447D01*
X128959477Y-109603644D01*
X128959477Y-109604096D01*
X128959356Y-109604096D01*
X128947412Y-109648651D01*
X128942026Y-109654791D01*
X127355701Y-111241118D01*
X127264916Y-111331903D01*
X127252487Y-111356294D01*
X127247366Y-111364652D01*
X127231272Y-111386804D01*
X127222810Y-111412845D01*
X127219060Y-111421899D01*
X127206631Y-111446294D01*
X127202347Y-111473339D01*
X127200059Y-111482870D01*
X127191600Y-111508907D01*
X127191600Y-116174162D01*
X127173294Y-116218356D01*
X127155514Y-116230806D01*
X126971972Y-116316392D01*
X126793506Y-116441355D01*
X126639455Y-116595406D01*
X126514492Y-116773873D01*
X126514490Y-116773875D01*
X126422422Y-116971318D01*
X126422416Y-116971334D01*
X126366034Y-117181752D01*
X126366031Y-117181768D01*
X126347044Y-117398797D01*
X126347044Y-117398802D01*
X125133600Y-117398802D01*
X125133600Y-105602000D01*
X128706001Y-105602000D01*
X128706001Y-106245388D01*
X128708949Y-106270807D01*
X128708949Y-106270808D01*
X128754857Y-106374778D01*
X128835221Y-106455142D01*
X128939194Y-106501051D01*
X128964611Y-106503999D01*
X129658000Y-106503999D01*
X129658000Y-105602000D01*
X129962000Y-105602000D01*
X129962000Y-106503999D01*
X130655388Y-106503999D01*
X130680807Y-106501050D01*
X130680808Y-106501050D01*
X130784778Y-106455142D01*
X130865142Y-106374778D01*
X130911051Y-106270805D01*
X130914000Y-106245388D01*
X130914000Y-105602000D01*
X129962000Y-105602000D01*
X129658000Y-105602000D01*
X128706001Y-105602000D01*
X125133600Y-105602000D01*
X125133600Y-105298000D01*
X128706000Y-105298000D01*
X129658000Y-105298000D01*
X129658000Y-104396000D01*
X129962000Y-104396000D01*
X129962000Y-105298000D01*
X130913999Y-105298000D01*
X130913999Y-104654611D01*
X130911050Y-104629192D01*
X130911050Y-104629191D01*
X130865142Y-104525221D01*
X130784778Y-104444857D01*
X130680805Y-104398948D01*
X130655389Y-104396000D01*
X129962000Y-104396000D01*
X129658000Y-104396000D01*
X128964611Y-104396000D01*
X128939192Y-104398949D01*
X128939191Y-104398949D01*
X128835221Y-104444857D01*
X128754857Y-104525221D01*
X128708948Y-104629194D01*
X128706000Y-104654611D01*
X128706000Y-105298000D01*
X125133600Y-105298000D01*
X125133600Y-96002000D01*
X128006001Y-96002000D01*
X128006001Y-96995388D01*
X128008949Y-97020807D01*
X128008949Y-97020808D01*
X128054857Y-97124778D01*
X128135221Y-97205142D01*
X128239194Y-97251051D01*
X128264611Y-97253999D01*
X128758000Y-97253999D01*
X128758000Y-96002000D01*
X129062000Y-96002000D01*
X129062000Y-97253999D01*
X129555388Y-97253999D01*
X129580807Y-97251050D01*
X129580808Y-97251050D01*
X129684778Y-97205142D01*
X129765142Y-97124778D01*
X129811051Y-97020805D01*
X129814000Y-96995388D01*
X129814000Y-96002000D01*
X129062000Y-96002000D01*
X128758000Y-96002000D01*
X128006001Y-96002000D01*
X125133600Y-96002000D01*
X125133600Y-95698000D01*
X128006000Y-95698000D01*
X128758000Y-95698000D01*
X128758000Y-94446000D01*
X129062000Y-94446000D01*
X129062000Y-95698000D01*
X129813999Y-95698000D01*
X129813999Y-95450000D01*
X132799604Y-95450000D01*
X132819921Y-95630327D01*
X132879860Y-95801623D01*
X132879861Y-95801624D01*
X132976405Y-95955272D01*
X133104727Y-96083594D01*
X133258375Y-96180138D01*
X133258376Y-96180139D01*
X133258378Y-96180139D01*
X133258382Y-96180142D01*
X133429670Y-96240078D01*
X133610000Y-96260396D01*
X133790330Y-96240078D01*
X133961618Y-96180142D01*
X134115274Y-96083593D01*
X134243593Y-95955274D01*
X134340142Y-95801618D01*
X134400078Y-95630330D01*
X134420396Y-95450000D01*
X140799604Y-95450000D01*
X140819921Y-95630327D01*
X140879860Y-95801623D01*
X140879861Y-95801624D01*
X140976405Y-95955272D01*
X141104727Y-96083594D01*
X141258375Y-96180138D01*
X141258376Y-96180139D01*
X141258378Y-96180139D01*
X141258382Y-96180142D01*
X141429670Y-96240078D01*
X141610000Y-96260396D01*
X141790330Y-96240078D01*
X141961618Y-96180142D01*
X142115274Y-96083593D01*
X142196867Y-96002000D01*
X143506001Y-96002000D01*
X143506001Y-96995388D01*
X143508949Y-97020807D01*
X143508949Y-97020808D01*
X143554857Y-97124778D01*
X143635221Y-97205142D01*
X143739194Y-97251051D01*
X143764611Y-97253999D01*
X144258000Y-97253999D01*
X144258000Y-96002000D01*
X144562000Y-96002000D01*
X144562000Y-97253999D01*
X145055388Y-97253999D01*
X145080807Y-97251050D01*
X145080808Y-97251050D01*
X145184778Y-97205142D01*
X145265142Y-97124778D01*
X145311051Y-97020805D01*
X145314000Y-96995388D01*
X145314000Y-96002000D01*
X144562000Y-96002000D01*
X144258000Y-96002000D01*
X143506001Y-96002000D01*
X142196867Y-96002000D01*
X142243593Y-95955274D01*
X142340142Y-95801618D01*
X142376399Y-95698000D01*
X143506000Y-95698000D01*
X144258000Y-95698000D01*
X144258000Y-94446000D01*
X144562000Y-94446000D01*
X144562000Y-95698000D01*
X145313999Y-95698000D01*
X145313999Y-94704611D01*
X145311050Y-94679192D01*
X145311050Y-94679191D01*
X145265142Y-94575221D01*
X145184778Y-94494857D01*
X145080805Y-94448948D01*
X145055389Y-94446000D01*
X144562000Y-94446000D01*
X144258000Y-94446000D01*
X143764611Y-94446000D01*
X143739192Y-94448949D01*
X143739191Y-94448949D01*
X143635221Y-94494857D01*
X143554857Y-94575221D01*
X143508948Y-94679194D01*
X143506000Y-94704611D01*
X143506000Y-95698000D01*
X142376399Y-95698000D01*
X142400078Y-95630330D01*
X142420396Y-95450000D01*
X142400078Y-95269670D01*
X142340142Y-95098382D01*
X142340139Y-95098378D01*
X142340139Y-95098376D01*
X142340138Y-95098375D01*
X142243594Y-94944727D01*
X142115272Y-94816405D01*
X141961624Y-94719861D01*
X141961623Y-94719860D01*
X141961618Y-94719858D01*
X141790330Y-94659922D01*
X141790329Y-94659921D01*
X141790327Y-94659921D01*
X141610000Y-94639604D01*
X141429672Y-94659921D01*
X141258376Y-94719860D01*
X141258375Y-94719861D01*
X141104727Y-94816405D01*
X140976405Y-94944727D01*
X140879861Y-95098375D01*
X140879860Y-95098376D01*
X140819921Y-95269672D01*
X140799604Y-95449999D01*
X140799604Y-95450000D01*
X134420396Y-95450000D01*
X134400078Y-95269670D01*
X134340142Y-95098382D01*
X134340139Y-95098378D01*
X134340139Y-95098376D01*
X134340138Y-95098375D01*
X134243594Y-94944727D01*
X134115272Y-94816405D01*
X133961624Y-94719861D01*
X133961623Y-94719860D01*
X133961618Y-94719858D01*
X133790330Y-94659922D01*
X133790329Y-94659921D01*
X133790327Y-94659921D01*
X133610000Y-94639604D01*
X133429672Y-94659921D01*
X133258376Y-94719860D01*
X133258375Y-94719861D01*
X133104727Y-94816405D01*
X132976405Y-94944727D01*
X132879861Y-95098375D01*
X132879860Y-95098376D01*
X132819921Y-95269672D01*
X132799604Y-95449999D01*
X132799604Y-95450000D01*
X129813999Y-95450000D01*
X129813999Y-94704611D01*
X129811050Y-94679192D01*
X129811050Y-94679191D01*
X129765142Y-94575221D01*
X129684778Y-94494857D01*
X129580805Y-94448948D01*
X129555389Y-94446000D01*
X129062000Y-94446000D01*
X128758000Y-94446000D01*
X128264611Y-94446000D01*
X128239192Y-94448949D01*
X128239191Y-94448949D01*
X128135221Y-94494857D01*
X128054857Y-94575221D01*
X128008948Y-94679194D01*
X128006000Y-94704611D01*
X128006000Y-95698000D01*
X125133600Y-95698000D01*
X125133600Y-93618825D01*
X125470800Y-93618825D01*
X125486021Y-93753927D01*
X125545960Y-93925223D01*
X125545961Y-93925224D01*
X125642505Y-94078872D01*
X125770827Y-94207194D01*
X125924475Y-94303738D01*
X125924476Y-94303739D01*
X125924478Y-94303739D01*
X125924482Y-94303742D01*
X126095770Y-94363678D01*
X126230871Y-94378900D01*
X126321328Y-94378899D01*
X126456430Y-94363678D01*
X126627718Y-94303742D01*
X126781374Y-94207193D01*
X126909693Y-94078874D01*
X127006242Y-93925218D01*
X127066178Y-93753930D01*
X127081400Y-93618829D01*
X127081399Y-93528372D01*
X127066178Y-93393270D01*
X127006242Y-93221982D01*
X127006239Y-93221978D01*
X127006239Y-93221976D01*
X127006238Y-93221975D01*
X126909694Y-93068327D01*
X126781372Y-92940005D01*
X126627724Y-92843461D01*
X126627723Y-92843460D01*
X126627718Y-92843458D01*
X126456430Y-92783522D01*
X126456429Y-92783521D01*
X126456427Y-92783521D01*
X126376047Y-92774465D01*
X126321329Y-92768300D01*
X126321325Y-92768300D01*
X126230874Y-92768300D01*
X126095772Y-92783521D01*
X125924476Y-92843460D01*
X125924475Y-92843461D01*
X125770827Y-92940005D01*
X125642505Y-93068327D01*
X125545961Y-93221975D01*
X125545960Y-93221976D01*
X125486021Y-93393272D01*
X125470800Y-93528374D01*
X125470800Y-93618825D01*
X125133600Y-93618825D01*
X125133600Y-92382300D01*
X125151906Y-92338106D01*
X126310606Y-91179406D01*
X126354800Y-91161100D01*
X146517400Y-91161100D01*
X146561594Y-91179406D01*
G37*
%TD.AperFunction*%
%TD*%
M02*
