%TF.GenerationSoftware,KiCad,Pcbnew,7.0.9*%
%TF.CreationDate,2023-12-03T03:50:44-05:00*%
%TF.ProjectId,SparkFun_MicroSD_Sniffer_v10,53706172-6b46-4756-9e5f-4d6963726f53,rev?*%
%TF.SameCoordinates,Original*%
%TF.FileFunction,Drillmap*%
%TF.FilePolarity,Positive*%
%FSLAX45Y45*%
G04 Gerber Fmt 4.5, Leading zero omitted, Abs format (unit mm)*
G04 Created by KiCad (PCBNEW 7.0.9) date 2023-12-03 03:50:44*
%MOMM*%
%LPD*%
G01*
G04 APERTURE LIST*
%ADD10C,0.254000*%
%ADD11C,0.200000*%
G04 APERTURE END LIST*
D10*
X16463010Y-11148060D02*
X16285210Y-11148060D01*
X12500610Y-11770360D02*
X12500610Y-9230360D01*
X14786610Y-9230360D02*
X14786610Y-9992360D01*
X16693000Y-11096000D02*
X16590010Y-11198860D01*
X12627610Y-11897360D02*
X12500610Y-11770360D01*
X14659610Y-11897360D02*
X14786610Y-11770360D01*
X17199610Y-10106660D02*
X14900910Y-10106660D01*
X16513810Y-11198860D02*
X16463010Y-11148060D01*
X14659610Y-9103360D02*
X14786610Y-9230360D01*
X16234410Y-11198860D02*
X14888210Y-11198860D01*
X12627610Y-9103360D02*
X14659610Y-9103360D01*
X14786610Y-11770360D02*
X14786610Y-11300460D01*
X16285210Y-11148060D02*
X16234410Y-11198860D01*
X14786610Y-11300460D02*
X14888210Y-11198860D01*
X17186910Y-11097260D02*
X16693000Y-11096000D01*
X14786610Y-9992360D02*
X14900910Y-10106660D01*
X12627610Y-11897360D02*
X14659610Y-11897360D01*
X17199610Y-10106660D02*
X17186910Y-11097260D01*
X16590010Y-11198860D02*
X16513810Y-11198860D01*
X12500610Y-9230360D02*
X12627610Y-9103360D01*
D11*
X12748687Y-12221544D02*
X12748687Y-12021544D01*
X12748687Y-12021544D02*
X12796306Y-12021544D01*
X12796306Y-12021544D02*
X12824877Y-12031068D01*
X12824877Y-12031068D02*
X12843925Y-12050115D01*
X12843925Y-12050115D02*
X12853449Y-12069163D01*
X12853449Y-12069163D02*
X12862972Y-12107258D01*
X12862972Y-12107258D02*
X12862972Y-12135829D01*
X12862972Y-12135829D02*
X12853449Y-12173925D01*
X12853449Y-12173925D02*
X12843925Y-12192972D01*
X12843925Y-12192972D02*
X12824877Y-12212020D01*
X12824877Y-12212020D02*
X12796306Y-12221544D01*
X12796306Y-12221544D02*
X12748687Y-12221544D01*
X12948687Y-12221544D02*
X12948687Y-12088210D01*
X12948687Y-12126306D02*
X12958211Y-12107258D01*
X12958211Y-12107258D02*
X12967734Y-12097734D01*
X12967734Y-12097734D02*
X12986782Y-12088210D01*
X12986782Y-12088210D02*
X13005830Y-12088210D01*
X13072496Y-12221544D02*
X13072496Y-12088210D01*
X13072496Y-12021544D02*
X13062972Y-12031068D01*
X13062972Y-12031068D02*
X13072496Y-12040591D01*
X13072496Y-12040591D02*
X13082020Y-12031068D01*
X13082020Y-12031068D02*
X13072496Y-12021544D01*
X13072496Y-12021544D02*
X13072496Y-12040591D01*
X13196306Y-12221544D02*
X13177258Y-12212020D01*
X13177258Y-12212020D02*
X13167734Y-12192972D01*
X13167734Y-12192972D02*
X13167734Y-12021544D01*
X13301068Y-12221544D02*
X13282020Y-12212020D01*
X13282020Y-12212020D02*
X13272496Y-12192972D01*
X13272496Y-12192972D02*
X13272496Y-12021544D01*
X13529639Y-12221544D02*
X13529639Y-12021544D01*
X13529639Y-12021544D02*
X13596306Y-12164401D01*
X13596306Y-12164401D02*
X13662972Y-12021544D01*
X13662972Y-12021544D02*
X13662972Y-12221544D01*
X13843925Y-12221544D02*
X13843925Y-12116782D01*
X13843925Y-12116782D02*
X13834401Y-12097734D01*
X13834401Y-12097734D02*
X13815353Y-12088210D01*
X13815353Y-12088210D02*
X13777258Y-12088210D01*
X13777258Y-12088210D02*
X13758211Y-12097734D01*
X13843925Y-12212020D02*
X13824877Y-12221544D01*
X13824877Y-12221544D02*
X13777258Y-12221544D01*
X13777258Y-12221544D02*
X13758211Y-12212020D01*
X13758211Y-12212020D02*
X13748687Y-12192972D01*
X13748687Y-12192972D02*
X13748687Y-12173925D01*
X13748687Y-12173925D02*
X13758211Y-12154877D01*
X13758211Y-12154877D02*
X13777258Y-12145353D01*
X13777258Y-12145353D02*
X13824877Y-12145353D01*
X13824877Y-12145353D02*
X13843925Y-12135829D01*
X13939163Y-12088210D02*
X13939163Y-12288210D01*
X13939163Y-12097734D02*
X13958211Y-12088210D01*
X13958211Y-12088210D02*
X13996306Y-12088210D01*
X13996306Y-12088210D02*
X14015353Y-12097734D01*
X14015353Y-12097734D02*
X14024877Y-12107258D01*
X14024877Y-12107258D02*
X14034401Y-12126306D01*
X14034401Y-12126306D02*
X14034401Y-12183448D01*
X14034401Y-12183448D02*
X14024877Y-12202496D01*
X14024877Y-12202496D02*
X14015353Y-12212020D01*
X14015353Y-12212020D02*
X13996306Y-12221544D01*
X13996306Y-12221544D02*
X13958211Y-12221544D01*
X13958211Y-12221544D02*
X13939163Y-12212020D01*
X14120115Y-12202496D02*
X14129639Y-12212020D01*
X14129639Y-12212020D02*
X14120115Y-12221544D01*
X14120115Y-12221544D02*
X14110592Y-12212020D01*
X14110592Y-12212020D02*
X14120115Y-12202496D01*
X14120115Y-12202496D02*
X14120115Y-12221544D01*
X14120115Y-12097734D02*
X14129639Y-12107258D01*
X14129639Y-12107258D02*
X14120115Y-12116782D01*
X14120115Y-12116782D02*
X14110592Y-12107258D01*
X14110592Y-12107258D02*
X14120115Y-12097734D01*
X14120115Y-12097734D02*
X14120115Y-12116782D01*
M02*
