M48
; DRILL file {KiCad 7.0.9} date Sun Dec  3 03:50:42 2023
; FORMAT={-:-/ absolute / metric / decimal}
; #@! TF.CreationDate,2023-12-03T03:50:42-05:00
; #@! TF.GenerationSoftware,Kicad,Pcbnew,7.0.9
; #@! TF.FileFunction,Plated,1,16,PTH
FMAT,2
METRIC
; #@! TA.AperFunction,Plated,PTH,ViaDrill
T1C0.300
; #@! TA.AperFunction,Plated,PTH,ComponentDrill
T2C1.000
; #@! TA.AperFunction,Plated,PTH,ComponentDrill
T3C1.016
%
G90
G05
T1
X129.05Y-112.5
X129.57Y-109.6
X131.48Y-112.6
X132.76Y-107.79
X135.52Y-108.6
X136.59Y-108.03
X137.7Y-106.33
X137.74Y-111.57
X138.82Y-105.21
X138.84Y-112.71
X141.61Y-113.02
X142.25Y-104.6
X143.11Y-103.74
X144.19Y-115.23
X144.31Y-113.46
T2
X133.61Y-95.45
X141.61Y-95.45
T3
X127.597Y-117.399
X130.137Y-117.399
X132.677Y-117.399
X135.217Y-117.399
X137.757Y-117.399
X140.297Y-117.399
X142.837Y-117.399
X145.377Y-117.399
T0
M30
