%TF.GenerationSoftware,KiCad,Pcbnew,7.0.9*%
%TF.CreationDate,2023-12-03T04:53:17-05:00*%
%TF.ProjectId,SparkFun_MicroSD_Sniffer_v10,53706172-6b46-4756-9e5f-4d6963726f53,rev?*%
%TF.SameCoordinates,Original*%
%TF.FileFunction,Legend,Bot*%
%TF.FilePolarity,Positive*%
%FSLAX46Y46*%
G04 Gerber Fmt 4.6, Leading zero omitted, Abs format (unit mm)*
G04 Created by KiCad (PCBNEW 7.0.9) date 2023-12-03 04:53:17*
%MOMM*%
%LPD*%
G01*
G04 APERTURE LIST*
G04 Aperture macros list*
%AMRoundRect*
0 Rectangle with rounded corners*
0 $1 Rounding radius*
0 $2 $3 $4 $5 $6 $7 $8 $9 X,Y pos of 4 corners*
0 Add a 4 corners polygon primitive as box body*
4,1,4,$2,$3,$4,$5,$6,$7,$8,$9,$2,$3,0*
0 Add four circle primitives for the rounded corners*
1,1,$1+$1,$2,$3*
1,1,$1+$1,$4,$5*
1,1,$1+$1,$6,$7*
1,1,$1+$1,$8,$9*
0 Add four rect primitives between the rounded corners*
20,1,$1+$1,$2,$3,$4,$5,0*
20,1,$1+$1,$4,$5,$6,$7,0*
20,1,$1+$1,$6,$7,$8,$9,0*
20,1,$1+$1,$8,$9,$2,$3,0*%
G04 Aperture macros list end*
%ADD10C,0.152400*%
%ADD11C,0.190500*%
%ADD12C,0.100000*%
%ADD13RoundRect,0.101600X1.625000X-0.425000X1.625000X0.425000X-1.625000X0.425000X-1.625000X-0.425000X0*%
%ADD14RoundRect,0.101600X-1.875000X0.425000X-1.875000X-0.425000X1.875000X-0.425000X1.875000X0.425000X0*%
%ADD15RoundRect,0.101600X1.875000X-0.425000X1.875000X0.425000X-1.875000X0.425000X-1.875000X-0.425000X0*%
%ADD16C,2.082800*%
%ADD17RoundRect,0.101600X0.939800X-0.939800X0.939800X0.939800X-0.939800X0.939800X-0.939800X-0.939800X0*%
%ADD18C,1.000000*%
G04 APERTURE END LIST*
D10*
X135670388Y-114989556D02*
X135711512Y-115071803D01*
X135711512Y-115071803D02*
X135711512Y-115195175D01*
X135711512Y-115195175D02*
X135670388Y-115318546D01*
X135670388Y-115318546D02*
X135588140Y-115400794D01*
X135588140Y-115400794D02*
X135505893Y-115441917D01*
X135505893Y-115441917D02*
X135341397Y-115483041D01*
X135341397Y-115483041D02*
X135218026Y-115483041D01*
X135218026Y-115483041D02*
X135053531Y-115441917D01*
X135053531Y-115441917D02*
X134971283Y-115400794D01*
X134971283Y-115400794D02*
X134889036Y-115318546D01*
X134889036Y-115318546D02*
X134847912Y-115195175D01*
X134847912Y-115195175D02*
X134847912Y-115112927D01*
X134847912Y-115112927D02*
X134889036Y-114989556D01*
X134889036Y-114989556D02*
X134930159Y-114948432D01*
X134930159Y-114948432D02*
X135218026Y-114948432D01*
X135218026Y-114948432D02*
X135218026Y-115112927D01*
X134847912Y-114578317D02*
X135711512Y-114578317D01*
X135711512Y-114578317D02*
X134847912Y-114084832D01*
X134847912Y-114084832D02*
X135711512Y-114084832D01*
X134847912Y-113673593D02*
X135711512Y-113673593D01*
X135711512Y-113673593D02*
X135711512Y-113467974D01*
X135711512Y-113467974D02*
X135670388Y-113344603D01*
X135670388Y-113344603D02*
X135588140Y-113262355D01*
X135588140Y-113262355D02*
X135505893Y-113221232D01*
X135505893Y-113221232D02*
X135341397Y-113180108D01*
X135341397Y-113180108D02*
X135218026Y-113180108D01*
X135218026Y-113180108D02*
X135053531Y-113221232D01*
X135053531Y-113221232D02*
X134971283Y-113262355D01*
X134971283Y-113262355D02*
X134889036Y-113344603D01*
X134889036Y-113344603D02*
X134847912Y-113467974D01*
X134847912Y-113467974D02*
X134847912Y-113673593D01*
D11*
X143737648Y-101027983D02*
X143737648Y-100308317D01*
X143737648Y-100411126D02*
X143686243Y-100359721D01*
X143686243Y-100359721D02*
X143583433Y-100308317D01*
X143583433Y-100308317D02*
X143429219Y-100308317D01*
X143429219Y-100308317D02*
X143326410Y-100359721D01*
X143326410Y-100359721D02*
X143275005Y-100462531D01*
X143275005Y-100462531D02*
X143275005Y-101027983D01*
X143275005Y-100462531D02*
X143223600Y-100359721D01*
X143223600Y-100359721D02*
X143120791Y-100308317D01*
X143120791Y-100308317D02*
X142966576Y-100308317D01*
X142966576Y-100308317D02*
X142863767Y-100359721D01*
X142863767Y-100359721D02*
X142812362Y-100462531D01*
X142812362Y-100462531D02*
X142812362Y-101027983D01*
X142298315Y-101027983D02*
X142298315Y-100308317D01*
X142298315Y-99948483D02*
X142349719Y-99999888D01*
X142349719Y-99999888D02*
X142298315Y-100051293D01*
X142298315Y-100051293D02*
X142246910Y-99999888D01*
X142246910Y-99999888D02*
X142298315Y-99948483D01*
X142298315Y-99948483D02*
X142298315Y-100051293D01*
X141321624Y-100976579D02*
X141424433Y-101027983D01*
X141424433Y-101027983D02*
X141630052Y-101027983D01*
X141630052Y-101027983D02*
X141732862Y-100976579D01*
X141732862Y-100976579D02*
X141784267Y-100925174D01*
X141784267Y-100925174D02*
X141835671Y-100822364D01*
X141835671Y-100822364D02*
X141835671Y-100513936D01*
X141835671Y-100513936D02*
X141784267Y-100411126D01*
X141784267Y-100411126D02*
X141732862Y-100359721D01*
X141732862Y-100359721D02*
X141630052Y-100308317D01*
X141630052Y-100308317D02*
X141424433Y-100308317D01*
X141424433Y-100308317D02*
X141321624Y-100359721D01*
X140858981Y-101027983D02*
X140858981Y-100308317D01*
X140858981Y-100513936D02*
X140807576Y-100411126D01*
X140807576Y-100411126D02*
X140756171Y-100359721D01*
X140756171Y-100359721D02*
X140653362Y-100308317D01*
X140653362Y-100308317D02*
X140550552Y-100308317D01*
X140036504Y-101027983D02*
X140139314Y-100976579D01*
X140139314Y-100976579D02*
X140190719Y-100925174D01*
X140190719Y-100925174D02*
X140242123Y-100822364D01*
X140242123Y-100822364D02*
X140242123Y-100513936D01*
X140242123Y-100513936D02*
X140190719Y-100411126D01*
X140190719Y-100411126D02*
X140139314Y-100359721D01*
X140139314Y-100359721D02*
X140036504Y-100308317D01*
X140036504Y-100308317D02*
X139882290Y-100308317D01*
X139882290Y-100308317D02*
X139779481Y-100359721D01*
X139779481Y-100359721D02*
X139728076Y-100411126D01*
X139728076Y-100411126D02*
X139676671Y-100513936D01*
X139676671Y-100513936D02*
X139676671Y-100822364D01*
X139676671Y-100822364D02*
X139728076Y-100925174D01*
X139728076Y-100925174D02*
X139779481Y-100976579D01*
X139779481Y-100976579D02*
X139882290Y-101027983D01*
X139882290Y-101027983D02*
X140036504Y-101027983D01*
X139265433Y-100976579D02*
X139111219Y-101027983D01*
X139111219Y-101027983D02*
X138854195Y-101027983D01*
X138854195Y-101027983D02*
X138751386Y-100976579D01*
X138751386Y-100976579D02*
X138699981Y-100925174D01*
X138699981Y-100925174D02*
X138648576Y-100822364D01*
X138648576Y-100822364D02*
X138648576Y-100719555D01*
X138648576Y-100719555D02*
X138699981Y-100616745D01*
X138699981Y-100616745D02*
X138751386Y-100565340D01*
X138751386Y-100565340D02*
X138854195Y-100513936D01*
X138854195Y-100513936D02*
X139059814Y-100462531D01*
X139059814Y-100462531D02*
X139162624Y-100411126D01*
X139162624Y-100411126D02*
X139214029Y-100359721D01*
X139214029Y-100359721D02*
X139265433Y-100256912D01*
X139265433Y-100256912D02*
X139265433Y-100154102D01*
X139265433Y-100154102D02*
X139214029Y-100051293D01*
X139214029Y-100051293D02*
X139162624Y-99999888D01*
X139162624Y-99999888D02*
X139059814Y-99948483D01*
X139059814Y-99948483D02*
X138802791Y-99948483D01*
X138802791Y-99948483D02*
X138648576Y-99999888D01*
X138185934Y-101027983D02*
X138185934Y-99948483D01*
X138185934Y-99948483D02*
X137928910Y-99948483D01*
X137928910Y-99948483D02*
X137774696Y-99999888D01*
X137774696Y-99999888D02*
X137671886Y-100102698D01*
X137671886Y-100102698D02*
X137620481Y-100205507D01*
X137620481Y-100205507D02*
X137569077Y-100411126D01*
X137569077Y-100411126D02*
X137569077Y-100565340D01*
X137569077Y-100565340D02*
X137620481Y-100770959D01*
X137620481Y-100770959D02*
X137671886Y-100873769D01*
X137671886Y-100873769D02*
X137774696Y-100976579D01*
X137774696Y-100976579D02*
X137928910Y-101027983D01*
X137928910Y-101027983D02*
X138185934Y-101027983D01*
X136335362Y-100976579D02*
X136181148Y-101027983D01*
X136181148Y-101027983D02*
X135924124Y-101027983D01*
X135924124Y-101027983D02*
X135821315Y-100976579D01*
X135821315Y-100976579D02*
X135769910Y-100925174D01*
X135769910Y-100925174D02*
X135718505Y-100822364D01*
X135718505Y-100822364D02*
X135718505Y-100719555D01*
X135718505Y-100719555D02*
X135769910Y-100616745D01*
X135769910Y-100616745D02*
X135821315Y-100565340D01*
X135821315Y-100565340D02*
X135924124Y-100513936D01*
X135924124Y-100513936D02*
X136129743Y-100462531D01*
X136129743Y-100462531D02*
X136232553Y-100411126D01*
X136232553Y-100411126D02*
X136283958Y-100359721D01*
X136283958Y-100359721D02*
X136335362Y-100256912D01*
X136335362Y-100256912D02*
X136335362Y-100154102D01*
X136335362Y-100154102D02*
X136283958Y-100051293D01*
X136283958Y-100051293D02*
X136232553Y-99999888D01*
X136232553Y-99999888D02*
X136129743Y-99948483D01*
X136129743Y-99948483D02*
X135872720Y-99948483D01*
X135872720Y-99948483D02*
X135718505Y-99999888D01*
X135255863Y-100308317D02*
X135255863Y-101027983D01*
X135255863Y-100411126D02*
X135204458Y-100359721D01*
X135204458Y-100359721D02*
X135101648Y-100308317D01*
X135101648Y-100308317D02*
X134947434Y-100308317D01*
X134947434Y-100308317D02*
X134844625Y-100359721D01*
X134844625Y-100359721D02*
X134793220Y-100462531D01*
X134793220Y-100462531D02*
X134793220Y-101027983D01*
X134279173Y-101027983D02*
X134279173Y-100308317D01*
X134279173Y-99948483D02*
X134330577Y-99999888D01*
X134330577Y-99999888D02*
X134279173Y-100051293D01*
X134279173Y-100051293D02*
X134227768Y-99999888D01*
X134227768Y-99999888D02*
X134279173Y-99948483D01*
X134279173Y-99948483D02*
X134279173Y-100051293D01*
X133919339Y-100308317D02*
X133508101Y-100308317D01*
X133765125Y-101027983D02*
X133765125Y-100102698D01*
X133765125Y-100102698D02*
X133713720Y-99999888D01*
X133713720Y-99999888D02*
X133610910Y-99948483D01*
X133610910Y-99948483D02*
X133508101Y-99948483D01*
X133302482Y-100308317D02*
X132891244Y-100308317D01*
X133148268Y-101027983D02*
X133148268Y-100102698D01*
X133148268Y-100102698D02*
X133096863Y-99999888D01*
X133096863Y-99999888D02*
X132994053Y-99948483D01*
X132994053Y-99948483D02*
X132891244Y-99948483D01*
X132120173Y-100976579D02*
X132222982Y-101027983D01*
X132222982Y-101027983D02*
X132428601Y-101027983D01*
X132428601Y-101027983D02*
X132531411Y-100976579D01*
X132531411Y-100976579D02*
X132582815Y-100873769D01*
X132582815Y-100873769D02*
X132582815Y-100462531D01*
X132582815Y-100462531D02*
X132531411Y-100359721D01*
X132531411Y-100359721D02*
X132428601Y-100308317D01*
X132428601Y-100308317D02*
X132222982Y-100308317D01*
X132222982Y-100308317D02*
X132120173Y-100359721D01*
X132120173Y-100359721D02*
X132068768Y-100462531D01*
X132068768Y-100462531D02*
X132068768Y-100565340D01*
X132068768Y-100565340D02*
X132582815Y-100668150D01*
X131606125Y-101027983D02*
X131606125Y-100308317D01*
X131606125Y-100513936D02*
X131554720Y-100411126D01*
X131554720Y-100411126D02*
X131503315Y-100359721D01*
X131503315Y-100359721D02*
X131400506Y-100308317D01*
X131400506Y-100308317D02*
X131297696Y-100308317D01*
D10*
X142467912Y-115441917D02*
X143331512Y-115441917D01*
X143331512Y-115441917D02*
X143331512Y-115236298D01*
X143331512Y-115236298D02*
X143290388Y-115112927D01*
X143290388Y-115112927D02*
X143208140Y-115030679D01*
X143208140Y-115030679D02*
X143125893Y-114989556D01*
X143125893Y-114989556D02*
X142961397Y-114948432D01*
X142961397Y-114948432D02*
X142838026Y-114948432D01*
X142838026Y-114948432D02*
X142673531Y-114989556D01*
X142673531Y-114989556D02*
X142591283Y-115030679D01*
X142591283Y-115030679D02*
X142509036Y-115112927D01*
X142509036Y-115112927D02*
X142467912Y-115236298D01*
X142467912Y-115236298D02*
X142467912Y-115441917D01*
X142714655Y-114619441D02*
X142714655Y-114208203D01*
X142467912Y-114701689D02*
X143331512Y-114413822D01*
X143331512Y-114413822D02*
X142467912Y-114125956D01*
X143331512Y-113961460D02*
X143331512Y-113467974D01*
X142467912Y-113714717D02*
X143331512Y-113714717D01*
X143331512Y-113015612D02*
X143331512Y-112933365D01*
X143331512Y-112933365D02*
X143290388Y-112851117D01*
X143290388Y-112851117D02*
X143249264Y-112809993D01*
X143249264Y-112809993D02*
X143167016Y-112768869D01*
X143167016Y-112768869D02*
X143002521Y-112727746D01*
X143002521Y-112727746D02*
X142796902Y-112727746D01*
X142796902Y-112727746D02*
X142632407Y-112768869D01*
X142632407Y-112768869D02*
X142550159Y-112809993D01*
X142550159Y-112809993D02*
X142509036Y-112851117D01*
X142509036Y-112851117D02*
X142467912Y-112933365D01*
X142467912Y-112933365D02*
X142467912Y-113015612D01*
X142467912Y-113015612D02*
X142509036Y-113097860D01*
X142509036Y-113097860D02*
X142550159Y-113138984D01*
X142550159Y-113138984D02*
X142632407Y-113180107D01*
X142632407Y-113180107D02*
X142796902Y-113221231D01*
X142796902Y-113221231D02*
X143002521Y-113221231D01*
X143002521Y-113221231D02*
X143167016Y-113180107D01*
X143167016Y-113180107D02*
X143249264Y-113138984D01*
X143249264Y-113138984D02*
X143290388Y-113097860D01*
X143290388Y-113097860D02*
X143331512Y-113015612D01*
X140010159Y-114948432D02*
X139969036Y-114989556D01*
X139969036Y-114989556D02*
X139927912Y-115112927D01*
X139927912Y-115112927D02*
X139927912Y-115195175D01*
X139927912Y-115195175D02*
X139969036Y-115318546D01*
X139969036Y-115318546D02*
X140051283Y-115400794D01*
X140051283Y-115400794D02*
X140133531Y-115441917D01*
X140133531Y-115441917D02*
X140298026Y-115483041D01*
X140298026Y-115483041D02*
X140421397Y-115483041D01*
X140421397Y-115483041D02*
X140585893Y-115441917D01*
X140585893Y-115441917D02*
X140668140Y-115400794D01*
X140668140Y-115400794D02*
X140750388Y-115318546D01*
X140750388Y-115318546D02*
X140791512Y-115195175D01*
X140791512Y-115195175D02*
X140791512Y-115112927D01*
X140791512Y-115112927D02*
X140750388Y-114989556D01*
X140750388Y-114989556D02*
X140709264Y-114948432D01*
X139927912Y-114167079D02*
X139927912Y-114578317D01*
X139927912Y-114578317D02*
X140791512Y-114578317D01*
X139927912Y-113879212D02*
X140791512Y-113879212D01*
X139927912Y-113385727D02*
X140421397Y-113755841D01*
X140791512Y-113385727D02*
X140298026Y-113879212D01*
X129830348Y-115072758D02*
X129789225Y-115113882D01*
X129789225Y-115113882D02*
X129748101Y-115237253D01*
X129748101Y-115237253D02*
X129748101Y-115319501D01*
X129748101Y-115319501D02*
X129789225Y-115442872D01*
X129789225Y-115442872D02*
X129871472Y-115525120D01*
X129871472Y-115525120D02*
X129953720Y-115566243D01*
X129953720Y-115566243D02*
X130118215Y-115607367D01*
X130118215Y-115607367D02*
X130241586Y-115607367D01*
X130241586Y-115607367D02*
X130406082Y-115566243D01*
X130406082Y-115566243D02*
X130488329Y-115525120D01*
X130488329Y-115525120D02*
X130570577Y-115442872D01*
X130570577Y-115442872D02*
X130611701Y-115319501D01*
X130611701Y-115319501D02*
X130611701Y-115237253D01*
X130611701Y-115237253D02*
X130570577Y-115113882D01*
X130570577Y-115113882D02*
X130529453Y-115072758D01*
X129748101Y-114702643D02*
X130611701Y-114702643D01*
X130611701Y-114702643D02*
X130611701Y-114497024D01*
X130611701Y-114497024D02*
X130570577Y-114373653D01*
X130570577Y-114373653D02*
X130488329Y-114291405D01*
X130488329Y-114291405D02*
X130406082Y-114250282D01*
X130406082Y-114250282D02*
X130241586Y-114209158D01*
X130241586Y-114209158D02*
X130118215Y-114209158D01*
X130118215Y-114209158D02*
X129953720Y-114250282D01*
X129953720Y-114250282D02*
X129871472Y-114291405D01*
X129871472Y-114291405D02*
X129789225Y-114373653D01*
X129789225Y-114373653D02*
X129748101Y-114497024D01*
X129748101Y-114497024D02*
X129748101Y-114702643D01*
X132390159Y-114948432D02*
X132349036Y-114989556D01*
X132349036Y-114989556D02*
X132307912Y-115112927D01*
X132307912Y-115112927D02*
X132307912Y-115195175D01*
X132307912Y-115195175D02*
X132349036Y-115318546D01*
X132349036Y-115318546D02*
X132431283Y-115400794D01*
X132431283Y-115400794D02*
X132513531Y-115441917D01*
X132513531Y-115441917D02*
X132678026Y-115483041D01*
X132678026Y-115483041D02*
X132801397Y-115483041D01*
X132801397Y-115483041D02*
X132965893Y-115441917D01*
X132965893Y-115441917D02*
X133048140Y-115400794D01*
X133048140Y-115400794D02*
X133130388Y-115318546D01*
X133130388Y-115318546D02*
X133171512Y-115195175D01*
X133171512Y-115195175D02*
X133171512Y-115112927D01*
X133171512Y-115112927D02*
X133130388Y-114989556D01*
X133130388Y-114989556D02*
X133089264Y-114948432D01*
X132307912Y-114578317D02*
X133171512Y-114578317D01*
X133171512Y-114578317D02*
X132554655Y-114290451D01*
X132554655Y-114290451D02*
X133171512Y-114002584D01*
X133171512Y-114002584D02*
X132307912Y-114002584D01*
X132307912Y-113591346D02*
X133171512Y-113591346D01*
X133171512Y-113591346D02*
X133171512Y-113385727D01*
X133171512Y-113385727D02*
X133130388Y-113262356D01*
X133130388Y-113262356D02*
X133048140Y-113180108D01*
X133048140Y-113180108D02*
X132965893Y-113138985D01*
X132965893Y-113138985D02*
X132801397Y-113097861D01*
X132801397Y-113097861D02*
X132678026Y-113097861D01*
X132678026Y-113097861D02*
X132513531Y-113138985D01*
X132513531Y-113138985D02*
X132431283Y-113180108D01*
X132431283Y-113180108D02*
X132349036Y-113262356D01*
X132349036Y-113262356D02*
X132307912Y-113385727D01*
X132307912Y-113385727D02*
X132307912Y-113591346D01*
X145007912Y-115441917D02*
X145871512Y-115441917D01*
X145871512Y-115441917D02*
X145871512Y-115236298D01*
X145871512Y-115236298D02*
X145830388Y-115112927D01*
X145830388Y-115112927D02*
X145748140Y-115030679D01*
X145748140Y-115030679D02*
X145665893Y-114989556D01*
X145665893Y-114989556D02*
X145501397Y-114948432D01*
X145501397Y-114948432D02*
X145378026Y-114948432D01*
X145378026Y-114948432D02*
X145213531Y-114989556D01*
X145213531Y-114989556D02*
X145131283Y-115030679D01*
X145131283Y-115030679D02*
X145049036Y-115112927D01*
X145049036Y-115112927D02*
X145007912Y-115236298D01*
X145007912Y-115236298D02*
X145007912Y-115441917D01*
X145254655Y-114619441D02*
X145254655Y-114208203D01*
X145007912Y-114701689D02*
X145871512Y-114413822D01*
X145871512Y-114413822D02*
X145007912Y-114125956D01*
X145871512Y-113961460D02*
X145871512Y-113467974D01*
X145007912Y-113714717D02*
X145871512Y-113714717D01*
X145007912Y-112727746D02*
X145007912Y-113221231D01*
X145007912Y-112974488D02*
X145871512Y-112974488D01*
X145871512Y-112974488D02*
X145748140Y-113056736D01*
X145748140Y-113056736D02*
X145665893Y-113138984D01*
X145665893Y-113138984D02*
X145624769Y-113221231D01*
X138251512Y-115565289D02*
X137387912Y-115277422D01*
X137387912Y-115277422D02*
X138251512Y-114989556D01*
X137470159Y-114208203D02*
X137429036Y-114249327D01*
X137429036Y-114249327D02*
X137387912Y-114372698D01*
X137387912Y-114372698D02*
X137387912Y-114454946D01*
X137387912Y-114454946D02*
X137429036Y-114578317D01*
X137429036Y-114578317D02*
X137511283Y-114660565D01*
X137511283Y-114660565D02*
X137593531Y-114701688D01*
X137593531Y-114701688D02*
X137758026Y-114742812D01*
X137758026Y-114742812D02*
X137881397Y-114742812D01*
X137881397Y-114742812D02*
X138045893Y-114701688D01*
X138045893Y-114701688D02*
X138128140Y-114660565D01*
X138128140Y-114660565D02*
X138210388Y-114578317D01*
X138210388Y-114578317D02*
X138251512Y-114454946D01*
X138251512Y-114454946D02*
X138251512Y-114372698D01*
X138251512Y-114372698D02*
X138210388Y-114249327D01*
X138210388Y-114249327D02*
X138169264Y-114208203D01*
X137470159Y-113344603D02*
X137429036Y-113385727D01*
X137429036Y-113385727D02*
X137387912Y-113509098D01*
X137387912Y-113509098D02*
X137387912Y-113591346D01*
X137387912Y-113591346D02*
X137429036Y-113714717D01*
X137429036Y-113714717D02*
X137511283Y-113796965D01*
X137511283Y-113796965D02*
X137593531Y-113838088D01*
X137593531Y-113838088D02*
X137758026Y-113879212D01*
X137758026Y-113879212D02*
X137881397Y-113879212D01*
X137881397Y-113879212D02*
X138045893Y-113838088D01*
X138045893Y-113838088D02*
X138128140Y-113796965D01*
X138128140Y-113796965D02*
X138210388Y-113714717D01*
X138210388Y-113714717D02*
X138251512Y-113591346D01*
X138251512Y-113591346D02*
X138251512Y-113509098D01*
X138251512Y-113509098D02*
X138210388Y-113385727D01*
X138210388Y-113385727D02*
X138169264Y-113344603D01*
X127227912Y-115441917D02*
X128091512Y-115441917D01*
X128091512Y-115441917D02*
X128091512Y-115236298D01*
X128091512Y-115236298D02*
X128050388Y-115112927D01*
X128050388Y-115112927D02*
X127968140Y-115030679D01*
X127968140Y-115030679D02*
X127885893Y-114989556D01*
X127885893Y-114989556D02*
X127721397Y-114948432D01*
X127721397Y-114948432D02*
X127598026Y-114948432D01*
X127598026Y-114948432D02*
X127433531Y-114989556D01*
X127433531Y-114989556D02*
X127351283Y-115030679D01*
X127351283Y-115030679D02*
X127269036Y-115112927D01*
X127269036Y-115112927D02*
X127227912Y-115236298D01*
X127227912Y-115236298D02*
X127227912Y-115441917D01*
X127474655Y-114619441D02*
X127474655Y-114208203D01*
X127227912Y-114701689D02*
X128091512Y-114413822D01*
X128091512Y-114413822D02*
X127227912Y-114125956D01*
X128091512Y-113961460D02*
X128091512Y-113467974D01*
X127227912Y-113714717D02*
X128091512Y-113714717D01*
X128009264Y-113221231D02*
X128050388Y-113180107D01*
X128050388Y-113180107D02*
X128091512Y-113097860D01*
X128091512Y-113097860D02*
X128091512Y-112892241D01*
X128091512Y-112892241D02*
X128050388Y-112809993D01*
X128050388Y-112809993D02*
X128009264Y-112768869D01*
X128009264Y-112768869D02*
X127927016Y-112727746D01*
X127927016Y-112727746D02*
X127844769Y-112727746D01*
X127844769Y-112727746D02*
X127721397Y-112768869D01*
X127721397Y-112768869D02*
X127227912Y-113262355D01*
X127227912Y-113262355D02*
X127227912Y-112727746D01*
D12*
X156181830Y-104168800D02*
X156067544Y-104206895D01*
X156067544Y-104206895D02*
X155877068Y-104206895D01*
X155877068Y-104206895D02*
X155800877Y-104168800D01*
X155800877Y-104168800D02*
X155762782Y-104130704D01*
X155762782Y-104130704D02*
X155724687Y-104054514D01*
X155724687Y-104054514D02*
X155724687Y-103978323D01*
X155724687Y-103978323D02*
X155762782Y-103902133D01*
X155762782Y-103902133D02*
X155800877Y-103864038D01*
X155800877Y-103864038D02*
X155877068Y-103825942D01*
X155877068Y-103825942D02*
X156029449Y-103787847D01*
X156029449Y-103787847D02*
X156105639Y-103749752D01*
X156105639Y-103749752D02*
X156143734Y-103711657D01*
X156143734Y-103711657D02*
X156181830Y-103635466D01*
X156181830Y-103635466D02*
X156181830Y-103559276D01*
X156181830Y-103559276D02*
X156143734Y-103483085D01*
X156143734Y-103483085D02*
X156105639Y-103444990D01*
X156105639Y-103444990D02*
X156029449Y-103406895D01*
X156029449Y-103406895D02*
X155838972Y-103406895D01*
X155838972Y-103406895D02*
X155724687Y-103444990D01*
X155381829Y-104206895D02*
X155381829Y-103673561D01*
X155381829Y-103825942D02*
X155343734Y-103749752D01*
X155343734Y-103749752D02*
X155305639Y-103711657D01*
X155305639Y-103711657D02*
X155229448Y-103673561D01*
X155229448Y-103673561D02*
X155153258Y-103673561D01*
X154543734Y-104168800D02*
X154619925Y-104206895D01*
X154619925Y-104206895D02*
X154772306Y-104206895D01*
X154772306Y-104206895D02*
X154848496Y-104168800D01*
X154848496Y-104168800D02*
X154886591Y-104130704D01*
X154886591Y-104130704D02*
X154924687Y-104054514D01*
X154924687Y-104054514D02*
X154924687Y-103825942D01*
X154924687Y-103825942D02*
X154886591Y-103749752D01*
X154886591Y-103749752D02*
X154848496Y-103711657D01*
X154848496Y-103711657D02*
X154772306Y-103673561D01*
X154772306Y-103673561D02*
X154619925Y-103673561D01*
X154619925Y-103673561D02*
X154543734Y-103711657D01*
X154200877Y-104130704D02*
X154162782Y-104168800D01*
X154162782Y-104168800D02*
X154200877Y-104206895D01*
X154200877Y-104206895D02*
X154238973Y-104168800D01*
X154238973Y-104168800D02*
X154200877Y-104130704D01*
X154200877Y-104130704D02*
X154200877Y-104206895D01*
X154200877Y-103711657D02*
X154162782Y-103749752D01*
X154162782Y-103749752D02*
X154200877Y-103787847D01*
X154200877Y-103787847D02*
X154238973Y-103749752D01*
X154238973Y-103749752D02*
X154200877Y-103711657D01*
X154200877Y-103711657D02*
X154200877Y-103787847D01*
X153210401Y-104206895D02*
X153210401Y-103406895D01*
X152867544Y-104206895D02*
X152867544Y-103787847D01*
X152867544Y-103787847D02*
X152905639Y-103711657D01*
X152905639Y-103711657D02*
X152981830Y-103673561D01*
X152981830Y-103673561D02*
X153096116Y-103673561D01*
X153096116Y-103673561D02*
X153172306Y-103711657D01*
X153172306Y-103711657D02*
X153210401Y-103749752D01*
X152600877Y-103673561D02*
X152296115Y-103673561D01*
X152486591Y-103406895D02*
X152486591Y-104092609D01*
X152486591Y-104092609D02*
X152448496Y-104168800D01*
X152448496Y-104168800D02*
X152372306Y-104206895D01*
X152372306Y-104206895D02*
X152296115Y-104206895D01*
X152143734Y-103673561D02*
X151838972Y-103673561D01*
X152029448Y-103406895D02*
X152029448Y-104092609D01*
X152029448Y-104092609D02*
X151991353Y-104168800D01*
X151991353Y-104168800D02*
X151915163Y-104206895D01*
X151915163Y-104206895D02*
X151838972Y-104206895D01*
X151572305Y-103673561D02*
X151572305Y-104473561D01*
X151572305Y-103711657D02*
X151496115Y-103673561D01*
X151496115Y-103673561D02*
X151343734Y-103673561D01*
X151343734Y-103673561D02*
X151267543Y-103711657D01*
X151267543Y-103711657D02*
X151229448Y-103749752D01*
X151229448Y-103749752D02*
X151191353Y-103825942D01*
X151191353Y-103825942D02*
X151191353Y-104054514D01*
X151191353Y-104054514D02*
X151229448Y-104130704D01*
X151229448Y-104130704D02*
X151267543Y-104168800D01*
X151267543Y-104168800D02*
X151343734Y-104206895D01*
X151343734Y-104206895D02*
X151496115Y-104206895D01*
X151496115Y-104206895D02*
X151572305Y-104168800D01*
X150886591Y-104168800D02*
X150810400Y-104206895D01*
X150810400Y-104206895D02*
X150658019Y-104206895D01*
X150658019Y-104206895D02*
X150581829Y-104168800D01*
X150581829Y-104168800D02*
X150543733Y-104092609D01*
X150543733Y-104092609D02*
X150543733Y-104054514D01*
X150543733Y-104054514D02*
X150581829Y-103978323D01*
X150581829Y-103978323D02*
X150658019Y-103940228D01*
X150658019Y-103940228D02*
X150772305Y-103940228D01*
X150772305Y-103940228D02*
X150848495Y-103902133D01*
X150848495Y-103902133D02*
X150886591Y-103825942D01*
X150886591Y-103825942D02*
X150886591Y-103787847D01*
X150886591Y-103787847D02*
X150848495Y-103711657D01*
X150848495Y-103711657D02*
X150772305Y-103673561D01*
X150772305Y-103673561D02*
X150658019Y-103673561D01*
X150658019Y-103673561D02*
X150581829Y-103711657D01*
X150200876Y-104130704D02*
X150162781Y-104168800D01*
X150162781Y-104168800D02*
X150200876Y-104206895D01*
X150200876Y-104206895D02*
X150238972Y-104168800D01*
X150238972Y-104168800D02*
X150200876Y-104130704D01*
X150200876Y-104130704D02*
X150200876Y-104206895D01*
X150200876Y-103711657D02*
X150162781Y-103749752D01*
X150162781Y-103749752D02*
X150200876Y-103787847D01*
X150200876Y-103787847D02*
X150238972Y-103749752D01*
X150238972Y-103749752D02*
X150200876Y-103711657D01*
X150200876Y-103711657D02*
X150200876Y-103787847D01*
X149248496Y-103368800D02*
X149934210Y-104397371D01*
X148410401Y-103368800D02*
X149096115Y-104397371D01*
X147800877Y-103673561D02*
X147800877Y-104321180D01*
X147800877Y-104321180D02*
X147838972Y-104397371D01*
X147838972Y-104397371D02*
X147877068Y-104435466D01*
X147877068Y-104435466D02*
X147953258Y-104473561D01*
X147953258Y-104473561D02*
X148067544Y-104473561D01*
X148067544Y-104473561D02*
X148143734Y-104435466D01*
X147800877Y-104168800D02*
X147877068Y-104206895D01*
X147877068Y-104206895D02*
X148029449Y-104206895D01*
X148029449Y-104206895D02*
X148105639Y-104168800D01*
X148105639Y-104168800D02*
X148143734Y-104130704D01*
X148143734Y-104130704D02*
X148181830Y-104054514D01*
X148181830Y-104054514D02*
X148181830Y-103825942D01*
X148181830Y-103825942D02*
X148143734Y-103749752D01*
X148143734Y-103749752D02*
X148105639Y-103711657D01*
X148105639Y-103711657D02*
X148029449Y-103673561D01*
X148029449Y-103673561D02*
X147877068Y-103673561D01*
X147877068Y-103673561D02*
X147800877Y-103711657D01*
X147419924Y-104206895D02*
X147419924Y-103673561D01*
X147419924Y-103406895D02*
X147458020Y-103444990D01*
X147458020Y-103444990D02*
X147419924Y-103483085D01*
X147419924Y-103483085D02*
X147381829Y-103444990D01*
X147381829Y-103444990D02*
X147419924Y-103406895D01*
X147419924Y-103406895D02*
X147419924Y-103483085D01*
X147153258Y-103673561D02*
X146848496Y-103673561D01*
X147038972Y-103406895D02*
X147038972Y-104092609D01*
X147038972Y-104092609D02*
X147000877Y-104168800D01*
X147000877Y-104168800D02*
X146924687Y-104206895D01*
X146924687Y-104206895D02*
X146848496Y-104206895D01*
X146581829Y-104206895D02*
X146581829Y-103406895D01*
X146238972Y-104206895D02*
X146238972Y-103787847D01*
X146238972Y-103787847D02*
X146277067Y-103711657D01*
X146277067Y-103711657D02*
X146353258Y-103673561D01*
X146353258Y-103673561D02*
X146467544Y-103673561D01*
X146467544Y-103673561D02*
X146543734Y-103711657D01*
X146543734Y-103711657D02*
X146581829Y-103749752D01*
X145515162Y-103673561D02*
X145515162Y-104206895D01*
X145858019Y-103673561D02*
X145858019Y-104092609D01*
X145858019Y-104092609D02*
X145819924Y-104168800D01*
X145819924Y-104168800D02*
X145743734Y-104206895D01*
X145743734Y-104206895D02*
X145629448Y-104206895D01*
X145629448Y-104206895D02*
X145553257Y-104168800D01*
X145553257Y-104168800D02*
X145515162Y-104130704D01*
X145134209Y-104206895D02*
X145134209Y-103406895D01*
X145134209Y-103711657D02*
X145058019Y-103673561D01*
X145058019Y-103673561D02*
X144905638Y-103673561D01*
X144905638Y-103673561D02*
X144829447Y-103711657D01*
X144829447Y-103711657D02*
X144791352Y-103749752D01*
X144791352Y-103749752D02*
X144753257Y-103825942D01*
X144753257Y-103825942D02*
X144753257Y-104054514D01*
X144753257Y-104054514D02*
X144791352Y-104130704D01*
X144791352Y-104130704D02*
X144829447Y-104168800D01*
X144829447Y-104168800D02*
X144905638Y-104206895D01*
X144905638Y-104206895D02*
X145058019Y-104206895D01*
X145058019Y-104206895D02*
X145134209Y-104168800D01*
X144410399Y-104130704D02*
X144372304Y-104168800D01*
X144372304Y-104168800D02*
X144410399Y-104206895D01*
X144410399Y-104206895D02*
X144448495Y-104168800D01*
X144448495Y-104168800D02*
X144410399Y-104130704D01*
X144410399Y-104130704D02*
X144410399Y-104206895D01*
X143686590Y-104168800D02*
X143762781Y-104206895D01*
X143762781Y-104206895D02*
X143915162Y-104206895D01*
X143915162Y-104206895D02*
X143991352Y-104168800D01*
X143991352Y-104168800D02*
X144029447Y-104130704D01*
X144029447Y-104130704D02*
X144067543Y-104054514D01*
X144067543Y-104054514D02*
X144067543Y-103825942D01*
X144067543Y-103825942D02*
X144029447Y-103749752D01*
X144029447Y-103749752D02*
X143991352Y-103711657D01*
X143991352Y-103711657D02*
X143915162Y-103673561D01*
X143915162Y-103673561D02*
X143762781Y-103673561D01*
X143762781Y-103673561D02*
X143686590Y-103711657D01*
X143229448Y-104206895D02*
X143305638Y-104168800D01*
X143305638Y-104168800D02*
X143343733Y-104130704D01*
X143343733Y-104130704D02*
X143381829Y-104054514D01*
X143381829Y-104054514D02*
X143381829Y-103825942D01*
X143381829Y-103825942D02*
X143343733Y-103749752D01*
X143343733Y-103749752D02*
X143305638Y-103711657D01*
X143305638Y-103711657D02*
X143229448Y-103673561D01*
X143229448Y-103673561D02*
X143115162Y-103673561D01*
X143115162Y-103673561D02*
X143038971Y-103711657D01*
X143038971Y-103711657D02*
X143000876Y-103749752D01*
X143000876Y-103749752D02*
X142962781Y-103825942D01*
X142962781Y-103825942D02*
X142962781Y-104054514D01*
X142962781Y-104054514D02*
X143000876Y-104130704D01*
X143000876Y-104130704D02*
X143038971Y-104168800D01*
X143038971Y-104168800D02*
X143115162Y-104206895D01*
X143115162Y-104206895D02*
X143229448Y-104206895D01*
X142619923Y-104206895D02*
X142619923Y-103673561D01*
X142619923Y-103749752D02*
X142581828Y-103711657D01*
X142581828Y-103711657D02*
X142505638Y-103673561D01*
X142505638Y-103673561D02*
X142391352Y-103673561D01*
X142391352Y-103673561D02*
X142315161Y-103711657D01*
X142315161Y-103711657D02*
X142277066Y-103787847D01*
X142277066Y-103787847D02*
X142277066Y-104206895D01*
X142277066Y-103787847D02*
X142238971Y-103711657D01*
X142238971Y-103711657D02*
X142162780Y-103673561D01*
X142162780Y-103673561D02*
X142048495Y-103673561D01*
X142048495Y-103673561D02*
X141972304Y-103711657D01*
X141972304Y-103711657D02*
X141934209Y-103787847D01*
X141934209Y-103787847D02*
X141934209Y-104206895D01*
X140981828Y-103368800D02*
X141667542Y-104397371D01*
X140753257Y-104168800D02*
X140677066Y-104206895D01*
X140677066Y-104206895D02*
X140524685Y-104206895D01*
X140524685Y-104206895D02*
X140448495Y-104168800D01*
X140448495Y-104168800D02*
X140410399Y-104092609D01*
X140410399Y-104092609D02*
X140410399Y-104054514D01*
X140410399Y-104054514D02*
X140448495Y-103978323D01*
X140448495Y-103978323D02*
X140524685Y-103940228D01*
X140524685Y-103940228D02*
X140638971Y-103940228D01*
X140638971Y-103940228D02*
X140715161Y-103902133D01*
X140715161Y-103902133D02*
X140753257Y-103825942D01*
X140753257Y-103825942D02*
X140753257Y-103787847D01*
X140753257Y-103787847D02*
X140715161Y-103711657D01*
X140715161Y-103711657D02*
X140638971Y-103673561D01*
X140638971Y-103673561D02*
X140524685Y-103673561D01*
X140524685Y-103673561D02*
X140448495Y-103711657D01*
X140067542Y-103673561D02*
X140067542Y-104473561D01*
X140067542Y-103711657D02*
X139991352Y-103673561D01*
X139991352Y-103673561D02*
X139838971Y-103673561D01*
X139838971Y-103673561D02*
X139762780Y-103711657D01*
X139762780Y-103711657D02*
X139724685Y-103749752D01*
X139724685Y-103749752D02*
X139686590Y-103825942D01*
X139686590Y-103825942D02*
X139686590Y-104054514D01*
X139686590Y-104054514D02*
X139724685Y-104130704D01*
X139724685Y-104130704D02*
X139762780Y-104168800D01*
X139762780Y-104168800D02*
X139838971Y-104206895D01*
X139838971Y-104206895D02*
X139991352Y-104206895D01*
X139991352Y-104206895D02*
X140067542Y-104168800D01*
X139000875Y-104206895D02*
X139000875Y-103787847D01*
X139000875Y-103787847D02*
X139038970Y-103711657D01*
X139038970Y-103711657D02*
X139115161Y-103673561D01*
X139115161Y-103673561D02*
X139267542Y-103673561D01*
X139267542Y-103673561D02*
X139343732Y-103711657D01*
X139000875Y-104168800D02*
X139077066Y-104206895D01*
X139077066Y-104206895D02*
X139267542Y-104206895D01*
X139267542Y-104206895D02*
X139343732Y-104168800D01*
X139343732Y-104168800D02*
X139381828Y-104092609D01*
X139381828Y-104092609D02*
X139381828Y-104016419D01*
X139381828Y-104016419D02*
X139343732Y-103940228D01*
X139343732Y-103940228D02*
X139267542Y-103902133D01*
X139267542Y-103902133D02*
X139077066Y-103902133D01*
X139077066Y-103902133D02*
X139000875Y-103864038D01*
X138619922Y-104206895D02*
X138619922Y-103673561D01*
X138619922Y-103825942D02*
X138581827Y-103749752D01*
X138581827Y-103749752D02*
X138543732Y-103711657D01*
X138543732Y-103711657D02*
X138467541Y-103673561D01*
X138467541Y-103673561D02*
X138391351Y-103673561D01*
X138124684Y-104206895D02*
X138124684Y-103406895D01*
X138048494Y-103902133D02*
X137819922Y-104206895D01*
X137819922Y-103673561D02*
X138124684Y-103978323D01*
X137591351Y-103673561D02*
X137286589Y-103673561D01*
X137477065Y-104206895D02*
X137477065Y-103521180D01*
X137477065Y-103521180D02*
X137438970Y-103444990D01*
X137438970Y-103444990D02*
X137362780Y-103406895D01*
X137362780Y-103406895D02*
X137286589Y-103406895D01*
X136677065Y-103673561D02*
X136677065Y-104206895D01*
X137019922Y-103673561D02*
X137019922Y-104092609D01*
X137019922Y-104092609D02*
X136981827Y-104168800D01*
X136981827Y-104168800D02*
X136905637Y-104206895D01*
X136905637Y-104206895D02*
X136791351Y-104206895D01*
X136791351Y-104206895D02*
X136715160Y-104168800D01*
X136715160Y-104168800D02*
X136677065Y-104130704D01*
X136296112Y-103673561D02*
X136296112Y-104206895D01*
X136296112Y-103749752D02*
X136258017Y-103711657D01*
X136258017Y-103711657D02*
X136181827Y-103673561D01*
X136181827Y-103673561D02*
X136067541Y-103673561D01*
X136067541Y-103673561D02*
X135991350Y-103711657D01*
X135991350Y-103711657D02*
X135953255Y-103787847D01*
X135953255Y-103787847D02*
X135953255Y-104206895D01*
X135000874Y-103368800D02*
X135686588Y-104397371D01*
X134734207Y-104206895D02*
X134734207Y-103406895D01*
X134734207Y-103406895D02*
X134467541Y-103978323D01*
X134467541Y-103978323D02*
X134200874Y-103406895D01*
X134200874Y-103406895D02*
X134200874Y-104206895D01*
X133819921Y-104206895D02*
X133819921Y-103673561D01*
X133819921Y-103406895D02*
X133858017Y-103444990D01*
X133858017Y-103444990D02*
X133819921Y-103483085D01*
X133819921Y-103483085D02*
X133781826Y-103444990D01*
X133781826Y-103444990D02*
X133819921Y-103406895D01*
X133819921Y-103406895D02*
X133819921Y-103483085D01*
X133096112Y-104168800D02*
X133172303Y-104206895D01*
X133172303Y-104206895D02*
X133324684Y-104206895D01*
X133324684Y-104206895D02*
X133400874Y-104168800D01*
X133400874Y-104168800D02*
X133438969Y-104130704D01*
X133438969Y-104130704D02*
X133477065Y-104054514D01*
X133477065Y-104054514D02*
X133477065Y-103825942D01*
X133477065Y-103825942D02*
X133438969Y-103749752D01*
X133438969Y-103749752D02*
X133400874Y-103711657D01*
X133400874Y-103711657D02*
X133324684Y-103673561D01*
X133324684Y-103673561D02*
X133172303Y-103673561D01*
X133172303Y-103673561D02*
X133096112Y-103711657D01*
X132753255Y-104206895D02*
X132753255Y-103673561D01*
X132753255Y-103825942D02*
X132715160Y-103749752D01*
X132715160Y-103749752D02*
X132677065Y-103711657D01*
X132677065Y-103711657D02*
X132600874Y-103673561D01*
X132600874Y-103673561D02*
X132524684Y-103673561D01*
X132143732Y-104206895D02*
X132219922Y-104168800D01*
X132219922Y-104168800D02*
X132258017Y-104130704D01*
X132258017Y-104130704D02*
X132296113Y-104054514D01*
X132296113Y-104054514D02*
X132296113Y-103825942D01*
X132296113Y-103825942D02*
X132258017Y-103749752D01*
X132258017Y-103749752D02*
X132219922Y-103711657D01*
X132219922Y-103711657D02*
X132143732Y-103673561D01*
X132143732Y-103673561D02*
X132029446Y-103673561D01*
X132029446Y-103673561D02*
X131953255Y-103711657D01*
X131953255Y-103711657D02*
X131915160Y-103749752D01*
X131915160Y-103749752D02*
X131877065Y-103825942D01*
X131877065Y-103825942D02*
X131877065Y-104054514D01*
X131877065Y-104054514D02*
X131915160Y-104130704D01*
X131915160Y-104130704D02*
X131953255Y-104168800D01*
X131953255Y-104168800D02*
X132029446Y-104206895D01*
X132029446Y-104206895D02*
X132143732Y-104206895D01*
X131572303Y-104168800D02*
X131458017Y-104206895D01*
X131458017Y-104206895D02*
X131267541Y-104206895D01*
X131267541Y-104206895D02*
X131191350Y-104168800D01*
X131191350Y-104168800D02*
X131153255Y-104130704D01*
X131153255Y-104130704D02*
X131115160Y-104054514D01*
X131115160Y-104054514D02*
X131115160Y-103978323D01*
X131115160Y-103978323D02*
X131153255Y-103902133D01*
X131153255Y-103902133D02*
X131191350Y-103864038D01*
X131191350Y-103864038D02*
X131267541Y-103825942D01*
X131267541Y-103825942D02*
X131419922Y-103787847D01*
X131419922Y-103787847D02*
X131496112Y-103749752D01*
X131496112Y-103749752D02*
X131534207Y-103711657D01*
X131534207Y-103711657D02*
X131572303Y-103635466D01*
X131572303Y-103635466D02*
X131572303Y-103559276D01*
X131572303Y-103559276D02*
X131534207Y-103483085D01*
X131534207Y-103483085D02*
X131496112Y-103444990D01*
X131496112Y-103444990D02*
X131419922Y-103406895D01*
X131419922Y-103406895D02*
X131229445Y-103406895D01*
X131229445Y-103406895D02*
X131115160Y-103444990D01*
X130772302Y-104206895D02*
X130772302Y-103406895D01*
X130772302Y-103406895D02*
X130581826Y-103406895D01*
X130581826Y-103406895D02*
X130467540Y-103444990D01*
X130467540Y-103444990D02*
X130391350Y-103521180D01*
X130391350Y-103521180D02*
X130353255Y-103597371D01*
X130353255Y-103597371D02*
X130315159Y-103749752D01*
X130315159Y-103749752D02*
X130315159Y-103864038D01*
X130315159Y-103864038D02*
X130353255Y-104016419D01*
X130353255Y-104016419D02*
X130391350Y-104092609D01*
X130391350Y-104092609D02*
X130467540Y-104168800D01*
X130467540Y-104168800D02*
X130581826Y-104206895D01*
X130581826Y-104206895D02*
X130772302Y-104206895D01*
X130162779Y-104283085D02*
X129553255Y-104283085D01*
X129400874Y-104168800D02*
X129286588Y-104206895D01*
X129286588Y-104206895D02*
X129096112Y-104206895D01*
X129096112Y-104206895D02*
X129019921Y-104168800D01*
X129019921Y-104168800D02*
X128981826Y-104130704D01*
X128981826Y-104130704D02*
X128943731Y-104054514D01*
X128943731Y-104054514D02*
X128943731Y-103978323D01*
X128943731Y-103978323D02*
X128981826Y-103902133D01*
X128981826Y-103902133D02*
X129019921Y-103864038D01*
X129019921Y-103864038D02*
X129096112Y-103825942D01*
X129096112Y-103825942D02*
X129248493Y-103787847D01*
X129248493Y-103787847D02*
X129324683Y-103749752D01*
X129324683Y-103749752D02*
X129362778Y-103711657D01*
X129362778Y-103711657D02*
X129400874Y-103635466D01*
X129400874Y-103635466D02*
X129400874Y-103559276D01*
X129400874Y-103559276D02*
X129362778Y-103483085D01*
X129362778Y-103483085D02*
X129324683Y-103444990D01*
X129324683Y-103444990D02*
X129248493Y-103406895D01*
X129248493Y-103406895D02*
X129058016Y-103406895D01*
X129058016Y-103406895D02*
X128943731Y-103444990D01*
X128600873Y-103673561D02*
X128600873Y-104206895D01*
X128600873Y-103749752D02*
X128562778Y-103711657D01*
X128562778Y-103711657D02*
X128486588Y-103673561D01*
X128486588Y-103673561D02*
X128372302Y-103673561D01*
X128372302Y-103673561D02*
X128296111Y-103711657D01*
X128296111Y-103711657D02*
X128258016Y-103787847D01*
X128258016Y-103787847D02*
X128258016Y-104206895D01*
X127877063Y-104206895D02*
X127877063Y-103673561D01*
X127877063Y-103406895D02*
X127915159Y-103444990D01*
X127915159Y-103444990D02*
X127877063Y-103483085D01*
X127877063Y-103483085D02*
X127838968Y-103444990D01*
X127838968Y-103444990D02*
X127877063Y-103406895D01*
X127877063Y-103406895D02*
X127877063Y-103483085D01*
X127610397Y-103673561D02*
X127305635Y-103673561D01*
X127496111Y-104206895D02*
X127496111Y-103521180D01*
X127496111Y-103521180D02*
X127458016Y-103444990D01*
X127458016Y-103444990D02*
X127381826Y-103406895D01*
X127381826Y-103406895D02*
X127305635Y-103406895D01*
X127153254Y-103673561D02*
X126848492Y-103673561D01*
X127038968Y-104206895D02*
X127038968Y-103521180D01*
X127038968Y-103521180D02*
X127000873Y-103444990D01*
X127000873Y-103444990D02*
X126924683Y-103406895D01*
X126924683Y-103406895D02*
X126848492Y-103406895D01*
X126277063Y-104168800D02*
X126353254Y-104206895D01*
X126353254Y-104206895D02*
X126505635Y-104206895D01*
X126505635Y-104206895D02*
X126581825Y-104168800D01*
X126581825Y-104168800D02*
X126619921Y-104092609D01*
X126619921Y-104092609D02*
X126619921Y-103787847D01*
X126619921Y-103787847D02*
X126581825Y-103711657D01*
X126581825Y-103711657D02*
X126505635Y-103673561D01*
X126505635Y-103673561D02*
X126353254Y-103673561D01*
X126353254Y-103673561D02*
X126277063Y-103711657D01*
X126277063Y-103711657D02*
X126238968Y-103787847D01*
X126238968Y-103787847D02*
X126238968Y-103864038D01*
X126238968Y-103864038D02*
X126619921Y-103940228D01*
X125896111Y-104206895D02*
X125896111Y-103673561D01*
X125896111Y-103825942D02*
X125858016Y-103749752D01*
X125858016Y-103749752D02*
X125819921Y-103711657D01*
X125819921Y-103711657D02*
X125743730Y-103673561D01*
X125743730Y-103673561D02*
X125667540Y-103673561D01*
%TO.C,LOGO3*%
G36*
X139233810Y-86931115D02*
G01*
X139243753Y-87010658D01*
X139274471Y-87092571D01*
X138929947Y-87254700D01*
X138878843Y-87132050D01*
X138848751Y-87001648D01*
X138838547Y-86858799D01*
X139233810Y-86848664D01*
X139233810Y-86931115D01*
G37*
G36*
X136123810Y-85809753D02*
G01*
X136123810Y-87553810D01*
X135728730Y-87553810D01*
X135728730Y-87062374D01*
X135581801Y-86925240D01*
X135192685Y-87553810D01*
X134716568Y-87553810D01*
X135308002Y-86651623D01*
X134775054Y-86128730D01*
X135242352Y-86128730D01*
X135728730Y-86634960D01*
X135728730Y-85597017D01*
X136123810Y-85809753D01*
G37*
G36*
X138071590Y-86718750D02*
G01*
X138161550Y-86728746D01*
X138254812Y-86739108D01*
X138173020Y-86953810D01*
X138150670Y-86953810D01*
X138130670Y-86943810D01*
X138090858Y-86943810D01*
X138060857Y-86933810D01*
X138020858Y-86933810D01*
X137990857Y-86923810D01*
X137970670Y-86923810D01*
X137948312Y-86912631D01*
X137999361Y-86708432D01*
X138071590Y-86718750D01*
G37*
G36*
X134222210Y-85628900D02*
G01*
X134302584Y-85669087D01*
X134373012Y-85719393D01*
X134423459Y-85779929D01*
X134453628Y-85850323D01*
X134483810Y-85930809D01*
X134483810Y-86128730D01*
X134602540Y-86128730D01*
X134633085Y-86169456D01*
X134672938Y-86199346D01*
X134832938Y-86359346D01*
X134878890Y-86393810D01*
X134483810Y-86393810D01*
X134483810Y-87553810D01*
X134098730Y-87553810D01*
X134098730Y-86393810D01*
X133828730Y-86393810D01*
X133828730Y-86128730D01*
X134098730Y-86128730D01*
X134098730Y-86051583D01*
X134088730Y-86011583D01*
X134088730Y-85971870D01*
X134079067Y-85952544D01*
X134059532Y-85923241D01*
X134020382Y-85903666D01*
X133980958Y-85893810D01*
X133808730Y-85893810D01*
X133808730Y-85609700D01*
X133830670Y-85598730D01*
X134121643Y-85598730D01*
X134222210Y-85628900D01*
G37*
G36*
X136502021Y-86118843D02*
G01*
X136562312Y-86138940D01*
X136632702Y-86179163D01*
X136683057Y-86219447D01*
X136733238Y-86279663D01*
X136773377Y-86329838D01*
X136808730Y-86391707D01*
X136808730Y-86128017D01*
X136851818Y-86138789D01*
X136901768Y-86148779D01*
X136951827Y-86158791D01*
X136991819Y-86168790D01*
X137041523Y-86178730D01*
X137091583Y-86178730D01*
X137131819Y-86188790D01*
X137183810Y-86199188D01*
X137183810Y-87553810D01*
X136788730Y-87553810D01*
X136788730Y-86821551D01*
X136768804Y-86731884D01*
X136748913Y-86662263D01*
X136709177Y-86592725D01*
X136659612Y-86533248D01*
X136590315Y-86493650D01*
X136510832Y-86473779D01*
X136411147Y-86463810D01*
X136301870Y-86463810D01*
X136281870Y-86473810D01*
X136268730Y-86473810D01*
X136268730Y-86108730D01*
X136280218Y-86108730D01*
X136290218Y-86098730D01*
X136431626Y-86098730D01*
X136502021Y-86118843D01*
G37*
G36*
X132783810Y-86981115D02*
G01*
X132793746Y-87060596D01*
X132823578Y-87130206D01*
X132853358Y-87189766D01*
X132892845Y-87229253D01*
X132942165Y-87258845D01*
X133001636Y-87268756D01*
X133081218Y-87278705D01*
X133140812Y-87268771D01*
X133190341Y-87258866D01*
X133239537Y-87229348D01*
X133269238Y-87189746D01*
X133298867Y-87150241D01*
X133308756Y-87090904D01*
X133318750Y-87010955D01*
X133328730Y-86931115D01*
X133328730Y-86128730D01*
X133713810Y-86128730D01*
X133713810Y-87131499D01*
X133693744Y-87241864D01*
X133663624Y-87342263D01*
X133613269Y-87432902D01*
X133542728Y-87493366D01*
X133452327Y-87543588D01*
X133341805Y-87583778D01*
X133201150Y-87593825D01*
X133140882Y-87583780D01*
X133070684Y-87573752D01*
X133010396Y-87553656D01*
X132960229Y-87533589D01*
X132899893Y-87503422D01*
X132849463Y-87463077D01*
X132809218Y-87412771D01*
X132769911Y-87353810D01*
X132763810Y-87353810D01*
X132763810Y-87553810D01*
X132388730Y-87553810D01*
X132388730Y-86128730D01*
X132783810Y-86128730D01*
X132783810Y-86981115D01*
G37*
G36*
X131491884Y-86108797D02*
G01*
X131552073Y-86128860D01*
X131612396Y-86148968D01*
X131672771Y-86189218D01*
X131722967Y-86229374D01*
X131763244Y-86269652D01*
X131802629Y-86328730D01*
X131808730Y-86328730D01*
X131808730Y-86128730D01*
X132183810Y-86128730D01*
X132183810Y-87553810D01*
X131788730Y-87553810D01*
X131788730Y-86711406D01*
X131778788Y-86621928D01*
X131749002Y-86552427D01*
X131719179Y-86502722D01*
X131679573Y-86453214D01*
X131630376Y-86423696D01*
X131570904Y-86413784D01*
X131491323Y-86403836D01*
X131431728Y-86413769D01*
X131382199Y-86423675D01*
X131333004Y-86453193D01*
X131303381Y-86492689D01*
X131273696Y-86542165D01*
X131263780Y-86601658D01*
X131253788Y-86671607D01*
X131243810Y-86751426D01*
X131243810Y-87553810D01*
X130848730Y-87553810D01*
X130848730Y-86681172D01*
X130858748Y-86550945D01*
X130878796Y-86440676D01*
X130908935Y-86340213D01*
X130959269Y-86259678D01*
X131029725Y-86189222D01*
X131120305Y-86138900D01*
X131230841Y-86108754D01*
X131371179Y-86098730D01*
X131431480Y-86098730D01*
X131491884Y-86108797D01*
G37*
G36*
X139611688Y-86108765D02*
G01*
X139672163Y-86118844D01*
X139722577Y-86149092D01*
X139772723Y-86179180D01*
X139822967Y-86219374D01*
X139863166Y-86259573D01*
X139898730Y-86304030D01*
X139898730Y-86128172D01*
X139951768Y-86138779D01*
X140001827Y-86148791D01*
X140041819Y-86158790D01*
X140091827Y-86168791D01*
X140131582Y-86178730D01*
X140181522Y-86178730D01*
X140231827Y-86188791D01*
X140273810Y-86199287D01*
X140273810Y-88052491D01*
X140222967Y-88093166D01*
X140183066Y-88133066D01*
X140132967Y-88183166D01*
X140082857Y-88223253D01*
X139982967Y-88303165D01*
X139888730Y-88397402D01*
X139888730Y-87373810D01*
X139882491Y-87373810D01*
X139843253Y-87422857D01*
X139802968Y-87473213D01*
X139752577Y-87503448D01*
X139702493Y-87533498D01*
X139642064Y-87563713D01*
X139581688Y-87573775D01*
X139521688Y-87583775D01*
X139461312Y-87593838D01*
X139310695Y-87573756D01*
X139190094Y-87533555D01*
X139079615Y-87453207D01*
X138989215Y-87362807D01*
X138927749Y-87250120D01*
X139272568Y-87087852D01*
X139303471Y-87159955D01*
X139343094Y-87209484D01*
X139402450Y-87258947D01*
X139481739Y-87278770D01*
X139561289Y-87288713D01*
X139650776Y-87278770D01*
X139720057Y-87258976D01*
X139779554Y-87209394D01*
X139829127Y-87159821D01*
X139858857Y-87090453D01*
X139878806Y-87010654D01*
X139898730Y-86930958D01*
X139898730Y-86761425D01*
X139888788Y-86681883D01*
X139858918Y-86602232D01*
X139829080Y-86532610D01*
X139779484Y-86473094D01*
X139730000Y-86433506D01*
X139650658Y-86403753D01*
X139571252Y-86393828D01*
X139481928Y-86403752D01*
X139412481Y-86433515D01*
X139352986Y-86473179D01*
X139303461Y-86532610D01*
X139273622Y-86602232D01*
X139243753Y-86681883D01*
X139233810Y-86761425D01*
X139233810Y-86853746D01*
X138838550Y-86863881D01*
X138848748Y-86710918D01*
X138878810Y-86570629D01*
X138918943Y-86440195D01*
X138989241Y-86329728D01*
X139079614Y-86229313D01*
X139190147Y-86158974D01*
X139330748Y-86108759D01*
X139481185Y-86098730D01*
X139551480Y-86098730D01*
X139611688Y-86108765D01*
G37*
G36*
X141321746Y-86118775D02*
G01*
X141422102Y-86138846D01*
X141522686Y-86189138D01*
X141593061Y-86249460D01*
X141663467Y-86329924D01*
X141703770Y-86430680D01*
X141713822Y-86551305D01*
X141703753Y-86641925D01*
X141673513Y-86712485D01*
X141633102Y-86773102D01*
X141572606Y-86813432D01*
X141502404Y-86853547D01*
X141432217Y-86883628D01*
X141351995Y-86913711D01*
X141261795Y-86933755D01*
X141161819Y-86953751D01*
X141081886Y-86973734D01*
X141001986Y-86993709D01*
X140942337Y-87013592D01*
X140892689Y-87043381D01*
X140853274Y-87072942D01*
X140833666Y-87112158D01*
X140823888Y-87151270D01*
X140833734Y-87190654D01*
X140843564Y-87229972D01*
X140872938Y-87259346D01*
X140912610Y-87289100D01*
X140952158Y-87308874D01*
X140991582Y-87318730D01*
X141031583Y-87318730D01*
X141071374Y-87328678D01*
X141130812Y-87318771D01*
X141180812Y-87308771D01*
X141240241Y-87298867D01*
X141279746Y-87269238D01*
X141319456Y-87239456D01*
X141349038Y-87200014D01*
X141368730Y-87150782D01*
X141368730Y-87088730D01*
X141744231Y-87088730D01*
X141723736Y-87221943D01*
X141683495Y-87322546D01*
X141613126Y-87413021D01*
X141532697Y-87483396D01*
X141432181Y-87533654D01*
X141321814Y-87563754D01*
X141201585Y-87583793D01*
X141081270Y-87593819D01*
X140960955Y-87583793D01*
X140840726Y-87563754D01*
X140730359Y-87533654D01*
X140629843Y-87483396D01*
X140549397Y-87413007D01*
X140489012Y-87332492D01*
X140448798Y-87221903D01*
X140428708Y-87091324D01*
X140438787Y-87000615D01*
X140469027Y-86930055D01*
X140509361Y-86869555D01*
X140569816Y-86819176D01*
X140640010Y-86779065D01*
X140710344Y-86738874D01*
X140800686Y-86718798D01*
X140960654Y-86678806D01*
X141040803Y-86658769D01*
X141120703Y-86648782D01*
X141180296Y-86628917D01*
X141239930Y-86599100D01*
X141279456Y-86569456D01*
X141308931Y-86530156D01*
X141318730Y-86490958D01*
X141318730Y-86452039D01*
X141299157Y-86422679D01*
X141279641Y-86393405D01*
X141250555Y-86383710D01*
X141210559Y-86373711D01*
X141180857Y-86363810D01*
X141011758Y-86363810D01*
X140962318Y-86383586D01*
X140922544Y-86403473D01*
X140893102Y-86423102D01*
X140873530Y-86452460D01*
X140853716Y-86501994D01*
X140843352Y-86553810D01*
X140468272Y-86553810D01*
X140488827Y-86430476D01*
X140539101Y-86329929D01*
X140599456Y-86249456D01*
X140679976Y-86189066D01*
X140770386Y-86148883D01*
X140870676Y-86118796D01*
X140981041Y-86098730D01*
X141211499Y-86098730D01*
X141321746Y-86118775D01*
G37*
G36*
X134532127Y-83318844D02*
G01*
X134642741Y-83379179D01*
X134733171Y-83459561D01*
X134783559Y-83530104D01*
X134813810Y-83620858D01*
X134813810Y-83701549D01*
X134793669Y-83792181D01*
X134743359Y-83882739D01*
X134673175Y-83962950D01*
X134593175Y-84052950D01*
X134523447Y-84132641D01*
X134493810Y-84201793D01*
X134493810Y-84270857D01*
X134513537Y-84330038D01*
X134553008Y-84379376D01*
X134612313Y-84418913D01*
X134691582Y-84438730D01*
X134771017Y-84438730D01*
X134820547Y-84428824D01*
X134870081Y-84409011D01*
X134899651Y-84389297D01*
X134929182Y-84359766D01*
X134948917Y-84320296D01*
X134958730Y-84290857D01*
X134958730Y-84261683D01*
X134948967Y-84232394D01*
X134929297Y-84202889D01*
X134889899Y-84163491D01*
X134860296Y-84153623D01*
X134840134Y-84143542D01*
X134819765Y-84133358D01*
X134806982Y-84120574D01*
X134830670Y-84108730D01*
X134850958Y-84108730D01*
X134890957Y-84098730D01*
X134971480Y-84098730D01*
X135031958Y-84108810D01*
X135082213Y-84128912D01*
X135132525Y-84149036D01*
X135172689Y-84179160D01*
X135223121Y-84209419D01*
X135253498Y-84260047D01*
X135283623Y-84320296D01*
X135303765Y-84380722D01*
X135313794Y-84470990D01*
X135323810Y-84561129D01*
X135323810Y-85843810D01*
X135309911Y-85843810D01*
X135289297Y-85812889D01*
X135259346Y-85782938D01*
X135229347Y-85742939D01*
X135179392Y-85692985D01*
X135129394Y-85632986D01*
X135069325Y-85572917D01*
X135019326Y-85502918D01*
X134949474Y-85433066D01*
X134889392Y-85372985D01*
X134839484Y-85313094D01*
X134789683Y-85273253D01*
X134739818Y-85233361D01*
X134690376Y-85203696D01*
X134631062Y-85193810D01*
X134441060Y-85193810D01*
X134320726Y-85173754D01*
X134210462Y-85143682D01*
X134110138Y-85103553D01*
X134009768Y-85043331D01*
X133929534Y-84973126D01*
X133849362Y-84892954D01*
X133779145Y-84802675D01*
X133678903Y-84622240D01*
X133628749Y-84441685D01*
X133618717Y-84261104D01*
X133648810Y-84100605D01*
X133698957Y-83960194D01*
X133769203Y-83839772D01*
X133849697Y-83749217D01*
X133933810Y-83707160D01*
X133933810Y-83790857D01*
X133943680Y-83820467D01*
X133953405Y-83849641D01*
X133982394Y-83868967D01*
X134011683Y-83878730D01*
X134080670Y-83878730D01*
X134159996Y-83839067D01*
X134189798Y-83819199D01*
X134229802Y-83789196D01*
X134259652Y-83769297D01*
X134289183Y-83739766D01*
X134309069Y-83699993D01*
X134328913Y-83670228D01*
X134338829Y-83630559D01*
X134348593Y-83601270D01*
X134338917Y-83572244D01*
X134328917Y-83552244D01*
X134318967Y-83522394D01*
X134299399Y-83493042D01*
X134259930Y-83463440D01*
X134220439Y-83443695D01*
X134170713Y-83433749D01*
X134130958Y-83423810D01*
X134101683Y-83423810D01*
X134071682Y-83433810D01*
X134035138Y-83433810D01*
X134049602Y-83419346D01*
X134089929Y-83389101D01*
X134150253Y-83358939D01*
X134230422Y-83328875D01*
X134320858Y-83298730D01*
X134421499Y-83298730D01*
X134532127Y-83318844D01*
G37*
G36*
X138191728Y-86108771D02*
G01*
X138251884Y-86118797D01*
X138311924Y-86138811D01*
X138361997Y-86148825D01*
X138412402Y-86168987D01*
X138462577Y-86199092D01*
X138512689Y-86229159D01*
X138553084Y-86259456D01*
X138583381Y-86299851D01*
X138613382Y-86349852D01*
X138643549Y-86390076D01*
X138663743Y-86450656D01*
X138673775Y-86510852D01*
X138684268Y-86573810D01*
X138288730Y-86573810D01*
X138288730Y-86521870D01*
X138278917Y-86502244D01*
X138268917Y-86472244D01*
X138259182Y-86452774D01*
X138219766Y-86413358D01*
X138120670Y-86363810D01*
X137941870Y-86363810D01*
X137921870Y-86373810D01*
X137901870Y-86373810D01*
X137862406Y-86393542D01*
X137843164Y-86403164D01*
X137833358Y-86422775D01*
X137823358Y-86432775D01*
X137813542Y-86452406D01*
X137793810Y-86491870D01*
X137793810Y-86600424D01*
X137823004Y-86639348D01*
X137872338Y-86668949D01*
X137932021Y-86688843D01*
X138004330Y-86709503D01*
X137953253Y-86913810D01*
X137910670Y-86913810D01*
X137890670Y-86903810D01*
X137870670Y-86903810D01*
X137830670Y-86883810D01*
X137810218Y-86883810D01*
X137793810Y-86867402D01*
X137793810Y-87090857D01*
X137803623Y-87120296D01*
X137813623Y-87140296D01*
X137823680Y-87170467D01*
X137833491Y-87199899D01*
X137853244Y-87219652D01*
X137873244Y-87249652D01*
X137892889Y-87269297D01*
X137922313Y-87288913D01*
X137962157Y-87298873D01*
X138001870Y-87318730D01*
X138051522Y-87318730D01*
X138101523Y-87328730D01*
X138150670Y-87328730D01*
X138170670Y-87318730D01*
X138190670Y-87318730D01*
X138210670Y-87308730D01*
X138230670Y-87308730D01*
X138250134Y-87298998D01*
X138269766Y-87289183D01*
X138279765Y-87279182D01*
X138299377Y-87269377D01*
X138309182Y-87249765D01*
X138319183Y-87239766D01*
X138328730Y-87220670D01*
X138328730Y-87200858D01*
X138338730Y-87170858D01*
X138338730Y-87121870D01*
X138328730Y-87101870D01*
X138328730Y-87081870D01*
X138299377Y-87023164D01*
X138279765Y-87013358D01*
X138269766Y-87003358D01*
X138250134Y-86993542D01*
X138229765Y-86983358D01*
X138219766Y-86973358D01*
X138200296Y-86963623D01*
X138167953Y-86952842D01*
X138249596Y-86738528D01*
X138341720Y-86748764D01*
X138422026Y-86768841D01*
X138502353Y-86798963D01*
X138572740Y-86839184D01*
X138643257Y-86899628D01*
X138683600Y-86970228D01*
X138713737Y-87060638D01*
X138733856Y-87171293D01*
X138723810Y-87221523D01*
X138723810Y-87271870D01*
X138703695Y-87312102D01*
X138693662Y-87362261D01*
X138673344Y-87392738D01*
X138643342Y-87432742D01*
X138623244Y-87462888D01*
X138592775Y-87493358D01*
X138552544Y-87513474D01*
X138522547Y-87533471D01*
X138482311Y-87553589D01*
X138432053Y-87573692D01*
X138391583Y-87583810D01*
X138341523Y-87583810D01*
X138291522Y-87593810D01*
X138180858Y-87593810D01*
X138150857Y-87583810D01*
X138110858Y-87583810D01*
X138080857Y-87573810D01*
X138050858Y-87573810D01*
X138020467Y-87563680D01*
X137960467Y-87543680D01*
X137930144Y-87533572D01*
X137900146Y-87513573D01*
X137870144Y-87503572D01*
X137839652Y-87483244D01*
X137819652Y-87463244D01*
X137789438Y-87443102D01*
X137773810Y-87419659D01*
X137773810Y-87472322D01*
X137763810Y-87482322D01*
X137763810Y-87512322D01*
X137753810Y-87522322D01*
X137753810Y-87532322D01*
X137743810Y-87542322D01*
X137743810Y-87553810D01*
X137348730Y-87553810D01*
X137348730Y-87540218D01*
X137359182Y-87529766D01*
X137368730Y-87510670D01*
X137368730Y-87480670D01*
X137378730Y-87460670D01*
X137378730Y-87440670D01*
X137388730Y-87420670D01*
X137388730Y-87330670D01*
X137398730Y-87310670D01*
X137398730Y-86441018D01*
X137408825Y-86390543D01*
X137428951Y-86340229D01*
X137449101Y-86299929D01*
X137479456Y-86259456D01*
X137519746Y-86229238D01*
X137559746Y-86199238D01*
X137600015Y-86169036D01*
X137650543Y-86148825D01*
X137700547Y-86138825D01*
X137750543Y-86118825D01*
X137801018Y-86108730D01*
X137861017Y-86108730D01*
X137911018Y-86098730D01*
X138141522Y-86098730D01*
X138191728Y-86108771D01*
G37*
%TD*%
%LPC*%
D13*
%TO.C,U1*%
X169696100Y-108514200D03*
X169696100Y-105214200D03*
X169696100Y-107414200D03*
X169696100Y-103014200D03*
X169696100Y-101914200D03*
X169696100Y-109614200D03*
D14*
X169896100Y-104114200D03*
D15*
X169896100Y-106314200D03*
%TD*%
D16*
%TO.C,JP1*%
X127596900Y-117398800D03*
X130136900Y-117398800D03*
X132676900Y-117398800D03*
D17*
X135216900Y-117398800D03*
D16*
X137756900Y-117398800D03*
X140296900Y-117398800D03*
X142836900Y-117398800D03*
X145376900Y-117398800D03*
%TD*%
D18*
%TO.C,Card1*%
X141610000Y-95450000D03*
X133610000Y-95450000D03*
%TD*%
%LPD*%
M02*
