M48
; DRILL file {KiCad 7.0.9} date Sun Dec  3 04:53:21 2023
; FORMAT={-:-/ absolute / metric / decimal}
; #@! TF.CreationDate,2023-12-03T04:53:21-05:00
; #@! TF.GenerationSoftware,Kicad,Pcbnew,7.0.9
; #@! TF.FileFunction,Plated,1,16,PTH
FMAT,2
METRIC
; #@! TA.AperFunction,Plated,PTH,ViaDrill
T1C0.300
; #@! TA.AperFunction,Plated,PTH,ComponentDrill
T2C1.000
; #@! TA.AperFunction,Plated,PTH,ComponentDrill
T3C1.016
%
G90
G05
T1
X128.7Y-109.13
X128.87Y-115.94
X129.05Y-112.5
X129.57Y-109.6
X131.41Y-115.95
X131.48Y-112.6
X132.76Y-107.79
X133.85Y-115.81
X134.75Y-108.06
X135.52Y-108.6
X135.96Y-107.83
X136.59Y-108.03
X136.59Y-115.78
X136.69Y-111.24
X136.77Y-104.79
X137.73Y-104.97
X137.74Y-111.57
X138.82Y-105.21
X138.84Y-112.71
X139.03Y-118.51
X139.59Y-104.6
X139.64Y-111.94
X139.88Y-108.09
X139.88Y-109.15
X141.48Y-114.19
X141.59Y-116.13
X141.61Y-113.02
X142.25Y-104.6
X143.11Y-103.74
X143.22Y-104.65
X144.1Y-116.11
X144.31Y-113.46
X144.47Y-112.54
X145.77Y-105.69
X146.29Y-102.41
X146.47Y-109.12
X146.49Y-108.03
X146.5Y-106.81
X153.75Y-103.95
T2
X133.61Y-95.45
X141.61Y-95.45
T3
X127.597Y-117.399
X130.137Y-117.399
X132.677Y-117.399
X135.217Y-117.399
X137.757Y-117.399
X140.297Y-117.399
X142.837Y-117.399
X145.377Y-117.399
T0
M30
