%TF.GenerationSoftware,KiCad,Pcbnew,7.0.9*%
%TF.CreationDate,2023-12-03T04:53:17-05:00*%
%TF.ProjectId,SparkFun_MicroSD_Sniffer_v10,53706172-6b46-4756-9e5f-4d6963726f53,rev?*%
%TF.SameCoordinates,Original*%
%TF.FileFunction,Legend,Top*%
%TF.FilePolarity,Positive*%
%FSLAX46Y46*%
G04 Gerber Fmt 4.6, Leading zero omitted, Abs format (unit mm)*
G04 Created by KiCad (PCBNEW 7.0.9) date 2023-12-03 04:53:17*
%MOMM*%
%LPD*%
G01*
G04 APERTURE LIST*
G04 Aperture macros list*
%AMRoundRect*
0 Rectangle with rounded corners*
0 $1 Rounding radius*
0 $2 $3 $4 $5 $6 $7 $8 $9 X,Y pos of 4 corners*
0 Add a 4 corners polygon primitive as box body*
4,1,4,$2,$3,$4,$5,$6,$7,$8,$9,$2,$3,0*
0 Add four circle primitives for the rounded corners*
1,1,$1+$1,$2,$3*
1,1,$1+$1,$4,$5*
1,1,$1+$1,$6,$7*
1,1,$1+$1,$8,$9*
0 Add four rect primitives between the rounded corners*
20,1,$1+$1,$2,$3,$4,$5,0*
20,1,$1+$1,$4,$5,$6,$7,0*
20,1,$1+$1,$6,$7,$8,$9,0*
20,1,$1+$1,$8,$9,$2,$3,0*%
G04 Aperture macros list end*
%ADD10C,0.100000*%
%ADD11C,0.152400*%
%ADD12C,0.200000*%
%ADD13C,0.127000*%
%ADD14C,0.203200*%
%ADD15C,0.250000*%
%ADD16C,2.082800*%
%ADD17RoundRect,0.101600X0.939800X-0.939800X0.939800X0.939800X-0.939800X0.939800X-0.939800X-0.939800X0*%
%ADD18RoundRect,0.601600X0.000000X0.000000X0.000000X0.000000X0.000000X0.000000X0.000000X0.000000X0*%
%ADD19C,1.000000*%
%ADD20R,0.700000X1.600000*%
%ADD21R,1.200000X1.500000*%
%ADD22R,1.200000X2.200000*%
%ADD23R,1.600000X1.500000*%
G04 APERTURE END LIST*
D10*
X156880000Y-100200000D02*
X172480000Y-100200000D01*
X172480000Y-112640000D01*
X156880000Y-112640000D01*
X156880000Y-100200000D01*
G36*
X156880000Y-100200000D02*
G01*
X172480000Y-100200000D01*
X172480000Y-112640000D01*
X156880000Y-112640000D01*
X156880000Y-100200000D01*
G37*
X133169598Y-92812419D02*
X133169598Y-93526704D01*
X133169598Y-93526704D02*
X133121979Y-93669561D01*
X133121979Y-93669561D02*
X133026741Y-93764800D01*
X133026741Y-93764800D02*
X132883884Y-93812419D01*
X132883884Y-93812419D02*
X132788646Y-93812419D01*
X134121979Y-93812419D02*
X133645789Y-93812419D01*
X133645789Y-93812419D02*
X133645789Y-92812419D01*
X135026741Y-93717180D02*
X134979122Y-93764800D01*
X134979122Y-93764800D02*
X134836265Y-93812419D01*
X134836265Y-93812419D02*
X134741027Y-93812419D01*
X134741027Y-93812419D02*
X134598170Y-93764800D01*
X134598170Y-93764800D02*
X134502932Y-93669561D01*
X134502932Y-93669561D02*
X134455313Y-93574323D01*
X134455313Y-93574323D02*
X134407694Y-93383847D01*
X134407694Y-93383847D02*
X134407694Y-93240990D01*
X134407694Y-93240990D02*
X134455313Y-93050514D01*
X134455313Y-93050514D02*
X134502932Y-92955276D01*
X134502932Y-92955276D02*
X134598170Y-92860038D01*
X134598170Y-92860038D02*
X134741027Y-92812419D01*
X134741027Y-92812419D02*
X134836265Y-92812419D01*
X134836265Y-92812419D02*
X134979122Y-92860038D01*
X134979122Y-92860038D02*
X135026741Y-92907657D01*
X135741027Y-92812419D02*
X135741027Y-93526704D01*
X135741027Y-93526704D02*
X135693408Y-93669561D01*
X135693408Y-93669561D02*
X135598170Y-93764800D01*
X135598170Y-93764800D02*
X135455313Y-93812419D01*
X135455313Y-93812419D02*
X135360075Y-93812419D01*
X136693408Y-93812419D02*
X136217218Y-93812419D01*
X136217218Y-93812419D02*
X136217218Y-92812419D01*
X137598170Y-93717180D02*
X137550551Y-93764800D01*
X137550551Y-93764800D02*
X137407694Y-93812419D01*
X137407694Y-93812419D02*
X137312456Y-93812419D01*
X137312456Y-93812419D02*
X137169599Y-93764800D01*
X137169599Y-93764800D02*
X137074361Y-93669561D01*
X137074361Y-93669561D02*
X137026742Y-93574323D01*
X137026742Y-93574323D02*
X136979123Y-93383847D01*
X136979123Y-93383847D02*
X136979123Y-93240990D01*
X136979123Y-93240990D02*
X137026742Y-93050514D01*
X137026742Y-93050514D02*
X137074361Y-92955276D01*
X137074361Y-92955276D02*
X137169599Y-92860038D01*
X137169599Y-92860038D02*
X137312456Y-92812419D01*
X137312456Y-92812419D02*
X137407694Y-92812419D01*
X137407694Y-92812419D02*
X137550551Y-92860038D01*
X137550551Y-92860038D02*
X137598170Y-92907657D01*
X138312456Y-92812419D02*
X138312456Y-93526704D01*
X138312456Y-93526704D02*
X138264837Y-93669561D01*
X138264837Y-93669561D02*
X138169599Y-93764800D01*
X138169599Y-93764800D02*
X138026742Y-93812419D01*
X138026742Y-93812419D02*
X137931504Y-93812419D01*
X139264837Y-93812419D02*
X138788647Y-93812419D01*
X138788647Y-93812419D02*
X138788647Y-92812419D01*
X140169599Y-93717180D02*
X140121980Y-93764800D01*
X140121980Y-93764800D02*
X139979123Y-93812419D01*
X139979123Y-93812419D02*
X139883885Y-93812419D01*
X139883885Y-93812419D02*
X139741028Y-93764800D01*
X139741028Y-93764800D02*
X139645790Y-93669561D01*
X139645790Y-93669561D02*
X139598171Y-93574323D01*
X139598171Y-93574323D02*
X139550552Y-93383847D01*
X139550552Y-93383847D02*
X139550552Y-93240990D01*
X139550552Y-93240990D02*
X139598171Y-93050514D01*
X139598171Y-93050514D02*
X139645790Y-92955276D01*
X139645790Y-92955276D02*
X139741028Y-92860038D01*
X139741028Y-92860038D02*
X139883885Y-92812419D01*
X139883885Y-92812419D02*
X139979123Y-92812419D01*
X139979123Y-92812419D02*
X140121980Y-92860038D01*
X140121980Y-92860038D02*
X140169599Y-92907657D01*
X140883885Y-92812419D02*
X140883885Y-93526704D01*
X140883885Y-93526704D02*
X140836266Y-93669561D01*
X140836266Y-93669561D02*
X140741028Y-93764800D01*
X140741028Y-93764800D02*
X140598171Y-93812419D01*
X140598171Y-93812419D02*
X140502933Y-93812419D01*
X141836266Y-93812419D02*
X141360076Y-93812419D01*
X141360076Y-93812419D02*
X141360076Y-92812419D01*
X142741028Y-93717180D02*
X142693409Y-93764800D01*
X142693409Y-93764800D02*
X142550552Y-93812419D01*
X142550552Y-93812419D02*
X142455314Y-93812419D01*
X142455314Y-93812419D02*
X142312457Y-93764800D01*
X142312457Y-93764800D02*
X142217219Y-93669561D01*
X142217219Y-93669561D02*
X142169600Y-93574323D01*
X142169600Y-93574323D02*
X142121981Y-93383847D01*
X142121981Y-93383847D02*
X142121981Y-93240990D01*
X142121981Y-93240990D02*
X142169600Y-93050514D01*
X142169600Y-93050514D02*
X142217219Y-92955276D01*
X142217219Y-92955276D02*
X142312457Y-92860038D01*
X142312457Y-92860038D02*
X142455314Y-92812419D01*
X142455314Y-92812419D02*
X142550552Y-92812419D01*
X142550552Y-92812419D02*
X142693409Y-92860038D01*
X142693409Y-92860038D02*
X142741028Y-92907657D01*
D11*
X137287687Y-115565289D02*
X138151287Y-115277422D01*
X138151287Y-115277422D02*
X137287687Y-114989556D01*
X138069040Y-114208203D02*
X138110164Y-114249327D01*
X138110164Y-114249327D02*
X138151287Y-114372698D01*
X138151287Y-114372698D02*
X138151287Y-114454946D01*
X138151287Y-114454946D02*
X138110164Y-114578317D01*
X138110164Y-114578317D02*
X138027916Y-114660565D01*
X138027916Y-114660565D02*
X137945668Y-114701688D01*
X137945668Y-114701688D02*
X137781173Y-114742812D01*
X137781173Y-114742812D02*
X137657802Y-114742812D01*
X137657802Y-114742812D02*
X137493306Y-114701688D01*
X137493306Y-114701688D02*
X137411059Y-114660565D01*
X137411059Y-114660565D02*
X137328811Y-114578317D01*
X137328811Y-114578317D02*
X137287687Y-114454946D01*
X137287687Y-114454946D02*
X137287687Y-114372698D01*
X137287687Y-114372698D02*
X137328811Y-114249327D01*
X137328811Y-114249327D02*
X137369935Y-114208203D01*
X138069040Y-113344603D02*
X138110164Y-113385727D01*
X138110164Y-113385727D02*
X138151287Y-113509098D01*
X138151287Y-113509098D02*
X138151287Y-113591346D01*
X138151287Y-113591346D02*
X138110164Y-113714717D01*
X138110164Y-113714717D02*
X138027916Y-113796965D01*
X138027916Y-113796965D02*
X137945668Y-113838088D01*
X137945668Y-113838088D02*
X137781173Y-113879212D01*
X137781173Y-113879212D02*
X137657802Y-113879212D01*
X137657802Y-113879212D02*
X137493306Y-113838088D01*
X137493306Y-113838088D02*
X137411059Y-113796965D01*
X137411059Y-113796965D02*
X137328811Y-113714717D01*
X137328811Y-113714717D02*
X137287687Y-113591346D01*
X137287687Y-113591346D02*
X137287687Y-113509098D01*
X137287687Y-113509098D02*
X137328811Y-113385727D01*
X137328811Y-113385727D02*
X137369935Y-113344603D01*
X127991287Y-115441917D02*
X127127687Y-115441917D01*
X127127687Y-115441917D02*
X127127687Y-115236298D01*
X127127687Y-115236298D02*
X127168811Y-115112927D01*
X127168811Y-115112927D02*
X127251059Y-115030679D01*
X127251059Y-115030679D02*
X127333306Y-114989556D01*
X127333306Y-114989556D02*
X127497802Y-114948432D01*
X127497802Y-114948432D02*
X127621173Y-114948432D01*
X127621173Y-114948432D02*
X127785668Y-114989556D01*
X127785668Y-114989556D02*
X127867916Y-115030679D01*
X127867916Y-115030679D02*
X127950164Y-115112927D01*
X127950164Y-115112927D02*
X127991287Y-115236298D01*
X127991287Y-115236298D02*
X127991287Y-115441917D01*
X127744544Y-114619441D02*
X127744544Y-114208203D01*
X127991287Y-114701689D02*
X127127687Y-114413822D01*
X127127687Y-114413822D02*
X127991287Y-114125956D01*
X127127687Y-113961460D02*
X127127687Y-113467974D01*
X127991287Y-113714717D02*
X127127687Y-113714717D01*
X127209935Y-113221231D02*
X127168811Y-113180107D01*
X127168811Y-113180107D02*
X127127687Y-113097860D01*
X127127687Y-113097860D02*
X127127687Y-112892241D01*
X127127687Y-112892241D02*
X127168811Y-112809993D01*
X127168811Y-112809993D02*
X127209935Y-112768869D01*
X127209935Y-112768869D02*
X127292183Y-112727746D01*
X127292183Y-112727746D02*
X127374430Y-112727746D01*
X127374430Y-112727746D02*
X127497802Y-112768869D01*
X127497802Y-112768869D02*
X127991287Y-113262355D01*
X127991287Y-113262355D02*
X127991287Y-112727746D01*
X132989040Y-114948432D02*
X133030164Y-114989556D01*
X133030164Y-114989556D02*
X133071287Y-115112927D01*
X133071287Y-115112927D02*
X133071287Y-115195175D01*
X133071287Y-115195175D02*
X133030164Y-115318546D01*
X133030164Y-115318546D02*
X132947916Y-115400794D01*
X132947916Y-115400794D02*
X132865668Y-115441917D01*
X132865668Y-115441917D02*
X132701173Y-115483041D01*
X132701173Y-115483041D02*
X132577802Y-115483041D01*
X132577802Y-115483041D02*
X132413306Y-115441917D01*
X132413306Y-115441917D02*
X132331059Y-115400794D01*
X132331059Y-115400794D02*
X132248811Y-115318546D01*
X132248811Y-115318546D02*
X132207687Y-115195175D01*
X132207687Y-115195175D02*
X132207687Y-115112927D01*
X132207687Y-115112927D02*
X132248811Y-114989556D01*
X132248811Y-114989556D02*
X132289935Y-114948432D01*
X133071287Y-114578317D02*
X132207687Y-114578317D01*
X132207687Y-114578317D02*
X132824544Y-114290451D01*
X132824544Y-114290451D02*
X132207687Y-114002584D01*
X132207687Y-114002584D02*
X133071287Y-114002584D01*
X133071287Y-113591346D02*
X132207687Y-113591346D01*
X132207687Y-113591346D02*
X132207687Y-113385727D01*
X132207687Y-113385727D02*
X132248811Y-113262356D01*
X132248811Y-113262356D02*
X132331059Y-113180108D01*
X132331059Y-113180108D02*
X132413306Y-113138985D01*
X132413306Y-113138985D02*
X132577802Y-113097861D01*
X132577802Y-113097861D02*
X132701173Y-113097861D01*
X132701173Y-113097861D02*
X132865668Y-113138985D01*
X132865668Y-113138985D02*
X132947916Y-113180108D01*
X132947916Y-113180108D02*
X133030164Y-113262356D01*
X133030164Y-113262356D02*
X133071287Y-113385727D01*
X133071287Y-113385727D02*
X133071287Y-113591346D01*
X134788811Y-114989556D02*
X134747687Y-115071803D01*
X134747687Y-115071803D02*
X134747687Y-115195175D01*
X134747687Y-115195175D02*
X134788811Y-115318546D01*
X134788811Y-115318546D02*
X134871059Y-115400794D01*
X134871059Y-115400794D02*
X134953306Y-115441917D01*
X134953306Y-115441917D02*
X135117802Y-115483041D01*
X135117802Y-115483041D02*
X135241173Y-115483041D01*
X135241173Y-115483041D02*
X135405668Y-115441917D01*
X135405668Y-115441917D02*
X135487916Y-115400794D01*
X135487916Y-115400794D02*
X135570164Y-115318546D01*
X135570164Y-115318546D02*
X135611287Y-115195175D01*
X135611287Y-115195175D02*
X135611287Y-115112927D01*
X135611287Y-115112927D02*
X135570164Y-114989556D01*
X135570164Y-114989556D02*
X135529040Y-114948432D01*
X135529040Y-114948432D02*
X135241173Y-114948432D01*
X135241173Y-114948432D02*
X135241173Y-115112927D01*
X135611287Y-114578317D02*
X134747687Y-114578317D01*
X134747687Y-114578317D02*
X135611287Y-114084832D01*
X135611287Y-114084832D02*
X134747687Y-114084832D01*
X135611287Y-113673593D02*
X134747687Y-113673593D01*
X134747687Y-113673593D02*
X134747687Y-113467974D01*
X134747687Y-113467974D02*
X134788811Y-113344603D01*
X134788811Y-113344603D02*
X134871059Y-113262355D01*
X134871059Y-113262355D02*
X134953306Y-113221232D01*
X134953306Y-113221232D02*
X135117802Y-113180108D01*
X135117802Y-113180108D02*
X135241173Y-113180108D01*
X135241173Y-113180108D02*
X135405668Y-113221232D01*
X135405668Y-113221232D02*
X135487916Y-113262355D01*
X135487916Y-113262355D02*
X135570164Y-113344603D01*
X135570164Y-113344603D02*
X135611287Y-113467974D01*
X135611287Y-113467974D02*
X135611287Y-113673593D01*
D12*
X132887856Y-99237219D02*
X132411665Y-99237219D01*
X132411665Y-99237219D02*
X132536665Y-98237219D01*
X133804523Y-99141980D02*
X133750951Y-99189600D01*
X133750951Y-99189600D02*
X133602142Y-99237219D01*
X133602142Y-99237219D02*
X133506904Y-99237219D01*
X133506904Y-99237219D02*
X133369999Y-99189600D01*
X133369999Y-99189600D02*
X133286666Y-99094361D01*
X133286666Y-99094361D02*
X133250951Y-98999123D01*
X133250951Y-98999123D02*
X133227142Y-98808647D01*
X133227142Y-98808647D02*
X133244999Y-98665790D01*
X133244999Y-98665790D02*
X133316427Y-98475314D01*
X133316427Y-98475314D02*
X133375951Y-98380076D01*
X133375951Y-98380076D02*
X133483094Y-98284838D01*
X133483094Y-98284838D02*
X133631904Y-98237219D01*
X133631904Y-98237219D02*
X133727142Y-98237219D01*
X133727142Y-98237219D02*
X133864047Y-98284838D01*
X133864047Y-98284838D02*
X133905713Y-98332457D01*
X134179523Y-99189600D02*
X134316427Y-99237219D01*
X134316427Y-99237219D02*
X134554523Y-99237219D01*
X134554523Y-99237219D02*
X134655713Y-99189600D01*
X134655713Y-99189600D02*
X134709285Y-99141980D01*
X134709285Y-99141980D02*
X134768808Y-99046742D01*
X134768808Y-99046742D02*
X134780713Y-98951504D01*
X134780713Y-98951504D02*
X134744999Y-98856266D01*
X134744999Y-98856266D02*
X134703332Y-98808647D01*
X134703332Y-98808647D02*
X134614047Y-98761028D01*
X134614047Y-98761028D02*
X134429523Y-98713409D01*
X134429523Y-98713409D02*
X134340237Y-98665790D01*
X134340237Y-98665790D02*
X134298570Y-98618171D01*
X134298570Y-98618171D02*
X134262856Y-98522933D01*
X134262856Y-98522933D02*
X134274761Y-98427695D01*
X134274761Y-98427695D02*
X134334285Y-98332457D01*
X134334285Y-98332457D02*
X134387856Y-98284838D01*
X134387856Y-98284838D02*
X134489047Y-98237219D01*
X134489047Y-98237219D02*
X134727142Y-98237219D01*
X134727142Y-98237219D02*
X134864047Y-98284838D01*
X135756904Y-99141980D02*
X135703332Y-99189600D01*
X135703332Y-99189600D02*
X135554523Y-99237219D01*
X135554523Y-99237219D02*
X135459285Y-99237219D01*
X135459285Y-99237219D02*
X135322380Y-99189600D01*
X135322380Y-99189600D02*
X135239047Y-99094361D01*
X135239047Y-99094361D02*
X135203332Y-98999123D01*
X135203332Y-98999123D02*
X135179523Y-98808647D01*
X135179523Y-98808647D02*
X135197380Y-98665790D01*
X135197380Y-98665790D02*
X135268808Y-98475314D01*
X135268808Y-98475314D02*
X135328332Y-98380076D01*
X135328332Y-98380076D02*
X135435475Y-98284838D01*
X135435475Y-98284838D02*
X135584285Y-98237219D01*
X135584285Y-98237219D02*
X135679523Y-98237219D01*
X135679523Y-98237219D02*
X135816428Y-98284838D01*
X135816428Y-98284838D02*
X135858094Y-98332457D01*
X136935475Y-99237219D02*
X137060475Y-98237219D01*
X137060475Y-98237219D02*
X137441428Y-98237219D01*
X137441428Y-98237219D02*
X137530713Y-98284838D01*
X137530713Y-98284838D02*
X137572380Y-98332457D01*
X137572380Y-98332457D02*
X137608094Y-98427695D01*
X137608094Y-98427695D02*
X137590237Y-98570552D01*
X137590237Y-98570552D02*
X137530713Y-98665790D01*
X137530713Y-98665790D02*
X137477142Y-98713409D01*
X137477142Y-98713409D02*
X137375952Y-98761028D01*
X137375952Y-98761028D02*
X136994999Y-98761028D01*
X138364047Y-99237219D02*
X138429523Y-98713409D01*
X138429523Y-98713409D02*
X138393809Y-98618171D01*
X138393809Y-98618171D02*
X138304523Y-98570552D01*
X138304523Y-98570552D02*
X138114047Y-98570552D01*
X138114047Y-98570552D02*
X138012856Y-98618171D01*
X138369999Y-99189600D02*
X138268809Y-99237219D01*
X138268809Y-99237219D02*
X138030713Y-99237219D01*
X138030713Y-99237219D02*
X137941428Y-99189600D01*
X137941428Y-99189600D02*
X137905713Y-99094361D01*
X137905713Y-99094361D02*
X137917618Y-98999123D01*
X137917618Y-98999123D02*
X137977142Y-98903885D01*
X137977142Y-98903885D02*
X138078333Y-98856266D01*
X138078333Y-98856266D02*
X138316428Y-98856266D01*
X138316428Y-98856266D02*
X138417618Y-98808647D01*
X138840237Y-99237219D02*
X138923571Y-98570552D01*
X138899761Y-98761028D02*
X138959285Y-98665790D01*
X138959285Y-98665790D02*
X139012856Y-98618171D01*
X139012856Y-98618171D02*
X139114047Y-98570552D01*
X139114047Y-98570552D02*
X139209285Y-98570552D01*
X139399762Y-98570552D02*
X139780714Y-98570552D01*
X139584285Y-98237219D02*
X139477143Y-99094361D01*
X139477143Y-99094361D02*
X139512857Y-99189600D01*
X139512857Y-99189600D02*
X139602143Y-99237219D01*
X139602143Y-99237219D02*
X139697381Y-99237219D01*
X140828334Y-98570552D02*
X141542619Y-98570552D01*
X141167619Y-98141980D02*
X140721191Y-99427695D01*
X141393810Y-98999123D02*
X140679524Y-98999123D01*
X141054524Y-99427695D02*
X141500953Y-98141980D01*
X134328333Y-100751980D02*
X134274761Y-100799600D01*
X134274761Y-100799600D02*
X134125952Y-100847219D01*
X134125952Y-100847219D02*
X134030714Y-100847219D01*
X134030714Y-100847219D02*
X133893809Y-100799600D01*
X133893809Y-100799600D02*
X133810476Y-100704361D01*
X133810476Y-100704361D02*
X133774761Y-100609123D01*
X133774761Y-100609123D02*
X133750952Y-100418647D01*
X133750952Y-100418647D02*
X133768809Y-100275790D01*
X133768809Y-100275790D02*
X133840237Y-100085314D01*
X133840237Y-100085314D02*
X133899761Y-99990076D01*
X133899761Y-99990076D02*
X134006904Y-99894838D01*
X134006904Y-99894838D02*
X134155714Y-99847219D01*
X134155714Y-99847219D02*
X134250952Y-99847219D01*
X134250952Y-99847219D02*
X134387857Y-99894838D01*
X134387857Y-99894838D02*
X134429523Y-99942457D01*
X134774761Y-99847219D02*
X135441428Y-99847219D01*
X135441428Y-99847219D02*
X134887857Y-100847219D01*
X135762857Y-99942457D02*
X135816428Y-99894838D01*
X135816428Y-99894838D02*
X135917618Y-99847219D01*
X135917618Y-99847219D02*
X136155714Y-99847219D01*
X136155714Y-99847219D02*
X136244999Y-99894838D01*
X136244999Y-99894838D02*
X136286666Y-99942457D01*
X136286666Y-99942457D02*
X136322380Y-100037695D01*
X136322380Y-100037695D02*
X136310476Y-100132933D01*
X136310476Y-100132933D02*
X136244999Y-100275790D01*
X136244999Y-100275790D02*
X135602142Y-100847219D01*
X135602142Y-100847219D02*
X136221190Y-100847219D01*
X136965238Y-99847219D02*
X137060476Y-99847219D01*
X137060476Y-99847219D02*
X137149761Y-99894838D01*
X137149761Y-99894838D02*
X137191428Y-99942457D01*
X137191428Y-99942457D02*
X137227142Y-100037695D01*
X137227142Y-100037695D02*
X137250952Y-100228171D01*
X137250952Y-100228171D02*
X137221190Y-100466266D01*
X137221190Y-100466266D02*
X137149761Y-100656742D01*
X137149761Y-100656742D02*
X137090238Y-100751980D01*
X137090238Y-100751980D02*
X137036666Y-100799600D01*
X137036666Y-100799600D02*
X136935476Y-100847219D01*
X136935476Y-100847219D02*
X136840238Y-100847219D01*
X136840238Y-100847219D02*
X136750952Y-100799600D01*
X136750952Y-100799600D02*
X136709285Y-100751980D01*
X136709285Y-100751980D02*
X136673571Y-100656742D01*
X136673571Y-100656742D02*
X136649761Y-100466266D01*
X136649761Y-100466266D02*
X136679523Y-100228171D01*
X136679523Y-100228171D02*
X136750952Y-100037695D01*
X136750952Y-100037695D02*
X136810476Y-99942457D01*
X136810476Y-99942457D02*
X136864047Y-99894838D01*
X136864047Y-99894838D02*
X136965238Y-99847219D01*
X138203333Y-99847219D02*
X137727142Y-99847219D01*
X137727142Y-99847219D02*
X137620000Y-100323409D01*
X137620000Y-100323409D02*
X137673571Y-100275790D01*
X137673571Y-100275790D02*
X137774761Y-100228171D01*
X137774761Y-100228171D02*
X138012857Y-100228171D01*
X138012857Y-100228171D02*
X138102142Y-100275790D01*
X138102142Y-100275790D02*
X138143809Y-100323409D01*
X138143809Y-100323409D02*
X138179523Y-100418647D01*
X138179523Y-100418647D02*
X138149761Y-100656742D01*
X138149761Y-100656742D02*
X138090238Y-100751980D01*
X138090238Y-100751980D02*
X138036666Y-100799600D01*
X138036666Y-100799600D02*
X137935476Y-100847219D01*
X137935476Y-100847219D02*
X137697380Y-100847219D01*
X137697380Y-100847219D02*
X137608095Y-100799600D01*
X137608095Y-100799600D02*
X137566428Y-100751980D01*
X138870000Y-99847219D02*
X138965238Y-99847219D01*
X138965238Y-99847219D02*
X139054523Y-99894838D01*
X139054523Y-99894838D02*
X139096190Y-99942457D01*
X139096190Y-99942457D02*
X139131904Y-100037695D01*
X139131904Y-100037695D02*
X139155714Y-100228171D01*
X139155714Y-100228171D02*
X139125952Y-100466266D01*
X139125952Y-100466266D02*
X139054523Y-100656742D01*
X139054523Y-100656742D02*
X138995000Y-100751980D01*
X138995000Y-100751980D02*
X138941428Y-100799600D01*
X138941428Y-100799600D02*
X138840238Y-100847219D01*
X138840238Y-100847219D02*
X138745000Y-100847219D01*
X138745000Y-100847219D02*
X138655714Y-100799600D01*
X138655714Y-100799600D02*
X138614047Y-100751980D01*
X138614047Y-100751980D02*
X138578333Y-100656742D01*
X138578333Y-100656742D02*
X138554523Y-100466266D01*
X138554523Y-100466266D02*
X138584285Y-100228171D01*
X138584285Y-100228171D02*
X138655714Y-100037695D01*
X138655714Y-100037695D02*
X138715238Y-99942457D01*
X138715238Y-99942457D02*
X138768809Y-99894838D01*
X138768809Y-99894838D02*
X138870000Y-99847219D01*
X140108095Y-99847219D02*
X139631904Y-99847219D01*
X139631904Y-99847219D02*
X139524762Y-100323409D01*
X139524762Y-100323409D02*
X139578333Y-100275790D01*
X139578333Y-100275790D02*
X139679523Y-100228171D01*
X139679523Y-100228171D02*
X139917619Y-100228171D01*
X139917619Y-100228171D02*
X140006904Y-100275790D01*
X140006904Y-100275790D02*
X140048571Y-100323409D01*
X140048571Y-100323409D02*
X140084285Y-100418647D01*
X140084285Y-100418647D02*
X140054523Y-100656742D01*
X140054523Y-100656742D02*
X139995000Y-100751980D01*
X139995000Y-100751980D02*
X139941428Y-100799600D01*
X139941428Y-100799600D02*
X139840238Y-100847219D01*
X139840238Y-100847219D02*
X139602142Y-100847219D01*
X139602142Y-100847219D02*
X139512857Y-100799600D01*
X139512857Y-100799600D02*
X139471190Y-100751980D01*
X134584285Y-101457219D02*
X135125952Y-102457219D01*
X135250952Y-101457219D02*
X134459285Y-102457219D01*
X135631904Y-101457219D02*
X135530714Y-102266742D01*
X135530714Y-102266742D02*
X135566428Y-102361980D01*
X135566428Y-102361980D02*
X135608095Y-102409600D01*
X135608095Y-102409600D02*
X135697381Y-102457219D01*
X135697381Y-102457219D02*
X135887857Y-102457219D01*
X135887857Y-102457219D02*
X135989047Y-102409600D01*
X135989047Y-102409600D02*
X136042619Y-102361980D01*
X136042619Y-102361980D02*
X136102142Y-102266742D01*
X136102142Y-102266742D02*
X136203333Y-101457219D01*
X136554523Y-102457219D02*
X136679523Y-101457219D01*
X136679523Y-101457219D02*
X137125952Y-102457219D01*
X137125952Y-102457219D02*
X137250952Y-101457219D01*
X137602142Y-102457219D02*
X137727142Y-101457219D01*
X137727142Y-101457219D02*
X138108095Y-101457219D01*
X138108095Y-101457219D02*
X138197380Y-101504838D01*
X138197380Y-101504838D02*
X138239047Y-101552457D01*
X138239047Y-101552457D02*
X138274761Y-101647695D01*
X138274761Y-101647695D02*
X138256904Y-101790552D01*
X138256904Y-101790552D02*
X138197380Y-101885790D01*
X138197380Y-101885790D02*
X138143809Y-101933409D01*
X138143809Y-101933409D02*
X138042619Y-101981028D01*
X138042619Y-101981028D02*
X137661666Y-101981028D01*
X138727142Y-101457219D02*
X138625952Y-102266742D01*
X138625952Y-102266742D02*
X138661666Y-102361980D01*
X138661666Y-102361980D02*
X138703333Y-102409600D01*
X138703333Y-102409600D02*
X138792619Y-102457219D01*
X138792619Y-102457219D02*
X138983095Y-102457219D01*
X138983095Y-102457219D02*
X139084285Y-102409600D01*
X139084285Y-102409600D02*
X139137857Y-102361980D01*
X139137857Y-102361980D02*
X139197380Y-102266742D01*
X139197380Y-102266742D02*
X139298571Y-101457219D01*
X131631904Y-103067219D02*
X132203333Y-103067219D01*
X131792619Y-104067219D02*
X131917619Y-103067219D01*
X132810476Y-103543409D02*
X132477143Y-103543409D01*
X132411666Y-104067219D02*
X132536666Y-103067219D01*
X132536666Y-103067219D02*
X133012857Y-103067219D01*
X133316428Y-103686266D02*
X134078333Y-103686266D01*
X135030714Y-104067219D02*
X134459285Y-104067219D01*
X134745000Y-104067219D02*
X134870000Y-103067219D01*
X134870000Y-103067219D02*
X134756904Y-103210076D01*
X134756904Y-103210076D02*
X134649762Y-103305314D01*
X134649762Y-103305314D02*
X134548571Y-103352933D01*
X135983095Y-104067219D02*
X135411666Y-104067219D01*
X135697381Y-104067219D02*
X135822381Y-103067219D01*
X135822381Y-103067219D02*
X135709285Y-103210076D01*
X135709285Y-103210076D02*
X135602143Y-103305314D01*
X135602143Y-103305314D02*
X135500952Y-103352933D01*
X137012857Y-103067219D02*
X136536666Y-103067219D01*
X136536666Y-103067219D02*
X136429524Y-103543409D01*
X136429524Y-103543409D02*
X136483095Y-103495790D01*
X136483095Y-103495790D02*
X136584285Y-103448171D01*
X136584285Y-103448171D02*
X136822381Y-103448171D01*
X136822381Y-103448171D02*
X136911666Y-103495790D01*
X136911666Y-103495790D02*
X136953333Y-103543409D01*
X136953333Y-103543409D02*
X136989047Y-103638647D01*
X136989047Y-103638647D02*
X136959285Y-103876742D01*
X136959285Y-103876742D02*
X136899762Y-103971980D01*
X136899762Y-103971980D02*
X136846190Y-104019600D01*
X136846190Y-104019600D02*
X136745000Y-104067219D01*
X136745000Y-104067219D02*
X136506904Y-104067219D01*
X136506904Y-104067219D02*
X136417619Y-104019600D01*
X136417619Y-104019600D02*
X136375952Y-103971980D01*
X137411666Y-103686266D02*
X138173571Y-103686266D01*
X139000952Y-103543409D02*
X139137857Y-103591028D01*
X139137857Y-103591028D02*
X139179523Y-103638647D01*
X139179523Y-103638647D02*
X139215238Y-103733885D01*
X139215238Y-103733885D02*
X139197380Y-103876742D01*
X139197380Y-103876742D02*
X139137857Y-103971980D01*
X139137857Y-103971980D02*
X139084285Y-104019600D01*
X139084285Y-104019600D02*
X138983095Y-104067219D01*
X138983095Y-104067219D02*
X138602142Y-104067219D01*
X138602142Y-104067219D02*
X138727142Y-103067219D01*
X138727142Y-103067219D02*
X139060476Y-103067219D01*
X139060476Y-103067219D02*
X139149761Y-103114838D01*
X139149761Y-103114838D02*
X139191428Y-103162457D01*
X139191428Y-103162457D02*
X139227142Y-103257695D01*
X139227142Y-103257695D02*
X139215238Y-103352933D01*
X139215238Y-103352933D02*
X139155714Y-103448171D01*
X139155714Y-103448171D02*
X139102142Y-103495790D01*
X139102142Y-103495790D02*
X139000952Y-103543409D01*
X139000952Y-103543409D02*
X138667619Y-103543409D01*
X140185476Y-103971980D02*
X140131904Y-104019600D01*
X140131904Y-104019600D02*
X139983095Y-104067219D01*
X139983095Y-104067219D02*
X139887857Y-104067219D01*
X139887857Y-104067219D02*
X139750952Y-104019600D01*
X139750952Y-104019600D02*
X139667619Y-103924361D01*
X139667619Y-103924361D02*
X139631904Y-103829123D01*
X139631904Y-103829123D02*
X139608095Y-103638647D01*
X139608095Y-103638647D02*
X139625952Y-103495790D01*
X139625952Y-103495790D02*
X139697380Y-103305314D01*
X139697380Y-103305314D02*
X139756904Y-103210076D01*
X139756904Y-103210076D02*
X139864047Y-103114838D01*
X139864047Y-103114838D02*
X140012857Y-103067219D01*
X140012857Y-103067219D02*
X140108095Y-103067219D01*
X140108095Y-103067219D02*
X140245000Y-103114838D01*
X140245000Y-103114838D02*
X140286666Y-103162457D01*
X140602142Y-104067219D02*
X140727142Y-103067219D01*
X140727142Y-103067219D02*
X141108095Y-103067219D01*
X141108095Y-103067219D02*
X141197380Y-103114838D01*
X141197380Y-103114838D02*
X141239047Y-103162457D01*
X141239047Y-103162457D02*
X141274761Y-103257695D01*
X141274761Y-103257695D02*
X141256904Y-103400552D01*
X141256904Y-103400552D02*
X141197380Y-103495790D01*
X141197380Y-103495790D02*
X141143809Y-103543409D01*
X141143809Y-103543409D02*
X141042619Y-103591028D01*
X141042619Y-103591028D02*
X140661666Y-103591028D01*
X141649761Y-104067219D02*
X141840238Y-104067219D01*
X141840238Y-104067219D02*
X141941428Y-104019600D01*
X141941428Y-104019600D02*
X141995000Y-103971980D01*
X141995000Y-103971980D02*
X142108095Y-103829123D01*
X142108095Y-103829123D02*
X142179523Y-103638647D01*
X142179523Y-103638647D02*
X142227142Y-103257695D01*
X142227142Y-103257695D02*
X142191428Y-103162457D01*
X142191428Y-103162457D02*
X142149761Y-103114838D01*
X142149761Y-103114838D02*
X142060476Y-103067219D01*
X142060476Y-103067219D02*
X141870000Y-103067219D01*
X141870000Y-103067219D02*
X141768809Y-103114838D01*
X141768809Y-103114838D02*
X141715238Y-103162457D01*
X141715238Y-103162457D02*
X141655714Y-103257695D01*
X141655714Y-103257695D02*
X141625952Y-103495790D01*
X141625952Y-103495790D02*
X141661666Y-103591028D01*
X141661666Y-103591028D02*
X141703333Y-103638647D01*
X141703333Y-103638647D02*
X141792619Y-103686266D01*
X141792619Y-103686266D02*
X141983095Y-103686266D01*
X141983095Y-103686266D02*
X142084285Y-103638647D01*
X142084285Y-103638647D02*
X142137857Y-103591028D01*
X142137857Y-103591028D02*
X142197380Y-103495790D01*
D11*
X143231287Y-115441917D02*
X142367687Y-115441917D01*
X142367687Y-115441917D02*
X142367687Y-115236298D01*
X142367687Y-115236298D02*
X142408811Y-115112927D01*
X142408811Y-115112927D02*
X142491059Y-115030679D01*
X142491059Y-115030679D02*
X142573306Y-114989556D01*
X142573306Y-114989556D02*
X142737802Y-114948432D01*
X142737802Y-114948432D02*
X142861173Y-114948432D01*
X142861173Y-114948432D02*
X143025668Y-114989556D01*
X143025668Y-114989556D02*
X143107916Y-115030679D01*
X143107916Y-115030679D02*
X143190164Y-115112927D01*
X143190164Y-115112927D02*
X143231287Y-115236298D01*
X143231287Y-115236298D02*
X143231287Y-115441917D01*
X142984544Y-114619441D02*
X142984544Y-114208203D01*
X143231287Y-114701689D02*
X142367687Y-114413822D01*
X142367687Y-114413822D02*
X143231287Y-114125956D01*
X142367687Y-113961460D02*
X142367687Y-113467974D01*
X143231287Y-113714717D02*
X142367687Y-113714717D01*
X142367687Y-113015612D02*
X142367687Y-112933365D01*
X142367687Y-112933365D02*
X142408811Y-112851117D01*
X142408811Y-112851117D02*
X142449935Y-112809993D01*
X142449935Y-112809993D02*
X142532183Y-112768869D01*
X142532183Y-112768869D02*
X142696678Y-112727746D01*
X142696678Y-112727746D02*
X142902297Y-112727746D01*
X142902297Y-112727746D02*
X143066792Y-112768869D01*
X143066792Y-112768869D02*
X143149040Y-112809993D01*
X143149040Y-112809993D02*
X143190164Y-112851117D01*
X143190164Y-112851117D02*
X143231287Y-112933365D01*
X143231287Y-112933365D02*
X143231287Y-113015612D01*
X143231287Y-113015612D02*
X143190164Y-113097860D01*
X143190164Y-113097860D02*
X143149040Y-113138984D01*
X143149040Y-113138984D02*
X143066792Y-113180107D01*
X143066792Y-113180107D02*
X142902297Y-113221231D01*
X142902297Y-113221231D02*
X142696678Y-113221231D01*
X142696678Y-113221231D02*
X142532183Y-113180107D01*
X142532183Y-113180107D02*
X142449935Y-113138984D01*
X142449935Y-113138984D02*
X142408811Y-113097860D01*
X142408811Y-113097860D02*
X142367687Y-113015612D01*
X145771287Y-115441917D02*
X144907687Y-115441917D01*
X144907687Y-115441917D02*
X144907687Y-115236298D01*
X144907687Y-115236298D02*
X144948811Y-115112927D01*
X144948811Y-115112927D02*
X145031059Y-115030679D01*
X145031059Y-115030679D02*
X145113306Y-114989556D01*
X145113306Y-114989556D02*
X145277802Y-114948432D01*
X145277802Y-114948432D02*
X145401173Y-114948432D01*
X145401173Y-114948432D02*
X145565668Y-114989556D01*
X145565668Y-114989556D02*
X145647916Y-115030679D01*
X145647916Y-115030679D02*
X145730164Y-115112927D01*
X145730164Y-115112927D02*
X145771287Y-115236298D01*
X145771287Y-115236298D02*
X145771287Y-115441917D01*
X145524544Y-114619441D02*
X145524544Y-114208203D01*
X145771287Y-114701689D02*
X144907687Y-114413822D01*
X144907687Y-114413822D02*
X145771287Y-114125956D01*
X144907687Y-113961460D02*
X144907687Y-113467974D01*
X145771287Y-113714717D02*
X144907687Y-113714717D01*
X145771287Y-112727746D02*
X145771287Y-113221231D01*
X145771287Y-112974488D02*
X144907687Y-112974488D01*
X144907687Y-112974488D02*
X145031059Y-113056736D01*
X145031059Y-113056736D02*
X145113306Y-113138984D01*
X145113306Y-113138984D02*
X145154430Y-113221231D01*
X140609040Y-114948432D02*
X140650164Y-114989556D01*
X140650164Y-114989556D02*
X140691287Y-115112927D01*
X140691287Y-115112927D02*
X140691287Y-115195175D01*
X140691287Y-115195175D02*
X140650164Y-115318546D01*
X140650164Y-115318546D02*
X140567916Y-115400794D01*
X140567916Y-115400794D02*
X140485668Y-115441917D01*
X140485668Y-115441917D02*
X140321173Y-115483041D01*
X140321173Y-115483041D02*
X140197802Y-115483041D01*
X140197802Y-115483041D02*
X140033306Y-115441917D01*
X140033306Y-115441917D02*
X139951059Y-115400794D01*
X139951059Y-115400794D02*
X139868811Y-115318546D01*
X139868811Y-115318546D02*
X139827687Y-115195175D01*
X139827687Y-115195175D02*
X139827687Y-115112927D01*
X139827687Y-115112927D02*
X139868811Y-114989556D01*
X139868811Y-114989556D02*
X139909935Y-114948432D01*
X140691287Y-114167079D02*
X140691287Y-114578317D01*
X140691287Y-114578317D02*
X139827687Y-114578317D01*
X140691287Y-113879212D02*
X139827687Y-113879212D01*
X140691287Y-113385727D02*
X140197802Y-113755841D01*
X139827687Y-113385727D02*
X140321173Y-113879212D01*
X130449040Y-114948432D02*
X130490164Y-114989556D01*
X130490164Y-114989556D02*
X130531287Y-115112927D01*
X130531287Y-115112927D02*
X130531287Y-115195175D01*
X130531287Y-115195175D02*
X130490164Y-115318546D01*
X130490164Y-115318546D02*
X130407916Y-115400794D01*
X130407916Y-115400794D02*
X130325668Y-115441917D01*
X130325668Y-115441917D02*
X130161173Y-115483041D01*
X130161173Y-115483041D02*
X130037802Y-115483041D01*
X130037802Y-115483041D02*
X129873306Y-115441917D01*
X129873306Y-115441917D02*
X129791059Y-115400794D01*
X129791059Y-115400794D02*
X129708811Y-115318546D01*
X129708811Y-115318546D02*
X129667687Y-115195175D01*
X129667687Y-115195175D02*
X129667687Y-115112927D01*
X129667687Y-115112927D02*
X129708811Y-114989556D01*
X129708811Y-114989556D02*
X129749935Y-114948432D01*
X130531287Y-114578317D02*
X129667687Y-114578317D01*
X129667687Y-114578317D02*
X129667687Y-114372698D01*
X129667687Y-114372698D02*
X129708811Y-114249327D01*
X129708811Y-114249327D02*
X129791059Y-114167079D01*
X129791059Y-114167079D02*
X129873306Y-114125956D01*
X129873306Y-114125956D02*
X130037802Y-114084832D01*
X130037802Y-114084832D02*
X130161173Y-114084832D01*
X130161173Y-114084832D02*
X130325668Y-114125956D01*
X130325668Y-114125956D02*
X130407916Y-114167079D01*
X130407916Y-114167079D02*
X130490164Y-114249327D01*
X130490164Y-114249327D02*
X130531287Y-114372698D01*
X130531287Y-114372698D02*
X130531287Y-114578317D01*
D13*
%TO.C,U1*%
X156996100Y-111914200D02*
X162396100Y-111914200D01*
X162396100Y-111914200D02*
X162796100Y-111514200D01*
X164996100Y-111914200D02*
X165996100Y-111914200D01*
X165996100Y-111914200D02*
X166996100Y-110914200D01*
X162796100Y-111514200D02*
X164596100Y-111514200D01*
X164596100Y-111514200D02*
X164996100Y-111914200D01*
X166996100Y-110914200D02*
X171996100Y-110914200D01*
X171996100Y-110914200D02*
X171996100Y-100914200D01*
X156996100Y-100914200D02*
X156996100Y-111914200D01*
X171996100Y-100914200D02*
X156996100Y-100914200D01*
D14*
%TO.C,JP1*%
X126326900Y-116763800D02*
X126326900Y-118033800D01*
X126326900Y-118033800D02*
X126961900Y-118668800D01*
X126961900Y-116128800D02*
X126326900Y-116763800D01*
X126961900Y-116128800D02*
X128231900Y-116128800D01*
X128231900Y-116128800D02*
X128866900Y-116763800D01*
X128231900Y-118668800D02*
X126961900Y-118668800D01*
X128866900Y-116763800D02*
X129501900Y-116128800D01*
X128866900Y-118033800D02*
X128231900Y-118668800D01*
X129501900Y-116128800D02*
X130771900Y-116128800D01*
X129501900Y-118668800D02*
X128866900Y-118033800D01*
X130771900Y-116128800D02*
X131406900Y-116763800D01*
X130771900Y-118668800D02*
X129501900Y-118668800D01*
X131406900Y-116763800D02*
X132041900Y-116128800D01*
X131406900Y-118033800D02*
X130771900Y-118668800D01*
X132041900Y-116128800D02*
X133311900Y-116128800D01*
X132041900Y-118668800D02*
X131406900Y-118033800D01*
X133311900Y-116128800D02*
X133946900Y-116763800D01*
X133311900Y-118668800D02*
X132041900Y-118668800D01*
X133946900Y-118033800D02*
X133311900Y-118668800D01*
X133946900Y-118033800D02*
X134581900Y-118668800D01*
X134581900Y-116128800D02*
X133946900Y-116763800D01*
X134581900Y-116128800D02*
X135851900Y-116128800D01*
X135851900Y-116128800D02*
X136486900Y-116763800D01*
X135851900Y-118668800D02*
X134581900Y-118668800D01*
X136486900Y-116763800D02*
X137121900Y-116128800D01*
X136486900Y-118033800D02*
X135851900Y-118668800D01*
X137121900Y-116128800D02*
X138391900Y-116128800D01*
X137121900Y-118668800D02*
X136486900Y-118033800D01*
X138391900Y-116128800D02*
X139026900Y-116763800D01*
X138391900Y-118668800D02*
X137121900Y-118668800D01*
X139026900Y-116763800D02*
X139661900Y-116128800D01*
X139026900Y-118033800D02*
X138391900Y-118668800D01*
X139661900Y-116128800D02*
X140931900Y-116128800D01*
X139661900Y-118668800D02*
X139026900Y-118033800D01*
X140931900Y-116128800D02*
X141566900Y-116763800D01*
X140931900Y-118668800D02*
X139661900Y-118668800D01*
X141566900Y-118033800D02*
X140931900Y-118668800D01*
X141566900Y-118033800D02*
X142201900Y-118668800D01*
X142201900Y-116128800D02*
X141566900Y-116763800D01*
X142201900Y-116128800D02*
X143471900Y-116128800D01*
X143471900Y-116128800D02*
X144106900Y-116763800D01*
X143471900Y-118668800D02*
X142201900Y-118668800D01*
X144106900Y-118033800D02*
X143471900Y-118668800D01*
X144106900Y-118033800D02*
X144741900Y-118668800D01*
X144741900Y-116128800D02*
X144106900Y-116763800D01*
X144741900Y-116128800D02*
X146011900Y-116128800D01*
X146011900Y-116128800D02*
X146646900Y-116763800D01*
X146011900Y-118668800D02*
X144741900Y-118668800D01*
X146646900Y-116763800D02*
X146646900Y-118033800D01*
X146646900Y-118033800D02*
X146011900Y-118668800D01*
%TO.C,LOGO1*%
G36*
X152199417Y-104383151D02*
G01*
X152640843Y-104565970D01*
X153287046Y-104039053D01*
X153813674Y-104565681D01*
X153289504Y-105208516D01*
X153434738Y-105490296D01*
X152438140Y-105903110D01*
X152206328Y-105578464D01*
X152078629Y-105489274D01*
X151930070Y-105429536D01*
X151771873Y-105404820D01*
X151612176Y-105416397D01*
X151459190Y-105463674D01*
X151320808Y-105544211D01*
X151204136Y-105653870D01*
X151115180Y-105787006D01*
X151058523Y-105936766D01*
X151037081Y-106095437D01*
X151051953Y-106254865D01*
X151102378Y-106406836D01*
X151185755Y-106543526D01*
X151297805Y-106657914D01*
X151432745Y-106744098D01*
X151583643Y-106797650D01*
X151738089Y-106815283D01*
X152066893Y-106736354D01*
X152201082Y-106646690D01*
X152313694Y-106524858D01*
X152431651Y-106314203D01*
X153431675Y-106728435D01*
X153337496Y-106931394D01*
X153290927Y-107013230D01*
X153813674Y-107654319D01*
X153287046Y-108180947D01*
X152640843Y-107654030D01*
X152199417Y-107836849D01*
X152115198Y-108666400D01*
X151370256Y-108666400D01*
X151286037Y-107836849D01*
X150844611Y-107654030D01*
X150198408Y-108180947D01*
X149671780Y-107654319D01*
X150195962Y-107011470D01*
X150085266Y-106796517D01*
X150011572Y-106566253D01*
X149186327Y-106482471D01*
X149186327Y-105737529D01*
X150011572Y-105653747D01*
X150085266Y-105423483D01*
X150195962Y-105208530D01*
X149671780Y-104565681D01*
X150198408Y-104039053D01*
X150841257Y-104563235D01*
X151056210Y-104452539D01*
X151286474Y-104378845D01*
X151370256Y-103553600D01*
X152115198Y-103553600D01*
X152199417Y-104383151D01*
G37*
D15*
%TO.C,Card1*%
X144040000Y-97180000D02*
X144040000Y-104470000D01*
X144040000Y-92170000D02*
X144040000Y-94520000D01*
X144040000Y-92170000D02*
X138880000Y-92170000D01*
X138880000Y-92170000D02*
X136800000Y-92170000D01*
X130840000Y-105960000D02*
X133830000Y-105960000D01*
X129240000Y-104430000D02*
X129240000Y-97180000D01*
X129240000Y-94520000D02*
X129240000Y-91460000D01*
X129240000Y-91460000D02*
X132250000Y-91450000D01*
X129240000Y-91460000D02*
X129250000Y-91450000D01*
X132249042Y-91450792D02*
G75*
G03*
X136800000Y-92170000I4830952J15810753D01*
G01*
%TO.C,LOGO2*%
G36*
X154876694Y-92458756D02*
G01*
X155237207Y-92558898D01*
X155607649Y-92749125D01*
X155787929Y-92889343D01*
X155948167Y-93039566D01*
X156078364Y-93209823D01*
X156198520Y-93400071D01*
X156288675Y-93600415D01*
X156348775Y-93820782D01*
X156378817Y-94061118D01*
X156378817Y-94450934D01*
X156408676Y-94560415D01*
X156458491Y-94670009D01*
X156528272Y-94769695D01*
X156618120Y-94869527D01*
X156727997Y-94979404D01*
X156857962Y-95089375D01*
X156998003Y-95219412D01*
X157127997Y-95339407D01*
X157247946Y-95449361D01*
X157367940Y-95549356D01*
X157467910Y-95639329D01*
X157557884Y-95709308D01*
X157628004Y-95769411D01*
X157667781Y-95809188D01*
X157697037Y-95823816D01*
X155116210Y-95823816D01*
X154926052Y-95813808D01*
X154765768Y-95793772D01*
X154625308Y-95753641D01*
X154514880Y-95693407D01*
X154424593Y-95623184D01*
X154344303Y-95542894D01*
X154284017Y-95452465D01*
X154243865Y-95352084D01*
X154213803Y-95241860D01*
X154193737Y-95141528D01*
X154193737Y-94961095D01*
X154203806Y-94890615D01*
X154223888Y-94840413D01*
X154233737Y-94810863D01*
X154233737Y-94795144D01*
X154248365Y-94809771D01*
X154258549Y-94830140D01*
X154278596Y-94870235D01*
X154298510Y-94920020D01*
X154328285Y-94959720D01*
X154368173Y-95009580D01*
X154407945Y-95049352D01*
X154447471Y-95078997D01*
X154506690Y-95098736D01*
X154575922Y-95098736D01*
X154645351Y-95078900D01*
X154704773Y-95049188D01*
X154764408Y-94989553D01*
X154824025Y-94920001D01*
X154853844Y-94830542D01*
X154883737Y-94720934D01*
X154883737Y-94561631D01*
X154843944Y-94422355D01*
X154764342Y-94302951D01*
X154664996Y-94213540D01*
X154535894Y-94173816D01*
X154396841Y-94173816D01*
X154247672Y-94243429D01*
X154098009Y-94373137D01*
X153927954Y-94543191D01*
X153757628Y-94673440D01*
X153577211Y-94763649D01*
X153406643Y-94813816D01*
X153235842Y-94813816D01*
X153065115Y-94753559D01*
X152904544Y-94643167D01*
X152764148Y-94472686D01*
X152643873Y-94242159D01*
X152593723Y-94021498D01*
X152603754Y-93820868D01*
X152653867Y-93640462D01*
X152713988Y-93490158D01*
X152784142Y-93369895D01*
X152834186Y-93299833D01*
X152858817Y-93262887D01*
X152858817Y-93281589D01*
X152848817Y-93321588D01*
X152848817Y-93451140D01*
X152858782Y-93540824D01*
X152878673Y-93620388D01*
X152918403Y-93699847D01*
X152988044Y-93779437D01*
X153037653Y-93819124D01*
X153097325Y-93848960D01*
X153146965Y-93868816D01*
X153206277Y-93878702D01*
X153265717Y-93868795D01*
X153335199Y-93848943D01*
X153394899Y-93809142D01*
X153474686Y-93759276D01*
X153524408Y-93709553D01*
X153584279Y-93639704D01*
X153634210Y-93569800D01*
X153684094Y-93499964D01*
X153723901Y-93420350D01*
X153743835Y-93350578D01*
X153763737Y-93280921D01*
X153763737Y-93211799D01*
X153734134Y-93142725D01*
X153684703Y-93093294D01*
X153635383Y-93063702D01*
X153575859Y-93053781D01*
X153516321Y-93043858D01*
X153466529Y-93053816D01*
X153401694Y-93053816D01*
X153504276Y-92889684D01*
X153674742Y-92719219D01*
X153915239Y-92588950D01*
X154195654Y-92488801D01*
X154526158Y-92438725D01*
X154876694Y-92458756D01*
G37*
%TD*%
%LPC*%
D16*
%TO.C,JP1*%
X127596900Y-117398800D03*
X130136900Y-117398800D03*
X132676900Y-117398800D03*
D17*
X135216900Y-117398800D03*
D16*
X137756900Y-117398800D03*
X140296900Y-117398800D03*
X142836900Y-117398800D03*
X145376900Y-117398800D03*
%TD*%
D18*
%TO.C,FID1*%
X126276100Y-93573600D03*
%TD*%
%TO.C,FID2*%
X147104100Y-111607600D03*
%TD*%
D19*
%TO.C,Card1*%
X141610000Y-95450000D03*
X133610000Y-95450000D03*
D20*
X134410000Y-106450000D03*
X135510000Y-106450000D03*
X136610000Y-106450000D03*
X137710000Y-106450000D03*
X138810000Y-106450000D03*
X139910000Y-106450000D03*
X141010000Y-106450000D03*
X142110000Y-106450000D03*
X143210000Y-106450000D03*
D21*
X144410000Y-105450000D03*
D22*
X144410000Y-95850000D03*
D23*
X129810000Y-105450000D03*
D22*
X128910000Y-95850000D03*
%TD*%
%LPD*%
M02*
