%TF.GenerationSoftware,KiCad,Pcbnew,7.0.9*%
%TF.CreationDate,2023-12-03T03:50:30-05:00*%
%TF.ProjectId,SparkFun_MicroSD_Sniffer_v10,53706172-6b46-4756-9e5f-4d6963726f53,rev?*%
%TF.SameCoordinates,Original*%
%TF.FileFunction,Legend,Bot*%
%TF.FilePolarity,Positive*%
%FSLAX46Y46*%
G04 Gerber Fmt 4.6, Leading zero omitted, Abs format (unit mm)*
G04 Created by KiCad (PCBNEW 7.0.9) date 2023-12-03 03:50:30*
%MOMM*%
%LPD*%
G01*
G04 APERTURE LIST*
G04 Aperture macros list*
%AMRoundRect*
0 Rectangle with rounded corners*
0 $1 Rounding radius*
0 $2 $3 $4 $5 $6 $7 $8 $9 X,Y pos of 4 corners*
0 Add a 4 corners polygon primitive as box body*
4,1,4,$2,$3,$4,$5,$6,$7,$8,$9,$2,$3,0*
0 Add four circle primitives for the rounded corners*
1,1,$1+$1,$2,$3*
1,1,$1+$1,$4,$5*
1,1,$1+$1,$6,$7*
1,1,$1+$1,$8,$9*
0 Add four rect primitives between the rounded corners*
20,1,$1+$1,$2,$3,$4,$5,0*
20,1,$1+$1,$4,$5,$6,$7,0*
20,1,$1+$1,$6,$7,$8,$9,0*
20,1,$1+$1,$8,$9,$2,$3,0*%
G04 Aperture macros list end*
%ADD10C,0.152400*%
%ADD11C,0.190500*%
%ADD12RoundRect,0.101600X1.625000X-0.425000X1.625000X0.425000X-1.625000X0.425000X-1.625000X-0.425000X0*%
%ADD13RoundRect,0.101600X-1.875000X0.425000X-1.875000X-0.425000X1.875000X-0.425000X1.875000X0.425000X0*%
%ADD14RoundRect,0.101600X1.875000X-0.425000X1.875000X0.425000X-1.875000X0.425000X-1.875000X-0.425000X0*%
%ADD15C,2.082800*%
%ADD16RoundRect,0.101600X0.939800X-0.939800X0.939800X0.939800X-0.939800X0.939800X-0.939800X-0.939800X0*%
%ADD17C,1.000000*%
G04 APERTURE END LIST*
D10*
X135670388Y-114989556D02*
X135711512Y-115071803D01*
X135711512Y-115071803D02*
X135711512Y-115195175D01*
X135711512Y-115195175D02*
X135670388Y-115318546D01*
X135670388Y-115318546D02*
X135588140Y-115400794D01*
X135588140Y-115400794D02*
X135505893Y-115441917D01*
X135505893Y-115441917D02*
X135341397Y-115483041D01*
X135341397Y-115483041D02*
X135218026Y-115483041D01*
X135218026Y-115483041D02*
X135053531Y-115441917D01*
X135053531Y-115441917D02*
X134971283Y-115400794D01*
X134971283Y-115400794D02*
X134889036Y-115318546D01*
X134889036Y-115318546D02*
X134847912Y-115195175D01*
X134847912Y-115195175D02*
X134847912Y-115112927D01*
X134847912Y-115112927D02*
X134889036Y-114989556D01*
X134889036Y-114989556D02*
X134930159Y-114948432D01*
X134930159Y-114948432D02*
X135218026Y-114948432D01*
X135218026Y-114948432D02*
X135218026Y-115112927D01*
X134847912Y-114578317D02*
X135711512Y-114578317D01*
X135711512Y-114578317D02*
X134847912Y-114084832D01*
X134847912Y-114084832D02*
X135711512Y-114084832D01*
X134847912Y-113673593D02*
X135711512Y-113673593D01*
X135711512Y-113673593D02*
X135711512Y-113467974D01*
X135711512Y-113467974D02*
X135670388Y-113344603D01*
X135670388Y-113344603D02*
X135588140Y-113262355D01*
X135588140Y-113262355D02*
X135505893Y-113221232D01*
X135505893Y-113221232D02*
X135341397Y-113180108D01*
X135341397Y-113180108D02*
X135218026Y-113180108D01*
X135218026Y-113180108D02*
X135053531Y-113221232D01*
X135053531Y-113221232D02*
X134971283Y-113262355D01*
X134971283Y-113262355D02*
X134889036Y-113344603D01*
X134889036Y-113344603D02*
X134847912Y-113467974D01*
X134847912Y-113467974D02*
X134847912Y-113673593D01*
D11*
X143737648Y-101027983D02*
X143737648Y-100308317D01*
X143737648Y-100411126D02*
X143686243Y-100359721D01*
X143686243Y-100359721D02*
X143583433Y-100308317D01*
X143583433Y-100308317D02*
X143429219Y-100308317D01*
X143429219Y-100308317D02*
X143326410Y-100359721D01*
X143326410Y-100359721D02*
X143275005Y-100462531D01*
X143275005Y-100462531D02*
X143275005Y-101027983D01*
X143275005Y-100462531D02*
X143223600Y-100359721D01*
X143223600Y-100359721D02*
X143120791Y-100308317D01*
X143120791Y-100308317D02*
X142966576Y-100308317D01*
X142966576Y-100308317D02*
X142863767Y-100359721D01*
X142863767Y-100359721D02*
X142812362Y-100462531D01*
X142812362Y-100462531D02*
X142812362Y-101027983D01*
X142298315Y-101027983D02*
X142298315Y-100308317D01*
X142298315Y-99948483D02*
X142349719Y-99999888D01*
X142349719Y-99999888D02*
X142298315Y-100051293D01*
X142298315Y-100051293D02*
X142246910Y-99999888D01*
X142246910Y-99999888D02*
X142298315Y-99948483D01*
X142298315Y-99948483D02*
X142298315Y-100051293D01*
X141321624Y-100976579D02*
X141424433Y-101027983D01*
X141424433Y-101027983D02*
X141630052Y-101027983D01*
X141630052Y-101027983D02*
X141732862Y-100976579D01*
X141732862Y-100976579D02*
X141784267Y-100925174D01*
X141784267Y-100925174D02*
X141835671Y-100822364D01*
X141835671Y-100822364D02*
X141835671Y-100513936D01*
X141835671Y-100513936D02*
X141784267Y-100411126D01*
X141784267Y-100411126D02*
X141732862Y-100359721D01*
X141732862Y-100359721D02*
X141630052Y-100308317D01*
X141630052Y-100308317D02*
X141424433Y-100308317D01*
X141424433Y-100308317D02*
X141321624Y-100359721D01*
X140858981Y-101027983D02*
X140858981Y-100308317D01*
X140858981Y-100513936D02*
X140807576Y-100411126D01*
X140807576Y-100411126D02*
X140756171Y-100359721D01*
X140756171Y-100359721D02*
X140653362Y-100308317D01*
X140653362Y-100308317D02*
X140550552Y-100308317D01*
X140036504Y-101027983D02*
X140139314Y-100976579D01*
X140139314Y-100976579D02*
X140190719Y-100925174D01*
X140190719Y-100925174D02*
X140242123Y-100822364D01*
X140242123Y-100822364D02*
X140242123Y-100513936D01*
X140242123Y-100513936D02*
X140190719Y-100411126D01*
X140190719Y-100411126D02*
X140139314Y-100359721D01*
X140139314Y-100359721D02*
X140036504Y-100308317D01*
X140036504Y-100308317D02*
X139882290Y-100308317D01*
X139882290Y-100308317D02*
X139779481Y-100359721D01*
X139779481Y-100359721D02*
X139728076Y-100411126D01*
X139728076Y-100411126D02*
X139676671Y-100513936D01*
X139676671Y-100513936D02*
X139676671Y-100822364D01*
X139676671Y-100822364D02*
X139728076Y-100925174D01*
X139728076Y-100925174D02*
X139779481Y-100976579D01*
X139779481Y-100976579D02*
X139882290Y-101027983D01*
X139882290Y-101027983D02*
X140036504Y-101027983D01*
X139265433Y-100976579D02*
X139111219Y-101027983D01*
X139111219Y-101027983D02*
X138854195Y-101027983D01*
X138854195Y-101027983D02*
X138751386Y-100976579D01*
X138751386Y-100976579D02*
X138699981Y-100925174D01*
X138699981Y-100925174D02*
X138648576Y-100822364D01*
X138648576Y-100822364D02*
X138648576Y-100719555D01*
X138648576Y-100719555D02*
X138699981Y-100616745D01*
X138699981Y-100616745D02*
X138751386Y-100565340D01*
X138751386Y-100565340D02*
X138854195Y-100513936D01*
X138854195Y-100513936D02*
X139059814Y-100462531D01*
X139059814Y-100462531D02*
X139162624Y-100411126D01*
X139162624Y-100411126D02*
X139214029Y-100359721D01*
X139214029Y-100359721D02*
X139265433Y-100256912D01*
X139265433Y-100256912D02*
X139265433Y-100154102D01*
X139265433Y-100154102D02*
X139214029Y-100051293D01*
X139214029Y-100051293D02*
X139162624Y-99999888D01*
X139162624Y-99999888D02*
X139059814Y-99948483D01*
X139059814Y-99948483D02*
X138802791Y-99948483D01*
X138802791Y-99948483D02*
X138648576Y-99999888D01*
X138185934Y-101027983D02*
X138185934Y-99948483D01*
X138185934Y-99948483D02*
X137928910Y-99948483D01*
X137928910Y-99948483D02*
X137774696Y-99999888D01*
X137774696Y-99999888D02*
X137671886Y-100102698D01*
X137671886Y-100102698D02*
X137620481Y-100205507D01*
X137620481Y-100205507D02*
X137569077Y-100411126D01*
X137569077Y-100411126D02*
X137569077Y-100565340D01*
X137569077Y-100565340D02*
X137620481Y-100770959D01*
X137620481Y-100770959D02*
X137671886Y-100873769D01*
X137671886Y-100873769D02*
X137774696Y-100976579D01*
X137774696Y-100976579D02*
X137928910Y-101027983D01*
X137928910Y-101027983D02*
X138185934Y-101027983D01*
X136335362Y-100976579D02*
X136181148Y-101027983D01*
X136181148Y-101027983D02*
X135924124Y-101027983D01*
X135924124Y-101027983D02*
X135821315Y-100976579D01*
X135821315Y-100976579D02*
X135769910Y-100925174D01*
X135769910Y-100925174D02*
X135718505Y-100822364D01*
X135718505Y-100822364D02*
X135718505Y-100719555D01*
X135718505Y-100719555D02*
X135769910Y-100616745D01*
X135769910Y-100616745D02*
X135821315Y-100565340D01*
X135821315Y-100565340D02*
X135924124Y-100513936D01*
X135924124Y-100513936D02*
X136129743Y-100462531D01*
X136129743Y-100462531D02*
X136232553Y-100411126D01*
X136232553Y-100411126D02*
X136283958Y-100359721D01*
X136283958Y-100359721D02*
X136335362Y-100256912D01*
X136335362Y-100256912D02*
X136335362Y-100154102D01*
X136335362Y-100154102D02*
X136283958Y-100051293D01*
X136283958Y-100051293D02*
X136232553Y-99999888D01*
X136232553Y-99999888D02*
X136129743Y-99948483D01*
X136129743Y-99948483D02*
X135872720Y-99948483D01*
X135872720Y-99948483D02*
X135718505Y-99999888D01*
X135255863Y-100308317D02*
X135255863Y-101027983D01*
X135255863Y-100411126D02*
X135204458Y-100359721D01*
X135204458Y-100359721D02*
X135101648Y-100308317D01*
X135101648Y-100308317D02*
X134947434Y-100308317D01*
X134947434Y-100308317D02*
X134844625Y-100359721D01*
X134844625Y-100359721D02*
X134793220Y-100462531D01*
X134793220Y-100462531D02*
X134793220Y-101027983D01*
X134279173Y-101027983D02*
X134279173Y-100308317D01*
X134279173Y-99948483D02*
X134330577Y-99999888D01*
X134330577Y-99999888D02*
X134279173Y-100051293D01*
X134279173Y-100051293D02*
X134227768Y-99999888D01*
X134227768Y-99999888D02*
X134279173Y-99948483D01*
X134279173Y-99948483D02*
X134279173Y-100051293D01*
X133919339Y-100308317D02*
X133508101Y-100308317D01*
X133765125Y-101027983D02*
X133765125Y-100102698D01*
X133765125Y-100102698D02*
X133713720Y-99999888D01*
X133713720Y-99999888D02*
X133610910Y-99948483D01*
X133610910Y-99948483D02*
X133508101Y-99948483D01*
X133302482Y-100308317D02*
X132891244Y-100308317D01*
X133148268Y-101027983D02*
X133148268Y-100102698D01*
X133148268Y-100102698D02*
X133096863Y-99999888D01*
X133096863Y-99999888D02*
X132994053Y-99948483D01*
X132994053Y-99948483D02*
X132891244Y-99948483D01*
X132120173Y-100976579D02*
X132222982Y-101027983D01*
X132222982Y-101027983D02*
X132428601Y-101027983D01*
X132428601Y-101027983D02*
X132531411Y-100976579D01*
X132531411Y-100976579D02*
X132582815Y-100873769D01*
X132582815Y-100873769D02*
X132582815Y-100462531D01*
X132582815Y-100462531D02*
X132531411Y-100359721D01*
X132531411Y-100359721D02*
X132428601Y-100308317D01*
X132428601Y-100308317D02*
X132222982Y-100308317D01*
X132222982Y-100308317D02*
X132120173Y-100359721D01*
X132120173Y-100359721D02*
X132068768Y-100462531D01*
X132068768Y-100462531D02*
X132068768Y-100565340D01*
X132068768Y-100565340D02*
X132582815Y-100668150D01*
X131606125Y-101027983D02*
X131606125Y-100308317D01*
X131606125Y-100513936D02*
X131554720Y-100411126D01*
X131554720Y-100411126D02*
X131503315Y-100359721D01*
X131503315Y-100359721D02*
X131400506Y-100308317D01*
X131400506Y-100308317D02*
X131297696Y-100308317D01*
D10*
X142467912Y-115441917D02*
X143331512Y-115441917D01*
X143331512Y-115441917D02*
X143331512Y-115236298D01*
X143331512Y-115236298D02*
X143290388Y-115112927D01*
X143290388Y-115112927D02*
X143208140Y-115030679D01*
X143208140Y-115030679D02*
X143125893Y-114989556D01*
X143125893Y-114989556D02*
X142961397Y-114948432D01*
X142961397Y-114948432D02*
X142838026Y-114948432D01*
X142838026Y-114948432D02*
X142673531Y-114989556D01*
X142673531Y-114989556D02*
X142591283Y-115030679D01*
X142591283Y-115030679D02*
X142509036Y-115112927D01*
X142509036Y-115112927D02*
X142467912Y-115236298D01*
X142467912Y-115236298D02*
X142467912Y-115441917D01*
X142714655Y-114619441D02*
X142714655Y-114208203D01*
X142467912Y-114701689D02*
X143331512Y-114413822D01*
X143331512Y-114413822D02*
X142467912Y-114125956D01*
X143331512Y-113961460D02*
X143331512Y-113467974D01*
X142467912Y-113714717D02*
X143331512Y-113714717D01*
X143331512Y-113015612D02*
X143331512Y-112933365D01*
X143331512Y-112933365D02*
X143290388Y-112851117D01*
X143290388Y-112851117D02*
X143249264Y-112809993D01*
X143249264Y-112809993D02*
X143167016Y-112768869D01*
X143167016Y-112768869D02*
X143002521Y-112727746D01*
X143002521Y-112727746D02*
X142796902Y-112727746D01*
X142796902Y-112727746D02*
X142632407Y-112768869D01*
X142632407Y-112768869D02*
X142550159Y-112809993D01*
X142550159Y-112809993D02*
X142509036Y-112851117D01*
X142509036Y-112851117D02*
X142467912Y-112933365D01*
X142467912Y-112933365D02*
X142467912Y-113015612D01*
X142467912Y-113015612D02*
X142509036Y-113097860D01*
X142509036Y-113097860D02*
X142550159Y-113138984D01*
X142550159Y-113138984D02*
X142632407Y-113180107D01*
X142632407Y-113180107D02*
X142796902Y-113221231D01*
X142796902Y-113221231D02*
X143002521Y-113221231D01*
X143002521Y-113221231D02*
X143167016Y-113180107D01*
X143167016Y-113180107D02*
X143249264Y-113138984D01*
X143249264Y-113138984D02*
X143290388Y-113097860D01*
X143290388Y-113097860D02*
X143331512Y-113015612D01*
X140010159Y-114948432D02*
X139969036Y-114989556D01*
X139969036Y-114989556D02*
X139927912Y-115112927D01*
X139927912Y-115112927D02*
X139927912Y-115195175D01*
X139927912Y-115195175D02*
X139969036Y-115318546D01*
X139969036Y-115318546D02*
X140051283Y-115400794D01*
X140051283Y-115400794D02*
X140133531Y-115441917D01*
X140133531Y-115441917D02*
X140298026Y-115483041D01*
X140298026Y-115483041D02*
X140421397Y-115483041D01*
X140421397Y-115483041D02*
X140585893Y-115441917D01*
X140585893Y-115441917D02*
X140668140Y-115400794D01*
X140668140Y-115400794D02*
X140750388Y-115318546D01*
X140750388Y-115318546D02*
X140791512Y-115195175D01*
X140791512Y-115195175D02*
X140791512Y-115112927D01*
X140791512Y-115112927D02*
X140750388Y-114989556D01*
X140750388Y-114989556D02*
X140709264Y-114948432D01*
X139927912Y-114167079D02*
X139927912Y-114578317D01*
X139927912Y-114578317D02*
X140791512Y-114578317D01*
X139927912Y-113879212D02*
X140791512Y-113879212D01*
X139927912Y-113385727D02*
X140421397Y-113755841D01*
X140791512Y-113385727D02*
X140298026Y-113879212D01*
X129830348Y-115072758D02*
X129789225Y-115113882D01*
X129789225Y-115113882D02*
X129748101Y-115237253D01*
X129748101Y-115237253D02*
X129748101Y-115319501D01*
X129748101Y-115319501D02*
X129789225Y-115442872D01*
X129789225Y-115442872D02*
X129871472Y-115525120D01*
X129871472Y-115525120D02*
X129953720Y-115566243D01*
X129953720Y-115566243D02*
X130118215Y-115607367D01*
X130118215Y-115607367D02*
X130241586Y-115607367D01*
X130241586Y-115607367D02*
X130406082Y-115566243D01*
X130406082Y-115566243D02*
X130488329Y-115525120D01*
X130488329Y-115525120D02*
X130570577Y-115442872D01*
X130570577Y-115442872D02*
X130611701Y-115319501D01*
X130611701Y-115319501D02*
X130611701Y-115237253D01*
X130611701Y-115237253D02*
X130570577Y-115113882D01*
X130570577Y-115113882D02*
X130529453Y-115072758D01*
X129748101Y-114702643D02*
X130611701Y-114702643D01*
X130611701Y-114702643D02*
X130611701Y-114497024D01*
X130611701Y-114497024D02*
X130570577Y-114373653D01*
X130570577Y-114373653D02*
X130488329Y-114291405D01*
X130488329Y-114291405D02*
X130406082Y-114250282D01*
X130406082Y-114250282D02*
X130241586Y-114209158D01*
X130241586Y-114209158D02*
X130118215Y-114209158D01*
X130118215Y-114209158D02*
X129953720Y-114250282D01*
X129953720Y-114250282D02*
X129871472Y-114291405D01*
X129871472Y-114291405D02*
X129789225Y-114373653D01*
X129789225Y-114373653D02*
X129748101Y-114497024D01*
X129748101Y-114497024D02*
X129748101Y-114702643D01*
X132390159Y-114948432D02*
X132349036Y-114989556D01*
X132349036Y-114989556D02*
X132307912Y-115112927D01*
X132307912Y-115112927D02*
X132307912Y-115195175D01*
X132307912Y-115195175D02*
X132349036Y-115318546D01*
X132349036Y-115318546D02*
X132431283Y-115400794D01*
X132431283Y-115400794D02*
X132513531Y-115441917D01*
X132513531Y-115441917D02*
X132678026Y-115483041D01*
X132678026Y-115483041D02*
X132801397Y-115483041D01*
X132801397Y-115483041D02*
X132965893Y-115441917D01*
X132965893Y-115441917D02*
X133048140Y-115400794D01*
X133048140Y-115400794D02*
X133130388Y-115318546D01*
X133130388Y-115318546D02*
X133171512Y-115195175D01*
X133171512Y-115195175D02*
X133171512Y-115112927D01*
X133171512Y-115112927D02*
X133130388Y-114989556D01*
X133130388Y-114989556D02*
X133089264Y-114948432D01*
X132307912Y-114578317D02*
X133171512Y-114578317D01*
X133171512Y-114578317D02*
X132554655Y-114290451D01*
X132554655Y-114290451D02*
X133171512Y-114002584D01*
X133171512Y-114002584D02*
X132307912Y-114002584D01*
X132307912Y-113591346D02*
X133171512Y-113591346D01*
X133171512Y-113591346D02*
X133171512Y-113385727D01*
X133171512Y-113385727D02*
X133130388Y-113262356D01*
X133130388Y-113262356D02*
X133048140Y-113180108D01*
X133048140Y-113180108D02*
X132965893Y-113138985D01*
X132965893Y-113138985D02*
X132801397Y-113097861D01*
X132801397Y-113097861D02*
X132678026Y-113097861D01*
X132678026Y-113097861D02*
X132513531Y-113138985D01*
X132513531Y-113138985D02*
X132431283Y-113180108D01*
X132431283Y-113180108D02*
X132349036Y-113262356D01*
X132349036Y-113262356D02*
X132307912Y-113385727D01*
X132307912Y-113385727D02*
X132307912Y-113591346D01*
X145007912Y-115441917D02*
X145871512Y-115441917D01*
X145871512Y-115441917D02*
X145871512Y-115236298D01*
X145871512Y-115236298D02*
X145830388Y-115112927D01*
X145830388Y-115112927D02*
X145748140Y-115030679D01*
X145748140Y-115030679D02*
X145665893Y-114989556D01*
X145665893Y-114989556D02*
X145501397Y-114948432D01*
X145501397Y-114948432D02*
X145378026Y-114948432D01*
X145378026Y-114948432D02*
X145213531Y-114989556D01*
X145213531Y-114989556D02*
X145131283Y-115030679D01*
X145131283Y-115030679D02*
X145049036Y-115112927D01*
X145049036Y-115112927D02*
X145007912Y-115236298D01*
X145007912Y-115236298D02*
X145007912Y-115441917D01*
X145254655Y-114619441D02*
X145254655Y-114208203D01*
X145007912Y-114701689D02*
X145871512Y-114413822D01*
X145871512Y-114413822D02*
X145007912Y-114125956D01*
X145871512Y-113961460D02*
X145871512Y-113467974D01*
X145007912Y-113714717D02*
X145871512Y-113714717D01*
X145007912Y-112727746D02*
X145007912Y-113221231D01*
X145007912Y-112974488D02*
X145871512Y-112974488D01*
X145871512Y-112974488D02*
X145748140Y-113056736D01*
X145748140Y-113056736D02*
X145665893Y-113138984D01*
X145665893Y-113138984D02*
X145624769Y-113221231D01*
X138251512Y-115565289D02*
X137387912Y-115277422D01*
X137387912Y-115277422D02*
X138251512Y-114989556D01*
X137470159Y-114208203D02*
X137429036Y-114249327D01*
X137429036Y-114249327D02*
X137387912Y-114372698D01*
X137387912Y-114372698D02*
X137387912Y-114454946D01*
X137387912Y-114454946D02*
X137429036Y-114578317D01*
X137429036Y-114578317D02*
X137511283Y-114660565D01*
X137511283Y-114660565D02*
X137593531Y-114701688D01*
X137593531Y-114701688D02*
X137758026Y-114742812D01*
X137758026Y-114742812D02*
X137881397Y-114742812D01*
X137881397Y-114742812D02*
X138045893Y-114701688D01*
X138045893Y-114701688D02*
X138128140Y-114660565D01*
X138128140Y-114660565D02*
X138210388Y-114578317D01*
X138210388Y-114578317D02*
X138251512Y-114454946D01*
X138251512Y-114454946D02*
X138251512Y-114372698D01*
X138251512Y-114372698D02*
X138210388Y-114249327D01*
X138210388Y-114249327D02*
X138169264Y-114208203D01*
X137470159Y-113344603D02*
X137429036Y-113385727D01*
X137429036Y-113385727D02*
X137387912Y-113509098D01*
X137387912Y-113509098D02*
X137387912Y-113591346D01*
X137387912Y-113591346D02*
X137429036Y-113714717D01*
X137429036Y-113714717D02*
X137511283Y-113796965D01*
X137511283Y-113796965D02*
X137593531Y-113838088D01*
X137593531Y-113838088D02*
X137758026Y-113879212D01*
X137758026Y-113879212D02*
X137881397Y-113879212D01*
X137881397Y-113879212D02*
X138045893Y-113838088D01*
X138045893Y-113838088D02*
X138128140Y-113796965D01*
X138128140Y-113796965D02*
X138210388Y-113714717D01*
X138210388Y-113714717D02*
X138251512Y-113591346D01*
X138251512Y-113591346D02*
X138251512Y-113509098D01*
X138251512Y-113509098D02*
X138210388Y-113385727D01*
X138210388Y-113385727D02*
X138169264Y-113344603D01*
X127227912Y-115441917D02*
X128091512Y-115441917D01*
X128091512Y-115441917D02*
X128091512Y-115236298D01*
X128091512Y-115236298D02*
X128050388Y-115112927D01*
X128050388Y-115112927D02*
X127968140Y-115030679D01*
X127968140Y-115030679D02*
X127885893Y-114989556D01*
X127885893Y-114989556D02*
X127721397Y-114948432D01*
X127721397Y-114948432D02*
X127598026Y-114948432D01*
X127598026Y-114948432D02*
X127433531Y-114989556D01*
X127433531Y-114989556D02*
X127351283Y-115030679D01*
X127351283Y-115030679D02*
X127269036Y-115112927D01*
X127269036Y-115112927D02*
X127227912Y-115236298D01*
X127227912Y-115236298D02*
X127227912Y-115441917D01*
X127474655Y-114619441D02*
X127474655Y-114208203D01*
X127227912Y-114701689D02*
X128091512Y-114413822D01*
X128091512Y-114413822D02*
X127227912Y-114125956D01*
X128091512Y-113961460D02*
X128091512Y-113467974D01*
X127227912Y-113714717D02*
X128091512Y-113714717D01*
X128009264Y-113221231D02*
X128050388Y-113180107D01*
X128050388Y-113180107D02*
X128091512Y-113097860D01*
X128091512Y-113097860D02*
X128091512Y-112892241D01*
X128091512Y-112892241D02*
X128050388Y-112809993D01*
X128050388Y-112809993D02*
X128009264Y-112768869D01*
X128009264Y-112768869D02*
X127927016Y-112727746D01*
X127927016Y-112727746D02*
X127844769Y-112727746D01*
X127844769Y-112727746D02*
X127721397Y-112768869D01*
X127721397Y-112768869D02*
X127227912Y-113262355D01*
X127227912Y-113262355D02*
X127227912Y-112727746D01*
%TO.C,LOGO3*%
G36*
X140603810Y-98181115D02*
G01*
X140613753Y-98260658D01*
X140644471Y-98342571D01*
X140299947Y-98504700D01*
X140248843Y-98382050D01*
X140218751Y-98251648D01*
X140208547Y-98108799D01*
X140603810Y-98098664D01*
X140603810Y-98181115D01*
G37*
G36*
X137493810Y-97059753D02*
G01*
X137493810Y-98803810D01*
X137098730Y-98803810D01*
X137098730Y-98312374D01*
X136951801Y-98175240D01*
X136562685Y-98803810D01*
X136086568Y-98803810D01*
X136678002Y-97901623D01*
X136145054Y-97378730D01*
X136612352Y-97378730D01*
X137098730Y-97884960D01*
X137098730Y-96847017D01*
X137493810Y-97059753D01*
G37*
G36*
X139441590Y-97968750D02*
G01*
X139531550Y-97978746D01*
X139624812Y-97989108D01*
X139543020Y-98203810D01*
X139520670Y-98203810D01*
X139500670Y-98193810D01*
X139460858Y-98193810D01*
X139430857Y-98183810D01*
X139390858Y-98183810D01*
X139360857Y-98173810D01*
X139340670Y-98173810D01*
X139318312Y-98162631D01*
X139369361Y-97958432D01*
X139441590Y-97968750D01*
G37*
G36*
X135592210Y-96878900D02*
G01*
X135672584Y-96919087D01*
X135743012Y-96969393D01*
X135793459Y-97029929D01*
X135823628Y-97100323D01*
X135853810Y-97180809D01*
X135853810Y-97378730D01*
X135972540Y-97378730D01*
X136003085Y-97419456D01*
X136042938Y-97449346D01*
X136202938Y-97609346D01*
X136248890Y-97643810D01*
X135853810Y-97643810D01*
X135853810Y-98803810D01*
X135468730Y-98803810D01*
X135468730Y-97643810D01*
X135198730Y-97643810D01*
X135198730Y-97378730D01*
X135468730Y-97378730D01*
X135468730Y-97301583D01*
X135458730Y-97261583D01*
X135458730Y-97221870D01*
X135449067Y-97202544D01*
X135429532Y-97173241D01*
X135390382Y-97153666D01*
X135350958Y-97143810D01*
X135178730Y-97143810D01*
X135178730Y-96859700D01*
X135200670Y-96848730D01*
X135491643Y-96848730D01*
X135592210Y-96878900D01*
G37*
G36*
X137872021Y-97368843D02*
G01*
X137932312Y-97388940D01*
X138002702Y-97429163D01*
X138053057Y-97469447D01*
X138103238Y-97529663D01*
X138143377Y-97579838D01*
X138178730Y-97641707D01*
X138178730Y-97378017D01*
X138221818Y-97388789D01*
X138271768Y-97398779D01*
X138321827Y-97408791D01*
X138361819Y-97418790D01*
X138411523Y-97428730D01*
X138461583Y-97428730D01*
X138501819Y-97438790D01*
X138553810Y-97449188D01*
X138553810Y-98803810D01*
X138158730Y-98803810D01*
X138158730Y-98071551D01*
X138138804Y-97981884D01*
X138118913Y-97912263D01*
X138079177Y-97842725D01*
X138029612Y-97783248D01*
X137960315Y-97743650D01*
X137880832Y-97723779D01*
X137781147Y-97713810D01*
X137671870Y-97713810D01*
X137651870Y-97723810D01*
X137638730Y-97723810D01*
X137638730Y-97358730D01*
X137650218Y-97358730D01*
X137660218Y-97348730D01*
X137801626Y-97348730D01*
X137872021Y-97368843D01*
G37*
G36*
X134153810Y-98231115D02*
G01*
X134163746Y-98310596D01*
X134193578Y-98380206D01*
X134223358Y-98439766D01*
X134262845Y-98479253D01*
X134312165Y-98508845D01*
X134371636Y-98518756D01*
X134451218Y-98528705D01*
X134510812Y-98518771D01*
X134560341Y-98508866D01*
X134609537Y-98479348D01*
X134639238Y-98439746D01*
X134668867Y-98400241D01*
X134678756Y-98340904D01*
X134688750Y-98260955D01*
X134698730Y-98181115D01*
X134698730Y-97378730D01*
X135083810Y-97378730D01*
X135083810Y-98381499D01*
X135063744Y-98491864D01*
X135033624Y-98592263D01*
X134983269Y-98682902D01*
X134912728Y-98743366D01*
X134822327Y-98793588D01*
X134711805Y-98833778D01*
X134571150Y-98843825D01*
X134510882Y-98833780D01*
X134440684Y-98823752D01*
X134380396Y-98803656D01*
X134330229Y-98783589D01*
X134269893Y-98753422D01*
X134219463Y-98713077D01*
X134179218Y-98662771D01*
X134139911Y-98603810D01*
X134133810Y-98603810D01*
X134133810Y-98803810D01*
X133758730Y-98803810D01*
X133758730Y-97378730D01*
X134153810Y-97378730D01*
X134153810Y-98231115D01*
G37*
G36*
X132861884Y-97358797D02*
G01*
X132922073Y-97378860D01*
X132982396Y-97398968D01*
X133042771Y-97439218D01*
X133092967Y-97479374D01*
X133133244Y-97519652D01*
X133172629Y-97578730D01*
X133178730Y-97578730D01*
X133178730Y-97378730D01*
X133553810Y-97378730D01*
X133553810Y-98803810D01*
X133158730Y-98803810D01*
X133158730Y-97961406D01*
X133148788Y-97871928D01*
X133119002Y-97802427D01*
X133089179Y-97752722D01*
X133049573Y-97703214D01*
X133000376Y-97673696D01*
X132940904Y-97663784D01*
X132861323Y-97653836D01*
X132801728Y-97663769D01*
X132752199Y-97673675D01*
X132703004Y-97703193D01*
X132673381Y-97742689D01*
X132643696Y-97792165D01*
X132633780Y-97851658D01*
X132623788Y-97921607D01*
X132613810Y-98001426D01*
X132613810Y-98803810D01*
X132218730Y-98803810D01*
X132218730Y-97931172D01*
X132228748Y-97800945D01*
X132248796Y-97690676D01*
X132278935Y-97590213D01*
X132329269Y-97509678D01*
X132399725Y-97439222D01*
X132490305Y-97388900D01*
X132600841Y-97358754D01*
X132741179Y-97348730D01*
X132801480Y-97348730D01*
X132861884Y-97358797D01*
G37*
G36*
X140981688Y-97358765D02*
G01*
X141042163Y-97368844D01*
X141092577Y-97399092D01*
X141142723Y-97429180D01*
X141192967Y-97469374D01*
X141233166Y-97509573D01*
X141268730Y-97554030D01*
X141268730Y-97378172D01*
X141321768Y-97388779D01*
X141371827Y-97398791D01*
X141411819Y-97408790D01*
X141461827Y-97418791D01*
X141501582Y-97428730D01*
X141551522Y-97428730D01*
X141601827Y-97438791D01*
X141643810Y-97449287D01*
X141643810Y-99302491D01*
X141592967Y-99343166D01*
X141553066Y-99383066D01*
X141502967Y-99433166D01*
X141452857Y-99473253D01*
X141352967Y-99553165D01*
X141258730Y-99647402D01*
X141258730Y-98623810D01*
X141252491Y-98623810D01*
X141213253Y-98672857D01*
X141172968Y-98723213D01*
X141122577Y-98753448D01*
X141072493Y-98783498D01*
X141012064Y-98813713D01*
X140951688Y-98823775D01*
X140891688Y-98833775D01*
X140831312Y-98843838D01*
X140680695Y-98823756D01*
X140560094Y-98783555D01*
X140449615Y-98703207D01*
X140359215Y-98612807D01*
X140297749Y-98500120D01*
X140642568Y-98337852D01*
X140673471Y-98409955D01*
X140713094Y-98459484D01*
X140772450Y-98508947D01*
X140851739Y-98528770D01*
X140931289Y-98538713D01*
X141020776Y-98528770D01*
X141090057Y-98508976D01*
X141149554Y-98459394D01*
X141199127Y-98409821D01*
X141228857Y-98340453D01*
X141248806Y-98260654D01*
X141268730Y-98180958D01*
X141268730Y-98011425D01*
X141258788Y-97931883D01*
X141228918Y-97852232D01*
X141199080Y-97782610D01*
X141149484Y-97723094D01*
X141100000Y-97683506D01*
X141020658Y-97653753D01*
X140941252Y-97643828D01*
X140851928Y-97653752D01*
X140782481Y-97683515D01*
X140722986Y-97723179D01*
X140673461Y-97782610D01*
X140643622Y-97852232D01*
X140613753Y-97931883D01*
X140603810Y-98011425D01*
X140603810Y-98103746D01*
X140208550Y-98113881D01*
X140218748Y-97960918D01*
X140248810Y-97820629D01*
X140288943Y-97690195D01*
X140359241Y-97579728D01*
X140449614Y-97479313D01*
X140560147Y-97408974D01*
X140700748Y-97358759D01*
X140851185Y-97348730D01*
X140921480Y-97348730D01*
X140981688Y-97358765D01*
G37*
G36*
X142691746Y-97368775D02*
G01*
X142792102Y-97388846D01*
X142892686Y-97439138D01*
X142963061Y-97499460D01*
X143033467Y-97579924D01*
X143073770Y-97680680D01*
X143083822Y-97801305D01*
X143073753Y-97891925D01*
X143043513Y-97962485D01*
X143003102Y-98023102D01*
X142942606Y-98063432D01*
X142872404Y-98103547D01*
X142802217Y-98133628D01*
X142721995Y-98163711D01*
X142631795Y-98183755D01*
X142531819Y-98203751D01*
X142451886Y-98223734D01*
X142371986Y-98243709D01*
X142312337Y-98263592D01*
X142262689Y-98293381D01*
X142223274Y-98322942D01*
X142203666Y-98362158D01*
X142193888Y-98401270D01*
X142203734Y-98440654D01*
X142213564Y-98479972D01*
X142242938Y-98509346D01*
X142282610Y-98539100D01*
X142322158Y-98558874D01*
X142361582Y-98568730D01*
X142401583Y-98568730D01*
X142441374Y-98578678D01*
X142500812Y-98568771D01*
X142550812Y-98558771D01*
X142610241Y-98548867D01*
X142649746Y-98519238D01*
X142689456Y-98489456D01*
X142719038Y-98450014D01*
X142738730Y-98400782D01*
X142738730Y-98338730D01*
X143114231Y-98338730D01*
X143093736Y-98471943D01*
X143053495Y-98572546D01*
X142983126Y-98663021D01*
X142902697Y-98733396D01*
X142802181Y-98783654D01*
X142691814Y-98813754D01*
X142571585Y-98833793D01*
X142451270Y-98843819D01*
X142330955Y-98833793D01*
X142210726Y-98813754D01*
X142100359Y-98783654D01*
X141999843Y-98733396D01*
X141919397Y-98663007D01*
X141859012Y-98582492D01*
X141818798Y-98471903D01*
X141798708Y-98341324D01*
X141808787Y-98250615D01*
X141839027Y-98180055D01*
X141879361Y-98119555D01*
X141939816Y-98069176D01*
X142010010Y-98029065D01*
X142080344Y-97988874D01*
X142170686Y-97968798D01*
X142330654Y-97928806D01*
X142410803Y-97908769D01*
X142490703Y-97898782D01*
X142550296Y-97878917D01*
X142609930Y-97849100D01*
X142649456Y-97819456D01*
X142678931Y-97780156D01*
X142688730Y-97740958D01*
X142688730Y-97702039D01*
X142669157Y-97672679D01*
X142649641Y-97643405D01*
X142620555Y-97633710D01*
X142580559Y-97623711D01*
X142550857Y-97613810D01*
X142381758Y-97613810D01*
X142332318Y-97633586D01*
X142292544Y-97653473D01*
X142263102Y-97673102D01*
X142243530Y-97702460D01*
X142223716Y-97751994D01*
X142213352Y-97803810D01*
X141838272Y-97803810D01*
X141858827Y-97680476D01*
X141909101Y-97579929D01*
X141969456Y-97499456D01*
X142049976Y-97439066D01*
X142140386Y-97398883D01*
X142240676Y-97368796D01*
X142351041Y-97348730D01*
X142581499Y-97348730D01*
X142691746Y-97368775D01*
G37*
G36*
X135902127Y-94568844D02*
G01*
X136012741Y-94629179D01*
X136103171Y-94709561D01*
X136153559Y-94780104D01*
X136183810Y-94870858D01*
X136183810Y-94951549D01*
X136163669Y-95042181D01*
X136113359Y-95132739D01*
X136043175Y-95212950D01*
X135963175Y-95302950D01*
X135893447Y-95382641D01*
X135863810Y-95451793D01*
X135863810Y-95520857D01*
X135883537Y-95580038D01*
X135923008Y-95629376D01*
X135982313Y-95668913D01*
X136061582Y-95688730D01*
X136141017Y-95688730D01*
X136190547Y-95678824D01*
X136240081Y-95659011D01*
X136269651Y-95639297D01*
X136299182Y-95609766D01*
X136318917Y-95570296D01*
X136328730Y-95540857D01*
X136328730Y-95511683D01*
X136318967Y-95482394D01*
X136299297Y-95452889D01*
X136259899Y-95413491D01*
X136230296Y-95403623D01*
X136210134Y-95393542D01*
X136189765Y-95383358D01*
X136176982Y-95370574D01*
X136200670Y-95358730D01*
X136220958Y-95358730D01*
X136260957Y-95348730D01*
X136341480Y-95348730D01*
X136401958Y-95358810D01*
X136452213Y-95378912D01*
X136502525Y-95399036D01*
X136542689Y-95429160D01*
X136593121Y-95459419D01*
X136623498Y-95510047D01*
X136653623Y-95570296D01*
X136673765Y-95630722D01*
X136683794Y-95720990D01*
X136693810Y-95811129D01*
X136693810Y-97093810D01*
X136679911Y-97093810D01*
X136659297Y-97062889D01*
X136629346Y-97032938D01*
X136599347Y-96992939D01*
X136549392Y-96942985D01*
X136499394Y-96882986D01*
X136439325Y-96822917D01*
X136389326Y-96752918D01*
X136319474Y-96683066D01*
X136259392Y-96622985D01*
X136209484Y-96563094D01*
X136159683Y-96523253D01*
X136109818Y-96483361D01*
X136060376Y-96453696D01*
X136001062Y-96443810D01*
X135811060Y-96443810D01*
X135690726Y-96423754D01*
X135580462Y-96393682D01*
X135480138Y-96353553D01*
X135379768Y-96293331D01*
X135299534Y-96223126D01*
X135219362Y-96142954D01*
X135149145Y-96052675D01*
X135048903Y-95872240D01*
X134998749Y-95691685D01*
X134988717Y-95511104D01*
X135018810Y-95350605D01*
X135068957Y-95210194D01*
X135139203Y-95089772D01*
X135219697Y-94999217D01*
X135303810Y-94957160D01*
X135303810Y-95040857D01*
X135313680Y-95070467D01*
X135323405Y-95099641D01*
X135352394Y-95118967D01*
X135381683Y-95128730D01*
X135450670Y-95128730D01*
X135529996Y-95089067D01*
X135559798Y-95069199D01*
X135599802Y-95039196D01*
X135629652Y-95019297D01*
X135659183Y-94989766D01*
X135679069Y-94949993D01*
X135698913Y-94920228D01*
X135708829Y-94880559D01*
X135718593Y-94851270D01*
X135708917Y-94822244D01*
X135698917Y-94802244D01*
X135688967Y-94772394D01*
X135669399Y-94743042D01*
X135629930Y-94713440D01*
X135590439Y-94693695D01*
X135540713Y-94683749D01*
X135500958Y-94673810D01*
X135471683Y-94673810D01*
X135441682Y-94683810D01*
X135405138Y-94683810D01*
X135419602Y-94669346D01*
X135459929Y-94639101D01*
X135520253Y-94608939D01*
X135600422Y-94578875D01*
X135690858Y-94548730D01*
X135791499Y-94548730D01*
X135902127Y-94568844D01*
G37*
G36*
X139561728Y-97358771D02*
G01*
X139621884Y-97368797D01*
X139681924Y-97388811D01*
X139731997Y-97398825D01*
X139782402Y-97418987D01*
X139832577Y-97449092D01*
X139882689Y-97479159D01*
X139923084Y-97509456D01*
X139953381Y-97549851D01*
X139983382Y-97599852D01*
X140013549Y-97640076D01*
X140033743Y-97700656D01*
X140043775Y-97760852D01*
X140054268Y-97823810D01*
X139658730Y-97823810D01*
X139658730Y-97771870D01*
X139648917Y-97752244D01*
X139638917Y-97722244D01*
X139629182Y-97702774D01*
X139589766Y-97663358D01*
X139490670Y-97613810D01*
X139311870Y-97613810D01*
X139291870Y-97623810D01*
X139271870Y-97623810D01*
X139232406Y-97643542D01*
X139213164Y-97653164D01*
X139203358Y-97672775D01*
X139193358Y-97682775D01*
X139183542Y-97702406D01*
X139163810Y-97741870D01*
X139163810Y-97850424D01*
X139193004Y-97889348D01*
X139242338Y-97918949D01*
X139302021Y-97938843D01*
X139374330Y-97959503D01*
X139323253Y-98163810D01*
X139280670Y-98163810D01*
X139260670Y-98153810D01*
X139240670Y-98153810D01*
X139200670Y-98133810D01*
X139180218Y-98133810D01*
X139163810Y-98117402D01*
X139163810Y-98340857D01*
X139173623Y-98370296D01*
X139183623Y-98390296D01*
X139193680Y-98420467D01*
X139203491Y-98449899D01*
X139223244Y-98469652D01*
X139243244Y-98499652D01*
X139262889Y-98519297D01*
X139292313Y-98538913D01*
X139332157Y-98548873D01*
X139371870Y-98568730D01*
X139421522Y-98568730D01*
X139471523Y-98578730D01*
X139520670Y-98578730D01*
X139540670Y-98568730D01*
X139560670Y-98568730D01*
X139580670Y-98558730D01*
X139600670Y-98558730D01*
X139620134Y-98548998D01*
X139639766Y-98539183D01*
X139649765Y-98529182D01*
X139669377Y-98519377D01*
X139679182Y-98499765D01*
X139689183Y-98489766D01*
X139698730Y-98470670D01*
X139698730Y-98450858D01*
X139708730Y-98420858D01*
X139708730Y-98371870D01*
X139698730Y-98351870D01*
X139698730Y-98331870D01*
X139669377Y-98273164D01*
X139649765Y-98263358D01*
X139639766Y-98253358D01*
X139620134Y-98243542D01*
X139599765Y-98233358D01*
X139589766Y-98223358D01*
X139570296Y-98213623D01*
X139537953Y-98202842D01*
X139619596Y-97988528D01*
X139711720Y-97998764D01*
X139792026Y-98018841D01*
X139872353Y-98048963D01*
X139942740Y-98089184D01*
X140013257Y-98149628D01*
X140053600Y-98220228D01*
X140083737Y-98310638D01*
X140103856Y-98421293D01*
X140093810Y-98471523D01*
X140093810Y-98521870D01*
X140073695Y-98562102D01*
X140063662Y-98612261D01*
X140043344Y-98642738D01*
X140013342Y-98682742D01*
X139993244Y-98712888D01*
X139962775Y-98743358D01*
X139922544Y-98763474D01*
X139892547Y-98783471D01*
X139852311Y-98803589D01*
X139802053Y-98823692D01*
X139761583Y-98833810D01*
X139711523Y-98833810D01*
X139661522Y-98843810D01*
X139550858Y-98843810D01*
X139520857Y-98833810D01*
X139480858Y-98833810D01*
X139450857Y-98823810D01*
X139420858Y-98823810D01*
X139390467Y-98813680D01*
X139330467Y-98793680D01*
X139300144Y-98783572D01*
X139270146Y-98763573D01*
X139240144Y-98753572D01*
X139209652Y-98733244D01*
X139189652Y-98713244D01*
X139159438Y-98693102D01*
X139143810Y-98669659D01*
X139143810Y-98722322D01*
X139133810Y-98732322D01*
X139133810Y-98762322D01*
X139123810Y-98772322D01*
X139123810Y-98782322D01*
X139113810Y-98792322D01*
X139113810Y-98803810D01*
X138718730Y-98803810D01*
X138718730Y-98790218D01*
X138729182Y-98779766D01*
X138738730Y-98760670D01*
X138738730Y-98730670D01*
X138748730Y-98710670D01*
X138748730Y-98690670D01*
X138758730Y-98670670D01*
X138758730Y-98580670D01*
X138768730Y-98560670D01*
X138768730Y-97691018D01*
X138778825Y-97640543D01*
X138798951Y-97590229D01*
X138819101Y-97549929D01*
X138849456Y-97509456D01*
X138889746Y-97479238D01*
X138929746Y-97449238D01*
X138970015Y-97419036D01*
X139020543Y-97398825D01*
X139070547Y-97388825D01*
X139120543Y-97368825D01*
X139171018Y-97358730D01*
X139231017Y-97358730D01*
X139281018Y-97348730D01*
X139511522Y-97348730D01*
X139561728Y-97358771D01*
G37*
%TD*%
%LPC*%
D12*
%TO.C,U1*%
X169696100Y-108514200D03*
X169696100Y-105214200D03*
X169696100Y-107414200D03*
X169696100Y-103014200D03*
X169696100Y-101914200D03*
X169696100Y-109614200D03*
D13*
X169896100Y-104114200D03*
D14*
X169896100Y-106314200D03*
%TD*%
D15*
%TO.C,JP1*%
X127596900Y-117398800D03*
X130136900Y-117398800D03*
X132676900Y-117398800D03*
D16*
X135216900Y-117398800D03*
D15*
X137756900Y-117398800D03*
X140296900Y-117398800D03*
X142836900Y-117398800D03*
X145376900Y-117398800D03*
%TD*%
D17*
%TO.C,Card1*%
X141610000Y-95450000D03*
X133610000Y-95450000D03*
%TD*%
%LPD*%
M02*
