%TF.GenerationSoftware,KiCad,Pcbnew,7.0.9*%
%TF.CreationDate,2023-12-03T04:53:17-05:00*%
%TF.ProjectId,SparkFun_MicroSD_Sniffer_v10,53706172-6b46-4756-9e5f-4d6963726f53,rev?*%
%TF.SameCoordinates,Original*%
%TF.FileFunction,Copper,L16,Bot*%
%TF.FilePolarity,Positive*%
%FSLAX46Y46*%
G04 Gerber Fmt 4.6, Leading zero omitted, Abs format (unit mm)*
G04 Created by KiCad (PCBNEW 7.0.9) date 2023-12-03 04:53:17*
%MOMM*%
%LPD*%
G01*
G04 APERTURE LIST*
%ADD10C,0.190500*%
%TA.AperFunction,NonConductor*%
%ADD11C,0.190500*%
%TD*%
%TA.AperFunction,SMDPad,CuDef*%
%ADD12R,3.250000X0.850000*%
%TD*%
%TA.AperFunction,SMDPad,CuDef*%
%ADD13R,3.750000X0.850000*%
%TD*%
%TA.AperFunction,ComponentPad*%
%ADD14C,1.879600*%
%TD*%
%TA.AperFunction,ComponentPad*%
%ADD15R,1.879600X1.879600*%
%TD*%
%TA.AperFunction,ComponentPad*%
%ADD16C,1.000000*%
%TD*%
%TA.AperFunction,ViaPad*%
%ADD17C,0.600000*%
%TD*%
%TA.AperFunction,Conductor*%
%ADD18C,0.200000*%
%TD*%
%TA.AperFunction,Conductor*%
%ADD19C,0.850000*%
%TD*%
G04 APERTURE END LIST*
D10*
D11*
X146551862Y-91828483D02*
X146192029Y-92907983D01*
X146192029Y-92907983D02*
X145832195Y-91828483D01*
X144906909Y-92907983D02*
X145523766Y-92907983D01*
X145215338Y-92907983D02*
X145215338Y-91828483D01*
X145215338Y-91828483D02*
X145318147Y-91982698D01*
X145318147Y-91982698D02*
X145420957Y-92085507D01*
X145420957Y-92085507D02*
X145523766Y-92136912D01*
X144238648Y-91828483D02*
X144135838Y-91828483D01*
X144135838Y-91828483D02*
X144033029Y-91879888D01*
X144033029Y-91879888D02*
X143981624Y-91931293D01*
X143981624Y-91931293D02*
X143930219Y-92034102D01*
X143930219Y-92034102D02*
X143878814Y-92239721D01*
X143878814Y-92239721D02*
X143878814Y-92496745D01*
X143878814Y-92496745D02*
X143930219Y-92702364D01*
X143930219Y-92702364D02*
X143981624Y-92805174D01*
X143981624Y-92805174D02*
X144033029Y-92856579D01*
X144033029Y-92856579D02*
X144135838Y-92907983D01*
X144135838Y-92907983D02*
X144238648Y-92907983D01*
X144238648Y-92907983D02*
X144341457Y-92856579D01*
X144341457Y-92856579D02*
X144392862Y-92805174D01*
X144392862Y-92805174D02*
X144444267Y-92702364D01*
X144444267Y-92702364D02*
X144495671Y-92496745D01*
X144495671Y-92496745D02*
X144495671Y-92239721D01*
X144495671Y-92239721D02*
X144444267Y-92034102D01*
X144444267Y-92034102D02*
X144392862Y-91931293D01*
X144392862Y-91931293D02*
X144341457Y-91879888D01*
X144341457Y-91879888D02*
X144238648Y-91828483D01*
X143416172Y-92907983D02*
X143416172Y-91828483D01*
X143416172Y-92239721D02*
X143313362Y-92188317D01*
X143313362Y-92188317D02*
X143107743Y-92188317D01*
X143107743Y-92188317D02*
X143004934Y-92239721D01*
X143004934Y-92239721D02*
X142953529Y-92291126D01*
X142953529Y-92291126D02*
X142902124Y-92393936D01*
X142902124Y-92393936D02*
X142902124Y-92702364D01*
X142902124Y-92702364D02*
X142953529Y-92805174D01*
X142953529Y-92805174D02*
X143004934Y-92856579D01*
X143004934Y-92856579D02*
X143107743Y-92907983D01*
X143107743Y-92907983D02*
X143313362Y-92907983D01*
X143313362Y-92907983D02*
X143416172Y-92856579D01*
D10*
D11*
X147045674Y-122590179D02*
X146891460Y-122641583D01*
X146891460Y-122641583D02*
X146634436Y-122641583D01*
X146634436Y-122641583D02*
X146531627Y-122590179D01*
X146531627Y-122590179D02*
X146480222Y-122538774D01*
X146480222Y-122538774D02*
X146428817Y-122435964D01*
X146428817Y-122435964D02*
X146428817Y-122333155D01*
X146428817Y-122333155D02*
X146480222Y-122230345D01*
X146480222Y-122230345D02*
X146531627Y-122178940D01*
X146531627Y-122178940D02*
X146634436Y-122127536D01*
X146634436Y-122127536D02*
X146840055Y-122076131D01*
X146840055Y-122076131D02*
X146942865Y-122024726D01*
X146942865Y-122024726D02*
X146994270Y-121973321D01*
X146994270Y-121973321D02*
X147045674Y-121870512D01*
X147045674Y-121870512D02*
X147045674Y-121767702D01*
X147045674Y-121767702D02*
X146994270Y-121664893D01*
X146994270Y-121664893D02*
X146942865Y-121613488D01*
X146942865Y-121613488D02*
X146840055Y-121562083D01*
X146840055Y-121562083D02*
X146583032Y-121562083D01*
X146583032Y-121562083D02*
X146428817Y-121613488D01*
X146737246Y-121407869D02*
X146737246Y-122795798D01*
X145657746Y-123052821D02*
X145709151Y-123052821D01*
X145709151Y-123052821D02*
X145811960Y-123001417D01*
X145811960Y-123001417D02*
X145863365Y-122898607D01*
X145863365Y-122898607D02*
X145863365Y-122384559D01*
X145863365Y-122384559D02*
X145914770Y-122281750D01*
X145914770Y-122281750D02*
X146017579Y-122230345D01*
X146017579Y-122230345D02*
X145914770Y-122178940D01*
X145914770Y-122178940D02*
X145863365Y-122076131D01*
X145863365Y-122076131D02*
X145863365Y-121562083D01*
X145863365Y-121562083D02*
X145811960Y-121459274D01*
X145811960Y-121459274D02*
X145709151Y-121407869D01*
X145709151Y-121407869D02*
X145657746Y-121407869D01*
X145400722Y-121562083D02*
X145040889Y-122641583D01*
X145040889Y-122641583D02*
X144681055Y-121562083D01*
X144321222Y-122076131D02*
X143961388Y-122076131D01*
X143807174Y-122641583D02*
X144321222Y-122641583D01*
X144321222Y-122641583D02*
X144321222Y-121562083D01*
X144321222Y-121562083D02*
X143807174Y-121562083D01*
X142727675Y-122641583D02*
X143087508Y-122127536D01*
X143344532Y-122641583D02*
X143344532Y-121562083D01*
X143344532Y-121562083D02*
X142933294Y-121562083D01*
X142933294Y-121562083D02*
X142830484Y-121613488D01*
X142830484Y-121613488D02*
X142779079Y-121664893D01*
X142779079Y-121664893D02*
X142727675Y-121767702D01*
X142727675Y-121767702D02*
X142727675Y-121921917D01*
X142727675Y-121921917D02*
X142779079Y-122024726D01*
X142779079Y-122024726D02*
X142830484Y-122076131D01*
X142830484Y-122076131D02*
X142933294Y-122127536D01*
X142933294Y-122127536D02*
X143344532Y-122127536D01*
X142316436Y-122590179D02*
X142162222Y-122641583D01*
X142162222Y-122641583D02*
X141905198Y-122641583D01*
X141905198Y-122641583D02*
X141802389Y-122590179D01*
X141802389Y-122590179D02*
X141750984Y-122538774D01*
X141750984Y-122538774D02*
X141699579Y-122435964D01*
X141699579Y-122435964D02*
X141699579Y-122333155D01*
X141699579Y-122333155D02*
X141750984Y-122230345D01*
X141750984Y-122230345D02*
X141802389Y-122178940D01*
X141802389Y-122178940D02*
X141905198Y-122127536D01*
X141905198Y-122127536D02*
X142110817Y-122076131D01*
X142110817Y-122076131D02*
X142213627Y-122024726D01*
X142213627Y-122024726D02*
X142265032Y-121973321D01*
X142265032Y-121973321D02*
X142316436Y-121870512D01*
X142316436Y-121870512D02*
X142316436Y-121767702D01*
X142316436Y-121767702D02*
X142265032Y-121664893D01*
X142265032Y-121664893D02*
X142213627Y-121613488D01*
X142213627Y-121613488D02*
X142110817Y-121562083D01*
X142110817Y-121562083D02*
X141853794Y-121562083D01*
X141853794Y-121562083D02*
X141699579Y-121613488D01*
X141236937Y-122641583D02*
X141236937Y-121562083D01*
X140517270Y-121562083D02*
X140311651Y-121562083D01*
X140311651Y-121562083D02*
X140208841Y-121613488D01*
X140208841Y-121613488D02*
X140106032Y-121716298D01*
X140106032Y-121716298D02*
X140054627Y-121921917D01*
X140054627Y-121921917D02*
X140054627Y-122281750D01*
X140054627Y-122281750D02*
X140106032Y-122487369D01*
X140106032Y-122487369D02*
X140208841Y-122590179D01*
X140208841Y-122590179D02*
X140311651Y-122641583D01*
X140311651Y-122641583D02*
X140517270Y-122641583D01*
X140517270Y-122641583D02*
X140620079Y-122590179D01*
X140620079Y-122590179D02*
X140722889Y-122487369D01*
X140722889Y-122487369D02*
X140774293Y-122281750D01*
X140774293Y-122281750D02*
X140774293Y-121921917D01*
X140774293Y-121921917D02*
X140722889Y-121716298D01*
X140722889Y-121716298D02*
X140620079Y-121613488D01*
X140620079Y-121613488D02*
X140517270Y-121562083D01*
X139591984Y-122641583D02*
X139591984Y-121562083D01*
X139591984Y-121562083D02*
X138975127Y-122641583D01*
X138975127Y-122641583D02*
X138975127Y-121562083D01*
X138563888Y-123052821D02*
X138512483Y-123052821D01*
X138512483Y-123052821D02*
X138409674Y-123001417D01*
X138409674Y-123001417D02*
X138358269Y-122898607D01*
X138358269Y-122898607D02*
X138358269Y-122384559D01*
X138358269Y-122384559D02*
X138306864Y-122281750D01*
X138306864Y-122281750D02*
X138204055Y-122230345D01*
X138204055Y-122230345D02*
X138306864Y-122178940D01*
X138306864Y-122178940D02*
X138358269Y-122076131D01*
X138358269Y-122076131D02*
X138358269Y-121562083D01*
X138358269Y-121562083D02*
X138409674Y-121459274D01*
X138409674Y-121459274D02*
X138512483Y-121407869D01*
X138512483Y-121407869D02*
X138563888Y-121407869D01*
D12*
%TO.P,U1,CD/DAT3,CD/DAT3*%
%TO.N,/CD{slash}DAT3*%
X169696100Y-108514200D03*
%TO.P,U1,CLK,CLK*%
%TO.N,/CLK*%
X169696100Y-105214200D03*
%TO.P,U1,CMD,CMD*%
%TO.N,/CMD*%
X169696100Y-107414200D03*
%TO.P,U1,DAT0,DAT0*%
%TO.N,/DAT0*%
X169696100Y-103014200D03*
%TO.P,U1,DAT1,DAT1*%
%TO.N,/DAT1*%
X169696100Y-101914200D03*
%TO.P,U1,DAT2,DAT2*%
%TO.N,/DAT2*%
X169696100Y-109614200D03*
D13*
%TO.P,U1,GND,GND*%
%TO.N,GND*%
X169896100Y-104114200D03*
%TO.P,U1,VCC,VDD*%
%TO.N,VCC*%
X169896100Y-106314200D03*
%TD*%
D14*
%TO.P,JP1,1,1*%
%TO.N,/DAT2*%
X127596900Y-117398800D03*
%TO.P,JP1,2,2*%
%TO.N,/CD{slash}DAT3*%
X130136900Y-117398800D03*
%TO.P,JP1,3,3*%
%TO.N,/CMD*%
X132676900Y-117398800D03*
D15*
%TO.P,JP1,4,4*%
%TO.N,GND*%
X135216900Y-117398800D03*
D14*
%TO.P,JP1,5,5*%
%TO.N,VCC*%
X137756900Y-117398800D03*
%TO.P,JP1,6,6*%
%TO.N,/CLK*%
X140296900Y-117398800D03*
%TO.P,JP1,7,7*%
%TO.N,/DAT0*%
X142836900Y-117398800D03*
%TO.P,JP1,8,8*%
%TO.N,/DAT1*%
X145376900Y-117398800D03*
%TD*%
D16*
%TO.P,Card1,*%
%TO.N,*%
X141610000Y-95450000D03*
X133610000Y-95450000D03*
%TD*%
D17*
%TO.N,GND*%
X136770000Y-104790000D03*
X144100000Y-116110000D03*
X141590000Y-116130000D03*
X139030000Y-118510000D03*
X136590000Y-115780000D03*
X133850000Y-115810000D03*
X131410000Y-115950000D03*
X128870000Y-115940000D03*
X139880000Y-109150000D03*
X139880000Y-108090000D03*
X146290000Y-102410000D03*
X146470000Y-109120000D03*
X146490000Y-108030000D03*
X146500000Y-106810000D03*
X145770000Y-105690000D03*
X143220000Y-104650000D03*
X139590000Y-104600000D03*
X135960000Y-107830000D03*
X134750000Y-108060000D03*
X128700000Y-109130000D03*
X141480000Y-114190000D03*
X144470000Y-112540000D03*
X139640000Y-111940000D03*
X136690000Y-111240000D03*
X153750000Y-103950000D03*
X129050000Y-112500000D03*
X132760000Y-107790000D03*
X131480000Y-112600000D03*
%TO.N,VCC*%
X137730000Y-104970000D03*
X137740000Y-111570000D03*
%TO.N,/DAT2*%
X129570000Y-109600000D03*
%TO.N,/CD{slash}DAT3*%
X135520000Y-108600000D03*
%TO.N,/CMD*%
X136590000Y-108030000D03*
%TO.N,/CLK*%
X138840000Y-112710000D03*
X138820000Y-105210000D03*
%TO.N,/DAT0*%
X141610000Y-113020000D03*
X143110000Y-103740000D03*
%TO.N,/DAT1*%
X142250000Y-104600000D03*
X144310000Y-113460000D03*
%TD*%
D18*
%TO.N,VCC*%
X137730000Y-105714200D02*
X138330000Y-106314200D01*
X138330000Y-106314200D02*
X169896100Y-106314200D01*
X137730000Y-104970000D02*
X137730000Y-105714200D01*
D19*
%TO.N,GND*%
X161565800Y-104114200D02*
X169896100Y-104114200D01*
D18*
%TO.N,/DAT2*%
X129584200Y-109614200D02*
X129570000Y-109600000D01*
X169696100Y-109614200D02*
X129584200Y-109614200D01*
%TO.N,/CD{slash}DAT3*%
X135583200Y-108633200D02*
X169577100Y-108633200D01*
X169577100Y-108633200D02*
X169696100Y-108514200D01*
%TO.N,/CMD*%
X137205800Y-107414200D02*
X136590000Y-108030000D01*
X169696100Y-107414200D02*
X137205800Y-107414200D01*
%TO.N,/CLK*%
X138820000Y-105210000D02*
X138824200Y-105214200D01*
X169696100Y-105214200D02*
X138820000Y-105210000D01*
%TO.N,/DAT0*%
X169696100Y-103014200D02*
X143835800Y-103014200D01*
X143835800Y-103014200D02*
X143260000Y-103590000D01*
%TO.N,/DAT1*%
X143805800Y-101914200D02*
X142170000Y-103550000D01*
X142170000Y-103550000D02*
X142170000Y-104611500D01*
X169696100Y-101914200D02*
X143805800Y-101914200D01*
%TD*%
%TA.AperFunction,Conductor*%
%TO.N,GND*%
G36*
X146561594Y-91179406D02*
G01*
X146698528Y-91316340D01*
X146716834Y-91360534D01*
X146698528Y-91404728D01*
X146654334Y-91423034D01*
X142498026Y-91423034D01*
X142498026Y-93313432D01*
X146952645Y-93313432D01*
X146952645Y-91721345D01*
X146970951Y-91677151D01*
X147015145Y-91658845D01*
X147059339Y-91677151D01*
X147720294Y-92338106D01*
X147738600Y-92382300D01*
X147738600Y-99889320D01*
X147734660Y-99911159D01*
X147733556Y-99914118D01*
X147733556Y-99914120D01*
X147737172Y-99930742D01*
X147737900Y-99937520D01*
X147737964Y-99937511D01*
X147738599Y-99941932D01*
X147742166Y-99954079D01*
X147742718Y-99956240D01*
X147749471Y-99987282D01*
X147751542Y-99991074D01*
X147751691Y-99991435D01*
X147751736Y-99991511D01*
X147751975Y-99991807D01*
X147754310Y-99995441D01*
X147768285Y-100007550D01*
X147778334Y-100016257D01*
X147779959Y-100017771D01*
X148894703Y-101132515D01*
X148907359Y-101150741D01*
X148908673Y-101153619D01*
X148908675Y-101153621D01*
X148922982Y-101162815D01*
X148928288Y-101167091D01*
X148928327Y-101167040D01*
X148931906Y-101169719D01*
X148943014Y-101175783D01*
X148944935Y-101176923D01*
X148959903Y-101186542D01*
X148971663Y-101194100D01*
X148971665Y-101194100D01*
X148975801Y-101195315D01*
X148976156Y-101195462D01*
X148976258Y-101195488D01*
X148976636Y-101195529D01*
X148980852Y-101196446D01*
X148980853Y-101196445D01*
X148980854Y-101196446D01*
X148987430Y-101195975D01*
X149012547Y-101194180D01*
X149014777Y-101194100D01*
X167783553Y-101194100D01*
X167827747Y-101212406D01*
X167846053Y-101256600D01*
X167827747Y-101300794D01*
X167814867Y-101313673D01*
X167768761Y-101418092D01*
X167765800Y-101443621D01*
X167765800Y-101446400D01*
X167747494Y-101490594D01*
X167703300Y-101508900D01*
X143741607Y-101508900D01*
X143715564Y-101517360D01*
X143706033Y-101519648D01*
X143678999Y-101523930D01*
X143678995Y-101523931D01*
X143654604Y-101536359D01*
X143645547Y-101540110D01*
X143619506Y-101548572D01*
X143619502Y-101548574D01*
X143597356Y-101564663D01*
X143588999Y-101569785D01*
X143564601Y-101582217D01*
X143473817Y-101673002D01*
X141920010Y-103226808D01*
X141838018Y-103308800D01*
X141838016Y-103308803D01*
X141825587Y-103333194D01*
X141820466Y-103341552D01*
X141804372Y-103363704D01*
X141795910Y-103389745D01*
X141792160Y-103398799D01*
X141779731Y-103423194D01*
X141775447Y-103450239D01*
X141773159Y-103459770D01*
X141764700Y-103485807D01*
X141764700Y-104216926D01*
X141751785Y-104254973D01*
X141721272Y-104294738D01*
X141721270Y-104294741D01*
X141660281Y-104441981D01*
X141660278Y-104441991D01*
X141639477Y-104599998D01*
X141639477Y-104600001D01*
X141657173Y-104734419D01*
X141644792Y-104780625D01*
X141603366Y-104804542D01*
X141595199Y-104805077D01*
X139302828Y-104804765D01*
X139258637Y-104786453D01*
X139253259Y-104780320D01*
X139251705Y-104778295D01*
X139251702Y-104778293D01*
X139251701Y-104778291D01*
X139125262Y-104681272D01*
X139125259Y-104681270D01*
X138978018Y-104620281D01*
X138978008Y-104620278D01*
X138820002Y-104599477D01*
X138819998Y-104599477D01*
X138661991Y-104620278D01*
X138661981Y-104620281D01*
X138514741Y-104681270D01*
X138514738Y-104681272D01*
X138390288Y-104776765D01*
X138344083Y-104789145D01*
X138302656Y-104765227D01*
X138294501Y-104751103D01*
X138258728Y-104664739D01*
X138161705Y-104538295D01*
X138161703Y-104538294D01*
X138161703Y-104538293D01*
X138035262Y-104441272D01*
X138035259Y-104441270D01*
X137888018Y-104380281D01*
X137888008Y-104380278D01*
X137730002Y-104359477D01*
X137729998Y-104359477D01*
X137571991Y-104380278D01*
X137571981Y-104380281D01*
X137424741Y-104441270D01*
X137424738Y-104441272D01*
X137298295Y-104538295D01*
X137201272Y-104664738D01*
X137201270Y-104664741D01*
X137140281Y-104811981D01*
X137140278Y-104811991D01*
X137119477Y-104969998D01*
X137119477Y-104970001D01*
X137140278Y-105128008D01*
X137140281Y-105128018D01*
X137201270Y-105275259D01*
X137201272Y-105275262D01*
X137298295Y-105401705D01*
X137300245Y-105403201D01*
X137300865Y-105404275D01*
X137301188Y-105404598D01*
X137301101Y-105404684D01*
X137324165Y-105444624D01*
X137324700Y-105452787D01*
X137324700Y-105778395D01*
X137333159Y-105804427D01*
X137335448Y-105813963D01*
X137339730Y-105841001D01*
X137339731Y-105841004D01*
X137352159Y-105865396D01*
X137355911Y-105874454D01*
X137364373Y-105900497D01*
X137380463Y-105922643D01*
X137385586Y-105931003D01*
X137398016Y-105955397D01*
X137998018Y-106555399D01*
X138088798Y-106646180D01*
X138088800Y-106646181D01*
X138088801Y-106646182D01*
X138113195Y-106658610D01*
X138121556Y-106663734D01*
X138143704Y-106679826D01*
X138169738Y-106688285D01*
X138178796Y-106692036D01*
X138203194Y-106704468D01*
X138230244Y-106708752D01*
X138239761Y-106711037D01*
X138265807Y-106719500D01*
X138298103Y-106719500D01*
X167653301Y-106719500D01*
X167697495Y-106737806D01*
X167715801Y-106782000D01*
X167715801Y-106784778D01*
X167718762Y-106810309D01*
X167718762Y-106810310D01*
X167761391Y-106906855D01*
X167766301Y-106939291D01*
X167765800Y-106943616D01*
X167765800Y-106946400D01*
X167747494Y-106990594D01*
X167703300Y-107008900D01*
X137141607Y-107008900D01*
X137115570Y-107017359D01*
X137106039Y-107019647D01*
X137078994Y-107023931D01*
X137054599Y-107036360D01*
X137045545Y-107040110D01*
X137019504Y-107048572D01*
X136997352Y-107064666D01*
X136988994Y-107069787D01*
X136964603Y-107082216D01*
X136941764Y-107105055D01*
X136644791Y-107402026D01*
X136600597Y-107420332D01*
X136592447Y-107419798D01*
X136590006Y-107419477D01*
X136589997Y-107419477D01*
X136431991Y-107440278D01*
X136431981Y-107440281D01*
X136284741Y-107501270D01*
X136284738Y-107501272D01*
X136158295Y-107598295D01*
X136061272Y-107724738D01*
X136061270Y-107724741D01*
X136000281Y-107871981D01*
X136000278Y-107871991D01*
X135979477Y-108029998D01*
X135979477Y-108030003D01*
X135983155Y-108057943D01*
X135970774Y-108104148D01*
X135929347Y-108128065D01*
X135883143Y-108115685D01*
X135825262Y-108071272D01*
X135825259Y-108071270D01*
X135678018Y-108010281D01*
X135678008Y-108010278D01*
X135520002Y-107989477D01*
X135519998Y-107989477D01*
X135361991Y-108010278D01*
X135361981Y-108010281D01*
X135214741Y-108071270D01*
X135214738Y-108071272D01*
X135088295Y-108168295D01*
X134991272Y-108294738D01*
X134991270Y-108294741D01*
X134930281Y-108441981D01*
X134930278Y-108441991D01*
X134909477Y-108599998D01*
X134909477Y-108600001D01*
X134930278Y-108758008D01*
X134930281Y-108758018D01*
X134991270Y-108905259D01*
X134991272Y-108905262D01*
X135088294Y-109031705D01*
X135173148Y-109096815D01*
X135197066Y-109138242D01*
X135184686Y-109184447D01*
X135143259Y-109208365D01*
X135135101Y-109208900D01*
X130063684Y-109208900D01*
X130019490Y-109190594D01*
X130014100Y-109184448D01*
X130001704Y-109168293D01*
X129875262Y-109071272D01*
X129875259Y-109071270D01*
X129728018Y-109010281D01*
X129728008Y-109010278D01*
X129570002Y-108989477D01*
X129569998Y-108989477D01*
X129411991Y-109010278D01*
X129411981Y-109010281D01*
X129264741Y-109071270D01*
X129264738Y-109071272D01*
X129138295Y-109168295D01*
X129041272Y-109294738D01*
X129041270Y-109294741D01*
X128980281Y-109441981D01*
X128980278Y-109441991D01*
X128959477Y-109599998D01*
X128959477Y-109600001D01*
X128980278Y-109758008D01*
X128980281Y-109758018D01*
X129041270Y-109905259D01*
X129041272Y-109905262D01*
X129138294Y-110031705D01*
X129207461Y-110084778D01*
X129264738Y-110128728D01*
X129411985Y-110189720D01*
X129411989Y-110189720D01*
X129411991Y-110189721D01*
X129569998Y-110210523D01*
X129570000Y-110210523D01*
X129570002Y-110210523D01*
X129728008Y-110189721D01*
X129728008Y-110189720D01*
X129728015Y-110189720D01*
X129875262Y-110128728D01*
X130000780Y-110032415D01*
X130038827Y-110019500D01*
X167703301Y-110019500D01*
X167747495Y-110037806D01*
X167765801Y-110082000D01*
X167765801Y-110084778D01*
X167768762Y-110110309D01*
X167768762Y-110110310D01*
X167776895Y-110128729D01*
X167814866Y-110214725D01*
X167895575Y-110295434D01*
X167999991Y-110341538D01*
X168025521Y-110344500D01*
X171366678Y-110344499D01*
X171392209Y-110341538D01*
X171496625Y-110295434D01*
X171577334Y-110214725D01*
X171623438Y-110110309D01*
X171626400Y-110084779D01*
X171626399Y-109143622D01*
X171623438Y-109118091D01*
X171610788Y-109089444D01*
X171609683Y-109041624D01*
X171610767Y-109039004D01*
X171623438Y-109010309D01*
X171626400Y-108984779D01*
X171626399Y-108043622D01*
X171623438Y-108018091D01*
X171610788Y-107989444D01*
X171609683Y-107941624D01*
X171610767Y-107939004D01*
X171623438Y-107910309D01*
X171626400Y-107884779D01*
X171626399Y-107106998D01*
X171644705Y-107062805D01*
X171688899Y-107044499D01*
X171728642Y-107044499D01*
X171772836Y-107062805D01*
X171791142Y-107106999D01*
X171791137Y-107107800D01*
X171744020Y-110782921D01*
X171725149Y-110826877D01*
X171681366Y-110844620D01*
X166964419Y-110832587D01*
X166942703Y-110828634D01*
X166939564Y-110827461D01*
X166939560Y-110827460D01*
X166923112Y-110831028D01*
X166916408Y-110831738D01*
X166916421Y-110831828D01*
X166911995Y-110832453D01*
X166899696Y-110836029D01*
X166897596Y-110836562D01*
X166866388Y-110843331D01*
X166862949Y-110845206D01*
X166862543Y-110845373D01*
X166862080Y-110845647D01*
X166861742Y-110845919D01*
X166858444Y-110848026D01*
X166837471Y-110872106D01*
X166835989Y-110873692D01*
X165865636Y-111842822D01*
X165821470Y-111861100D01*
X165216801Y-111861100D01*
X165172607Y-111842794D01*
X164744496Y-111414683D01*
X164731837Y-111396450D01*
X164730526Y-111393580D01*
X164716214Y-111384382D01*
X164710907Y-111380105D01*
X164710869Y-111380157D01*
X164707292Y-111377479D01*
X164696169Y-111371406D01*
X164694248Y-111370266D01*
X164667538Y-111353100D01*
X164663392Y-111351883D01*
X164663029Y-111351732D01*
X164662950Y-111351712D01*
X164662563Y-111351671D01*
X164658346Y-111350753D01*
X164626653Y-111353020D01*
X164624423Y-111353100D01*
X162886380Y-111353100D01*
X162864541Y-111349160D01*
X162861581Y-111348056D01*
X162861578Y-111348055D01*
X162844956Y-111351672D01*
X162838182Y-111352400D01*
X162838192Y-111352464D01*
X162833764Y-111353100D01*
X162821607Y-111356669D01*
X162819449Y-111357220D01*
X162788415Y-111363971D01*
X162784615Y-111366046D01*
X162784257Y-111366194D01*
X162784197Y-111366229D01*
X162783893Y-111366475D01*
X162780258Y-111368810D01*
X162759454Y-111392819D01*
X162757935Y-111394451D01*
X162309593Y-111842794D01*
X162265399Y-111861100D01*
X148916380Y-111861100D01*
X148894541Y-111857160D01*
X148891581Y-111856056D01*
X148891578Y-111856055D01*
X148874956Y-111859672D01*
X148868180Y-111860400D01*
X148868190Y-111860464D01*
X148863764Y-111861100D01*
X148851612Y-111864667D01*
X148849453Y-111865218D01*
X148818416Y-111871971D01*
X148814614Y-111874047D01*
X148814256Y-111874195D01*
X148814199Y-111874228D01*
X148813903Y-111874468D01*
X148810259Y-111876810D01*
X148789448Y-111900826D01*
X148787929Y-111902458D01*
X147800181Y-112890204D01*
X147781957Y-112902859D01*
X147779080Y-112904172D01*
X147779079Y-112904174D01*
X147769881Y-112918486D01*
X147765607Y-112923789D01*
X147765659Y-112923828D01*
X147762978Y-112927409D01*
X147756907Y-112938528D01*
X147755769Y-112940446D01*
X147738599Y-112967163D01*
X147737382Y-112971309D01*
X147737233Y-112971668D01*
X147737214Y-112971744D01*
X147737172Y-112972135D01*
X147736253Y-112976355D01*
X147738520Y-113008046D01*
X147738600Y-113010276D01*
X147738600Y-117624899D01*
X147720294Y-117669093D01*
X146561593Y-118827794D01*
X146517399Y-118846100D01*
X126354800Y-118846100D01*
X126310606Y-118827794D01*
X125151906Y-117669093D01*
X125133600Y-117624899D01*
X125133600Y-117398802D01*
X126347044Y-117398802D01*
X126366031Y-117615831D01*
X126366034Y-117615847D01*
X126422416Y-117826265D01*
X126422422Y-117826281D01*
X126514490Y-118023724D01*
X126514492Y-118023726D01*
X126639455Y-118202193D01*
X126793506Y-118356244D01*
X126833129Y-118383988D01*
X126971972Y-118481207D01*
X126971973Y-118481207D01*
X126971975Y-118481209D01*
X127040963Y-118513378D01*
X127169424Y-118573280D01*
X127169431Y-118573281D01*
X127169434Y-118573283D01*
X127379852Y-118629665D01*
X127379858Y-118629666D01*
X127379865Y-118629668D01*
X127493972Y-118639651D01*
X127596898Y-118648656D01*
X127596900Y-118648656D01*
X127596902Y-118648656D01*
X127669245Y-118642326D01*
X127813935Y-118629668D01*
X127813944Y-118629665D01*
X127813947Y-118629665D01*
X128024365Y-118573283D01*
X128024365Y-118573282D01*
X128024376Y-118573280D01*
X128221828Y-118481207D01*
X128400292Y-118356245D01*
X128554345Y-118202192D01*
X128679307Y-118023728D01*
X128771380Y-117826276D01*
X128772043Y-117823803D01*
X128806530Y-117695097D01*
X128835650Y-117657146D01*
X128883076Y-117650903D01*
X128921027Y-117680023D01*
X128927270Y-117695097D01*
X128962416Y-117826265D01*
X128962422Y-117826281D01*
X129054490Y-118023724D01*
X129054492Y-118023726D01*
X129179455Y-118202193D01*
X129333506Y-118356244D01*
X129373129Y-118383988D01*
X129511972Y-118481207D01*
X129511973Y-118481207D01*
X129511975Y-118481209D01*
X129580963Y-118513378D01*
X129709424Y-118573280D01*
X129709431Y-118573281D01*
X129709434Y-118573283D01*
X129919852Y-118629665D01*
X129919858Y-118629666D01*
X129919865Y-118629668D01*
X130033972Y-118639651D01*
X130136898Y-118648656D01*
X130136900Y-118648656D01*
X130136902Y-118648656D01*
X130209245Y-118642326D01*
X130353935Y-118629668D01*
X130353944Y-118629665D01*
X130353947Y-118629665D01*
X130564365Y-118573283D01*
X130564365Y-118573282D01*
X130564376Y-118573280D01*
X130761828Y-118481207D01*
X130940292Y-118356245D01*
X131094345Y-118202192D01*
X131219307Y-118023728D01*
X131311380Y-117826276D01*
X131312043Y-117823803D01*
X131346530Y-117695097D01*
X131375650Y-117657146D01*
X131423076Y-117650903D01*
X131461027Y-117680023D01*
X131467270Y-117695097D01*
X131502416Y-117826265D01*
X131502422Y-117826281D01*
X131594490Y-118023724D01*
X131594492Y-118023726D01*
X131719455Y-118202193D01*
X131873506Y-118356244D01*
X131913129Y-118383988D01*
X132051972Y-118481207D01*
X132051973Y-118481207D01*
X132051975Y-118481209D01*
X132120963Y-118513378D01*
X132249424Y-118573280D01*
X132249431Y-118573281D01*
X132249434Y-118573283D01*
X132459852Y-118629665D01*
X132459858Y-118629666D01*
X132459865Y-118629668D01*
X132573972Y-118639651D01*
X132676898Y-118648656D01*
X132676900Y-118648656D01*
X132676902Y-118648656D01*
X132749245Y-118642326D01*
X132893935Y-118629668D01*
X132893944Y-118629665D01*
X132893947Y-118629665D01*
X133104365Y-118573283D01*
X133104365Y-118573282D01*
X133104376Y-118573280D01*
X133301828Y-118481207D01*
X133480292Y-118356245D01*
X133634345Y-118202192D01*
X133759307Y-118023728D01*
X133851380Y-117826276D01*
X133851384Y-117826260D01*
X133851867Y-117824935D01*
X133852148Y-117824627D01*
X133852533Y-117823803D01*
X133852792Y-117823924D01*
X133884180Y-117789664D01*
X133931970Y-117787572D01*
X133967241Y-117819885D01*
X133973100Y-117846305D01*
X133973100Y-118383988D01*
X133976049Y-118409407D01*
X133976049Y-118409408D01*
X134021957Y-118513378D01*
X134102321Y-118593742D01*
X134206294Y-118639651D01*
X134231711Y-118642599D01*
X135064900Y-118642599D01*
X135064900Y-117887851D01*
X135072308Y-117891235D01*
X135180566Y-117906800D01*
X135253234Y-117906800D01*
X135361492Y-117891235D01*
X135368900Y-117887851D01*
X135368900Y-118642599D01*
X136202088Y-118642599D01*
X136227507Y-118639650D01*
X136227508Y-118639650D01*
X136331478Y-118593742D01*
X136411842Y-118513378D01*
X136457751Y-118409405D01*
X136460699Y-118383988D01*
X136460699Y-117846306D01*
X136479005Y-117802112D01*
X136523199Y-117783806D01*
X136567393Y-117802112D01*
X136581227Y-117823821D01*
X136581267Y-117823803D01*
X136581407Y-117824104D01*
X136581926Y-117824918D01*
X136582417Y-117826265D01*
X136582420Y-117826276D01*
X136582422Y-117826280D01*
X136674490Y-118023724D01*
X136674492Y-118023726D01*
X136799455Y-118202193D01*
X136953506Y-118356244D01*
X136993129Y-118383988D01*
X137131972Y-118481207D01*
X137131973Y-118481207D01*
X137131975Y-118481209D01*
X137200963Y-118513378D01*
X137329424Y-118573280D01*
X137329431Y-118573281D01*
X137329434Y-118573283D01*
X137539852Y-118629665D01*
X137539858Y-118629666D01*
X137539865Y-118629668D01*
X137653972Y-118639651D01*
X137756898Y-118648656D01*
X137756900Y-118648656D01*
X137756902Y-118648656D01*
X137829245Y-118642326D01*
X137973935Y-118629668D01*
X137973944Y-118629665D01*
X137973947Y-118629665D01*
X138184365Y-118573283D01*
X138184365Y-118573282D01*
X138184376Y-118573280D01*
X138381828Y-118481207D01*
X138560292Y-118356245D01*
X138714345Y-118202192D01*
X138839307Y-118023728D01*
X138931380Y-117826276D01*
X138932043Y-117823803D01*
X138966530Y-117695097D01*
X138995650Y-117657146D01*
X139043076Y-117650903D01*
X139081027Y-117680023D01*
X139087270Y-117695097D01*
X139122416Y-117826265D01*
X139122422Y-117826281D01*
X139214490Y-118023724D01*
X139214492Y-118023726D01*
X139339455Y-118202193D01*
X139493506Y-118356244D01*
X139533129Y-118383988D01*
X139671972Y-118481207D01*
X139671973Y-118481207D01*
X139671975Y-118481209D01*
X139740963Y-118513378D01*
X139869424Y-118573280D01*
X139869431Y-118573281D01*
X139869434Y-118573283D01*
X140079852Y-118629665D01*
X140079858Y-118629666D01*
X140079865Y-118629668D01*
X140193972Y-118639651D01*
X140296898Y-118648656D01*
X140296900Y-118648656D01*
X140296902Y-118648656D01*
X140369245Y-118642326D01*
X140513935Y-118629668D01*
X140513944Y-118629665D01*
X140513947Y-118629665D01*
X140724365Y-118573283D01*
X140724365Y-118573282D01*
X140724376Y-118573280D01*
X140921828Y-118481207D01*
X141100292Y-118356245D01*
X141254345Y-118202192D01*
X141379307Y-118023728D01*
X141471380Y-117826276D01*
X141472043Y-117823803D01*
X141506530Y-117695097D01*
X141535650Y-117657146D01*
X141583076Y-117650903D01*
X141621027Y-117680023D01*
X141627270Y-117695097D01*
X141662416Y-117826265D01*
X141662422Y-117826281D01*
X141754490Y-118023724D01*
X141754492Y-118023726D01*
X141879455Y-118202193D01*
X142033506Y-118356244D01*
X142073129Y-118383988D01*
X142211972Y-118481207D01*
X142211973Y-118481207D01*
X142211975Y-118481209D01*
X142280963Y-118513378D01*
X142409424Y-118573280D01*
X142409431Y-118573281D01*
X142409434Y-118573283D01*
X142619852Y-118629665D01*
X142619858Y-118629666D01*
X142619865Y-118629668D01*
X142733972Y-118639651D01*
X142836898Y-118648656D01*
X142836900Y-118648656D01*
X142836902Y-118648656D01*
X142909245Y-118642326D01*
X143053935Y-118629668D01*
X143053944Y-118629665D01*
X143053947Y-118629665D01*
X143264365Y-118573283D01*
X143264365Y-118573282D01*
X143264376Y-118573280D01*
X143461828Y-118481207D01*
X143640292Y-118356245D01*
X143794345Y-118202192D01*
X143919307Y-118023728D01*
X144011380Y-117826276D01*
X144012043Y-117823803D01*
X144046530Y-117695097D01*
X144075650Y-117657146D01*
X144123076Y-117650903D01*
X144161027Y-117680023D01*
X144167270Y-117695097D01*
X144202416Y-117826265D01*
X144202422Y-117826281D01*
X144294490Y-118023724D01*
X144294492Y-118023726D01*
X144419455Y-118202193D01*
X144573506Y-118356244D01*
X144613129Y-118383988D01*
X144751972Y-118481207D01*
X144751973Y-118481207D01*
X144751975Y-118481209D01*
X144820963Y-118513378D01*
X144949424Y-118573280D01*
X144949431Y-118573281D01*
X144949434Y-118573283D01*
X145159852Y-118629665D01*
X145159858Y-118629666D01*
X145159865Y-118629668D01*
X145273972Y-118639651D01*
X145376898Y-118648656D01*
X145376900Y-118648656D01*
X145376902Y-118648656D01*
X145449245Y-118642326D01*
X145593935Y-118629668D01*
X145593944Y-118629665D01*
X145593947Y-118629665D01*
X145804365Y-118573283D01*
X145804365Y-118573282D01*
X145804376Y-118573280D01*
X146001828Y-118481207D01*
X146180292Y-118356245D01*
X146334345Y-118202192D01*
X146459307Y-118023728D01*
X146551380Y-117826276D01*
X146552043Y-117823803D01*
X146607765Y-117615847D01*
X146607765Y-117615844D01*
X146607768Y-117615835D01*
X146626756Y-117398800D01*
X146607768Y-117181765D01*
X146598371Y-117146696D01*
X146551383Y-116971334D01*
X146551381Y-116971331D01*
X146551380Y-116971324D01*
X146513831Y-116890800D01*
X146459309Y-116773875D01*
X146459307Y-116773873D01*
X146459307Y-116773872D01*
X146334345Y-116595408D01*
X146334344Y-116595406D01*
X146180293Y-116441355D01*
X146066753Y-116361854D01*
X146001828Y-116316393D01*
X146001826Y-116316392D01*
X146001824Y-116316390D01*
X145804381Y-116224322D01*
X145804365Y-116224316D01*
X145593947Y-116167934D01*
X145593931Y-116167931D01*
X145376902Y-116148944D01*
X145376898Y-116148944D01*
X145159868Y-116167931D01*
X145159852Y-116167934D01*
X144949434Y-116224316D01*
X144949418Y-116224322D01*
X144751975Y-116316390D01*
X144751973Y-116316392D01*
X144573506Y-116441355D01*
X144419455Y-116595406D01*
X144294492Y-116773873D01*
X144294490Y-116773875D01*
X144202422Y-116971318D01*
X144202416Y-116971334D01*
X144167270Y-117102502D01*
X144138150Y-117140453D01*
X144090724Y-117146696D01*
X144052773Y-117117576D01*
X144046530Y-117102502D01*
X144011383Y-116971334D01*
X144011381Y-116971331D01*
X144011380Y-116971324D01*
X143973831Y-116890800D01*
X143919309Y-116773875D01*
X143919307Y-116773873D01*
X143919307Y-116773872D01*
X143794345Y-116595408D01*
X143794344Y-116595406D01*
X143640293Y-116441355D01*
X143526753Y-116361854D01*
X143461828Y-116316393D01*
X143461826Y-116316392D01*
X143461824Y-116316390D01*
X143264381Y-116224322D01*
X143264365Y-116224316D01*
X143053947Y-116167934D01*
X143053931Y-116167931D01*
X142836902Y-116148944D01*
X142836898Y-116148944D01*
X142619868Y-116167931D01*
X142619852Y-116167934D01*
X142409434Y-116224316D01*
X142409418Y-116224322D01*
X142211975Y-116316390D01*
X142211973Y-116316392D01*
X142033506Y-116441355D01*
X141879455Y-116595406D01*
X141754492Y-116773873D01*
X141754490Y-116773875D01*
X141662422Y-116971318D01*
X141662416Y-116971334D01*
X141627270Y-117102502D01*
X141598150Y-117140453D01*
X141550724Y-117146696D01*
X141512773Y-117117576D01*
X141506530Y-117102502D01*
X141471383Y-116971334D01*
X141471381Y-116971331D01*
X141471380Y-116971324D01*
X141433831Y-116890800D01*
X141379309Y-116773875D01*
X141379307Y-116773873D01*
X141379307Y-116773872D01*
X141254345Y-116595408D01*
X141254344Y-116595406D01*
X141100293Y-116441355D01*
X140986753Y-116361854D01*
X140921828Y-116316393D01*
X140921826Y-116316392D01*
X140921824Y-116316390D01*
X140724381Y-116224322D01*
X140724365Y-116224316D01*
X140513947Y-116167934D01*
X140513931Y-116167931D01*
X140296902Y-116148944D01*
X140296898Y-116148944D01*
X140079868Y-116167931D01*
X140079852Y-116167934D01*
X139869434Y-116224316D01*
X139869418Y-116224322D01*
X139671975Y-116316390D01*
X139671973Y-116316392D01*
X139493506Y-116441355D01*
X139339455Y-116595406D01*
X139214492Y-116773873D01*
X139214490Y-116773875D01*
X139122422Y-116971318D01*
X139122416Y-116971334D01*
X139087270Y-117102502D01*
X139058150Y-117140453D01*
X139010724Y-117146696D01*
X138972773Y-117117576D01*
X138966530Y-117102502D01*
X138931383Y-116971334D01*
X138931381Y-116971331D01*
X138931380Y-116971324D01*
X138893831Y-116890800D01*
X138839309Y-116773875D01*
X138839307Y-116773873D01*
X138839307Y-116773872D01*
X138714345Y-116595408D01*
X138714344Y-116595406D01*
X138560293Y-116441355D01*
X138446753Y-116361854D01*
X138381828Y-116316393D01*
X138381826Y-116316392D01*
X138381824Y-116316390D01*
X138184381Y-116224322D01*
X138184365Y-116224316D01*
X137973947Y-116167934D01*
X137973931Y-116167931D01*
X137756902Y-116148944D01*
X137756898Y-116148944D01*
X137539868Y-116167931D01*
X137539852Y-116167934D01*
X137329434Y-116224316D01*
X137329418Y-116224322D01*
X137131975Y-116316390D01*
X137131973Y-116316392D01*
X136953506Y-116441355D01*
X136799455Y-116595406D01*
X136674492Y-116773873D01*
X136674490Y-116773875D01*
X136582422Y-116971319D01*
X136581926Y-116972682D01*
X136581642Y-116972990D01*
X136581267Y-116973797D01*
X136581012Y-116973678D01*
X136549601Y-117007943D01*
X136501811Y-117010021D01*
X136466550Y-116977696D01*
X136460699Y-116951294D01*
X136460699Y-116413611D01*
X136457750Y-116388192D01*
X136457750Y-116388191D01*
X136411842Y-116284221D01*
X136331478Y-116203857D01*
X136227505Y-116157948D01*
X136202089Y-116155000D01*
X135368900Y-116155000D01*
X135368900Y-116909748D01*
X135361492Y-116906365D01*
X135253234Y-116890800D01*
X135180566Y-116890800D01*
X135072308Y-116906365D01*
X135064900Y-116909748D01*
X135064900Y-116155000D01*
X134231711Y-116155000D01*
X134206292Y-116157949D01*
X134206291Y-116157949D01*
X134102321Y-116203857D01*
X134021957Y-116284221D01*
X133976048Y-116388194D01*
X133973100Y-116413611D01*
X133973100Y-116951293D01*
X133954794Y-116995487D01*
X133910600Y-117013793D01*
X133866406Y-116995487D01*
X133852574Y-116973777D01*
X133852533Y-116973797D01*
X133852386Y-116973482D01*
X133851870Y-116972672D01*
X133851382Y-116971332D01*
X133851380Y-116971324D01*
X133813831Y-116890800D01*
X133759309Y-116773875D01*
X133759307Y-116773873D01*
X133759307Y-116773872D01*
X133634345Y-116595408D01*
X133634344Y-116595406D01*
X133480293Y-116441355D01*
X133366753Y-116361854D01*
X133301828Y-116316393D01*
X133301826Y-116316392D01*
X133301824Y-116316390D01*
X133104381Y-116224322D01*
X133104365Y-116224316D01*
X132893947Y-116167934D01*
X132893931Y-116167931D01*
X132676902Y-116148944D01*
X132676898Y-116148944D01*
X132459868Y-116167931D01*
X132459852Y-116167934D01*
X132249434Y-116224316D01*
X132249418Y-116224322D01*
X132051975Y-116316390D01*
X132051973Y-116316392D01*
X131873506Y-116441355D01*
X131719455Y-116595406D01*
X131594492Y-116773873D01*
X131594490Y-116773875D01*
X131502422Y-116971318D01*
X131502416Y-116971334D01*
X131467270Y-117102502D01*
X131438150Y-117140453D01*
X131390724Y-117146696D01*
X131352773Y-117117576D01*
X131346530Y-117102502D01*
X131311383Y-116971334D01*
X131311381Y-116971331D01*
X131311380Y-116971324D01*
X131273831Y-116890800D01*
X131219309Y-116773875D01*
X131219307Y-116773873D01*
X131219307Y-116773872D01*
X131094345Y-116595408D01*
X131094344Y-116595406D01*
X130940293Y-116441355D01*
X130826753Y-116361854D01*
X130761828Y-116316393D01*
X130761826Y-116316392D01*
X130761824Y-116316390D01*
X130564381Y-116224322D01*
X130564365Y-116224316D01*
X130353947Y-116167934D01*
X130353931Y-116167931D01*
X130136902Y-116148944D01*
X130136898Y-116148944D01*
X129919868Y-116167931D01*
X129919852Y-116167934D01*
X129709434Y-116224316D01*
X129709418Y-116224322D01*
X129511975Y-116316390D01*
X129511973Y-116316392D01*
X129333506Y-116441355D01*
X129179455Y-116595406D01*
X129054492Y-116773873D01*
X129054490Y-116773875D01*
X128962422Y-116971318D01*
X128962416Y-116971334D01*
X128927270Y-117102502D01*
X128898150Y-117140453D01*
X128850724Y-117146696D01*
X128812773Y-117117576D01*
X128806530Y-117102502D01*
X128771383Y-116971334D01*
X128771381Y-116971331D01*
X128771380Y-116971324D01*
X128733831Y-116890800D01*
X128679309Y-116773875D01*
X128679307Y-116773873D01*
X128679307Y-116773872D01*
X128554345Y-116595408D01*
X128554344Y-116595406D01*
X128400293Y-116441355D01*
X128286753Y-116361854D01*
X128221828Y-116316393D01*
X128221826Y-116316392D01*
X128221824Y-116316390D01*
X128024381Y-116224322D01*
X128024365Y-116224316D01*
X127813947Y-116167934D01*
X127813931Y-116167931D01*
X127596902Y-116148944D01*
X127596898Y-116148944D01*
X127379868Y-116167931D01*
X127379852Y-116167934D01*
X127169434Y-116224316D01*
X127169418Y-116224322D01*
X126971975Y-116316390D01*
X126971973Y-116316392D01*
X126793506Y-116441355D01*
X126639455Y-116595406D01*
X126514492Y-116773873D01*
X126514490Y-116773875D01*
X126422422Y-116971318D01*
X126422416Y-116971334D01*
X126366034Y-117181752D01*
X126366031Y-117181768D01*
X126347044Y-117398797D01*
X126347044Y-117398802D01*
X125133600Y-117398802D01*
X125133600Y-112710001D01*
X138229477Y-112710001D01*
X138250278Y-112868008D01*
X138250281Y-112868018D01*
X138311270Y-113015259D01*
X138311272Y-113015262D01*
X138408294Y-113141705D01*
X138455606Y-113178008D01*
X138534738Y-113238728D01*
X138681985Y-113299720D01*
X138681989Y-113299720D01*
X138681991Y-113299721D01*
X138839998Y-113320523D01*
X138840000Y-113320523D01*
X138840002Y-113320523D01*
X138998008Y-113299721D01*
X138998008Y-113299720D01*
X138998015Y-113299720D01*
X139145262Y-113238728D01*
X139271705Y-113141705D01*
X139365092Y-113020001D01*
X140999477Y-113020001D01*
X141020278Y-113178008D01*
X141020281Y-113178018D01*
X141081270Y-113325259D01*
X141081272Y-113325262D01*
X141178294Y-113451705D01*
X141275317Y-113526152D01*
X141304738Y-113548728D01*
X141451985Y-113609720D01*
X141451989Y-113609720D01*
X141451991Y-113609721D01*
X141609998Y-113630523D01*
X141610000Y-113630523D01*
X141610002Y-113630523D01*
X141768008Y-113609721D01*
X141768008Y-113609720D01*
X141768015Y-113609720D01*
X141915262Y-113548728D01*
X142030893Y-113460001D01*
X143699477Y-113460001D01*
X143720278Y-113618008D01*
X143720281Y-113618018D01*
X143781270Y-113765259D01*
X143781272Y-113765262D01*
X143878294Y-113891705D01*
X143975317Y-113966152D01*
X144004738Y-113988728D01*
X144151985Y-114049720D01*
X144151989Y-114049720D01*
X144151991Y-114049721D01*
X144309998Y-114070523D01*
X144310000Y-114070523D01*
X144310002Y-114070523D01*
X144468008Y-114049721D01*
X144468008Y-114049720D01*
X144468015Y-114049720D01*
X144615262Y-113988728D01*
X144741705Y-113891705D01*
X144838728Y-113765262D01*
X144899720Y-113618015D01*
X144920523Y-113460000D01*
X144902784Y-113325262D01*
X144899721Y-113301991D01*
X144899720Y-113301989D01*
X144899720Y-113301985D01*
X144848369Y-113178015D01*
X144838729Y-113154741D01*
X144838727Y-113154738D01*
X144741705Y-113028295D01*
X144741703Y-113028294D01*
X144741703Y-113028293D01*
X144615262Y-112931272D01*
X144615259Y-112931270D01*
X144468018Y-112870281D01*
X144468008Y-112870278D01*
X144310002Y-112849477D01*
X144309998Y-112849477D01*
X144151991Y-112870278D01*
X144151981Y-112870281D01*
X144004741Y-112931270D01*
X144004738Y-112931272D01*
X143878295Y-113028295D01*
X143781272Y-113154738D01*
X143781270Y-113154741D01*
X143720281Y-113301981D01*
X143720278Y-113301991D01*
X143699477Y-113459998D01*
X143699477Y-113460001D01*
X142030893Y-113460001D01*
X142041705Y-113451705D01*
X142138728Y-113325262D01*
X142199720Y-113178015D01*
X142202784Y-113154739D01*
X142220523Y-113020001D01*
X142220523Y-113019998D01*
X142199721Y-112861991D01*
X142199720Y-112861989D01*
X142199720Y-112861985D01*
X142138728Y-112714739D01*
X142041705Y-112588295D01*
X142041703Y-112588294D01*
X142041703Y-112588293D01*
X141915262Y-112491272D01*
X141915259Y-112491270D01*
X141768018Y-112430281D01*
X141768008Y-112430278D01*
X141610002Y-112409477D01*
X141609998Y-112409477D01*
X141451991Y-112430278D01*
X141451981Y-112430281D01*
X141304741Y-112491270D01*
X141304738Y-112491272D01*
X141178295Y-112588295D01*
X141081272Y-112714738D01*
X141081270Y-112714741D01*
X141020281Y-112861981D01*
X141020278Y-112861991D01*
X140999477Y-113019998D01*
X140999477Y-113020001D01*
X139365092Y-113020001D01*
X139368728Y-113015262D01*
X139429720Y-112868015D01*
X139450523Y-112710000D01*
X139434500Y-112588295D01*
X139429721Y-112551991D01*
X139429720Y-112551989D01*
X139429720Y-112551985D01*
X139368728Y-112404739D01*
X139271705Y-112278295D01*
X139271703Y-112278294D01*
X139271703Y-112278293D01*
X139145262Y-112181272D01*
X139145259Y-112181270D01*
X138998018Y-112120281D01*
X138998008Y-112120278D01*
X138840002Y-112099477D01*
X138839998Y-112099477D01*
X138681991Y-112120278D01*
X138681981Y-112120281D01*
X138534741Y-112181270D01*
X138534738Y-112181272D01*
X138408295Y-112278295D01*
X138311272Y-112404738D01*
X138311270Y-112404741D01*
X138250281Y-112551981D01*
X138250278Y-112551991D01*
X138229477Y-112709998D01*
X138229477Y-112710001D01*
X125133600Y-112710001D01*
X125133600Y-111570001D01*
X137129477Y-111570001D01*
X137150278Y-111728008D01*
X137150281Y-111728018D01*
X137211270Y-111875259D01*
X137211272Y-111875262D01*
X137308294Y-112001705D01*
X137434737Y-112098727D01*
X137434740Y-112098729D01*
X137482341Y-112118446D01*
X137581985Y-112159720D01*
X137581989Y-112159720D01*
X137581991Y-112159721D01*
X137739998Y-112180523D01*
X137740000Y-112180523D01*
X137740002Y-112180523D01*
X137898008Y-112159721D01*
X137898008Y-112159720D01*
X137898015Y-112159720D01*
X138045262Y-112098728D01*
X138171705Y-112001705D01*
X138268728Y-111875262D01*
X138329720Y-111728015D01*
X138350523Y-111570000D01*
X138329720Y-111411985D01*
X138268728Y-111264739D01*
X138171705Y-111138295D01*
X138171703Y-111138294D01*
X138171703Y-111138293D01*
X138045262Y-111041272D01*
X138045259Y-111041270D01*
X137898018Y-110980281D01*
X137898008Y-110980278D01*
X137740002Y-110959477D01*
X137739998Y-110959477D01*
X137581991Y-110980278D01*
X137581981Y-110980281D01*
X137434741Y-111041270D01*
X137434738Y-111041272D01*
X137308295Y-111138295D01*
X137211272Y-111264738D01*
X137211270Y-111264741D01*
X137150281Y-111411981D01*
X137150278Y-111411991D01*
X137129477Y-111569998D01*
X137129477Y-111570001D01*
X125133600Y-111570001D01*
X125133600Y-95450000D01*
X132799604Y-95450000D01*
X132819921Y-95630327D01*
X132879860Y-95801623D01*
X132879861Y-95801624D01*
X132976405Y-95955272D01*
X133104727Y-96083594D01*
X133258375Y-96180138D01*
X133258376Y-96180139D01*
X133258378Y-96180139D01*
X133258382Y-96180142D01*
X133429670Y-96240078D01*
X133610000Y-96260396D01*
X133790330Y-96240078D01*
X133961618Y-96180142D01*
X134115274Y-96083593D01*
X134243593Y-95955274D01*
X134340142Y-95801618D01*
X134400078Y-95630330D01*
X134420396Y-95450000D01*
X140799604Y-95450000D01*
X140819921Y-95630327D01*
X140879860Y-95801623D01*
X140879861Y-95801624D01*
X140976405Y-95955272D01*
X141104727Y-96083594D01*
X141258375Y-96180138D01*
X141258376Y-96180139D01*
X141258378Y-96180139D01*
X141258382Y-96180142D01*
X141429670Y-96240078D01*
X141610000Y-96260396D01*
X141790330Y-96240078D01*
X141961618Y-96180142D01*
X142115274Y-96083593D01*
X142243593Y-95955274D01*
X142340142Y-95801618D01*
X142400078Y-95630330D01*
X142420396Y-95450000D01*
X142400078Y-95269670D01*
X142340142Y-95098382D01*
X142340139Y-95098378D01*
X142340139Y-95098376D01*
X142340138Y-95098375D01*
X142243594Y-94944727D01*
X142115272Y-94816405D01*
X141961624Y-94719861D01*
X141961623Y-94719860D01*
X141961618Y-94719858D01*
X141790330Y-94659922D01*
X141790329Y-94659921D01*
X141790327Y-94659921D01*
X141610000Y-94639604D01*
X141429672Y-94659921D01*
X141258376Y-94719860D01*
X141258375Y-94719861D01*
X141104727Y-94816405D01*
X140976405Y-94944727D01*
X140879861Y-95098375D01*
X140879860Y-95098376D01*
X140819921Y-95269672D01*
X140799604Y-95449999D01*
X140799604Y-95450000D01*
X134420396Y-95450000D01*
X134400078Y-95269670D01*
X134340142Y-95098382D01*
X134340139Y-95098378D01*
X134340139Y-95098376D01*
X134340138Y-95098375D01*
X134243594Y-94944727D01*
X134115272Y-94816405D01*
X133961624Y-94719861D01*
X133961623Y-94719860D01*
X133961618Y-94719858D01*
X133790330Y-94659922D01*
X133790329Y-94659921D01*
X133790327Y-94659921D01*
X133610000Y-94639604D01*
X133429672Y-94659921D01*
X133258376Y-94719860D01*
X133258375Y-94719861D01*
X133104727Y-94816405D01*
X132976405Y-94944727D01*
X132879861Y-95098375D01*
X132879860Y-95098376D01*
X132819921Y-95269672D01*
X132799604Y-95449999D01*
X132799604Y-95450000D01*
X125133600Y-95450000D01*
X125133600Y-92382300D01*
X125151906Y-92338106D01*
X126310606Y-91179406D01*
X126354800Y-91161100D01*
X146517400Y-91161100D01*
X146561594Y-91179406D01*
G37*
%TD.AperFunction*%
%TA.AperFunction,Conductor*%
G36*
X167752834Y-109056806D02*
G01*
X167771140Y-109101000D01*
X167768947Y-109117412D01*
X167768762Y-109118091D01*
X167765800Y-109143621D01*
X167765800Y-109146400D01*
X167747494Y-109190594D01*
X167703300Y-109208900D01*
X135904899Y-109208900D01*
X135860705Y-109190594D01*
X135842399Y-109146400D01*
X135860705Y-109102206D01*
X135866852Y-109096815D01*
X135926019Y-109051415D01*
X135964066Y-109038500D01*
X167708640Y-109038500D01*
X167752834Y-109056806D01*
G37*
%TD.AperFunction*%
%TA.AperFunction,Conductor*%
G36*
X167747495Y-107837806D02*
G01*
X167765801Y-107882000D01*
X167765801Y-107884778D01*
X167768762Y-107910309D01*
X167768763Y-107910313D01*
X167781410Y-107938956D01*
X167782514Y-107986778D01*
X167781410Y-107989443D01*
X167768762Y-108018089D01*
X167765800Y-108043621D01*
X167765800Y-108165400D01*
X167747494Y-108209594D01*
X167703300Y-108227900D01*
X137245737Y-108227900D01*
X137201543Y-108209594D01*
X137183237Y-108165400D01*
X137183772Y-108157242D01*
X137195089Y-108071272D01*
X137200523Y-108030000D01*
X137200202Y-108027566D01*
X137200523Y-108026369D01*
X137200523Y-108025903D01*
X137200648Y-108025903D01*
X137212576Y-107981361D01*
X137217964Y-107975216D01*
X137355375Y-107837806D01*
X137399569Y-107819500D01*
X167703301Y-107819500D01*
X167747495Y-107837806D01*
G37*
%TD.AperFunction*%
%TA.AperFunction,Conductor*%
G36*
X167703310Y-105619228D02*
G01*
X167747500Y-105637540D01*
X167765800Y-105681715D01*
X167765800Y-105684773D01*
X167765801Y-105684781D01*
X167766302Y-105689106D01*
X167761392Y-105721541D01*
X167718762Y-105818090D01*
X167715800Y-105843621D01*
X167715800Y-105846400D01*
X167697494Y-105890594D01*
X167653300Y-105908900D01*
X139028639Y-105908900D01*
X138984445Y-105890594D01*
X138966139Y-105846400D01*
X138984445Y-105802206D01*
X139004721Y-105788658D01*
X139029498Y-105778395D01*
X139125262Y-105738728D01*
X139251705Y-105641705D01*
X139253149Y-105639821D01*
X139254187Y-105639222D01*
X139254603Y-105638807D01*
X139254714Y-105638918D01*
X139294572Y-105615901D01*
X139302743Y-105615365D01*
X167703310Y-105619228D01*
G37*
%TD.AperFunction*%
%TA.AperFunction,Conductor*%
G36*
X167747495Y-103437806D02*
G01*
X167765801Y-103482000D01*
X167765801Y-103484780D01*
X167766597Y-103491645D01*
X167761688Y-103524089D01*
X167720049Y-103618394D01*
X167717100Y-103643811D01*
X167717100Y-103962200D01*
X169985600Y-103962200D01*
X170029794Y-103980506D01*
X170048100Y-104024700D01*
X170048100Y-104203700D01*
X170029794Y-104247894D01*
X169985600Y-104266200D01*
X167717101Y-104266200D01*
X167717101Y-104584588D01*
X167720049Y-104610007D01*
X167720049Y-104610008D01*
X167761687Y-104704308D01*
X167766596Y-104736752D01*
X167765800Y-104743616D01*
X167765800Y-104746128D01*
X167747494Y-104790322D01*
X167703300Y-104808628D01*
X167703291Y-104808628D01*
X142904759Y-104805255D01*
X142860568Y-104786943D01*
X142842268Y-104742746D01*
X142842803Y-104734597D01*
X142860523Y-104600001D01*
X142860523Y-104599998D01*
X142839721Y-104441991D01*
X142839720Y-104441989D01*
X142839720Y-104441985D01*
X142818079Y-104389739D01*
X142818078Y-104341903D01*
X142851903Y-104308079D01*
X142899736Y-104308078D01*
X142951985Y-104329720D01*
X142951989Y-104329720D01*
X142951991Y-104329721D01*
X143109998Y-104350523D01*
X143110000Y-104350523D01*
X143110002Y-104350523D01*
X143268008Y-104329721D01*
X143268008Y-104329720D01*
X143268015Y-104329720D01*
X143415262Y-104268728D01*
X143541705Y-104171705D01*
X143638728Y-104045262D01*
X143699720Y-103898015D01*
X143720523Y-103740000D01*
X143720202Y-103737566D01*
X143720523Y-103736369D01*
X143720523Y-103735903D01*
X143720648Y-103735903D01*
X143732576Y-103691361D01*
X143737964Y-103685215D01*
X143985375Y-103437806D01*
X144029569Y-103419500D01*
X167703301Y-103419500D01*
X167747495Y-103437806D01*
G37*
%TD.AperFunction*%
%TA.AperFunction,Conductor*%
G36*
X167747495Y-102337806D02*
G01*
X167765801Y-102382000D01*
X167765801Y-102384778D01*
X167768762Y-102410309D01*
X167768763Y-102410313D01*
X167781410Y-102438956D01*
X167782514Y-102486778D01*
X167781410Y-102489443D01*
X167768762Y-102518089D01*
X167765800Y-102543621D01*
X167765800Y-102546400D01*
X167747494Y-102590594D01*
X167703300Y-102608900D01*
X143835168Y-102608900D01*
X143790974Y-102590594D01*
X143772668Y-102546400D01*
X143790974Y-102502206D01*
X143955374Y-102337806D01*
X143999568Y-102319500D01*
X167703301Y-102319500D01*
X167747495Y-102337806D01*
G37*
%TD.AperFunction*%
%TD*%
M02*
